<?xml version="1.0" standalone="no"?>
<!DOCTYPE svg PUBLIC "-//W3C//DTD SVG 1.1//EN" "http://www.w3.org/Graphics/SVG/1.1/DTD/svg11.dtd" >
<svg xmlns="http://www.w3.org/2000/svg" xmlns:xlink="http://www.w3.org/1999/xlink" version="1.1">
<metadata>
Created by FontForge 20170731 at Tue Jan 12 21:15:48 2021
 By Aleksey,,,
Copyright (c) 2018 by Martin Va'cha. All rights reserved.
</metadata>
<defs>
<font id="TobiasTRIAL-SemiBold" horiz-adv-x="1249" >
  <font-face 
    font-family="Tobias TRIAL SemiBold"
    font-weight="600"
    font-stretch="normal"
    units-per-em="2048"
    panose-1="0 0 7 0 0 0 0 0 0 0"
    ascent="1614"
    descent="-434"
    x-height="1038"
    cap-height="1450"
    bbox="10 -434 2243 1659"
    underline-thickness="102"
    underline-position="-307"
    unicode-range="U+0020-007A"
  />
<missing-glyph horiz-adv-x="2269" 
d="M111 633q0 202 78 388.5t210 323.5t314.5 222t384.5 92v-2048q-202 7 -385 90.5t-315 220t-209.5 322.5t-77.5 389zM1171 -383v2034q83 -28 153.5 -171.5t111.5 -368.5t41 -478t-41.5 -477t-111.5 -367t-153 -172zM1835 633q0 -344 -142 -617t-366 -366q103 134 164 398
t61 585t-61 585.5t-164 401.5q146 -62 262 -207.5t181 -349.5t65 -430zM2159 633q0 -310 -171 -566t-452 -374q172 150 273.5 400t101.5 540q0 289 -101.5 541t-273.5 401q281 -119 452 -376t171 -566z" />
    <glyph glyph-name=".notdef" horiz-adv-x="2269" 
d="M111 633q0 202 78 388.5t210 323.5t314.5 222t384.5 92v-2048q-202 7 -385 90.5t-315 220t-209.5 322.5t-77.5 389zM1171 -383v2034q83 -28 153.5 -171.5t111.5 -368.5t41 -478t-41.5 -477t-111.5 -367t-153 -172zM1835 633q0 -344 -142 -617t-366 -366q103 134 164 398
t61 585t-61 585.5t-164 401.5q146 -62 262 -207.5t181 -349.5t65 -430zM2159 633q0 -310 -171 -566t-452 -374q172 150 273.5 400t101.5 540q0 289 -101.5 541t-273.5 401q281 -119 452 -376t171 -566z" />
    <glyph glyph-name=".null" horiz-adv-x="0" 
 />
    <glyph glyph-name="nonmarkingreturn" horiz-adv-x="682" 
 />
    <glyph glyph-name="space" unicode=" " horiz-adv-x="419" 
 />
    <glyph glyph-name="comma" unicode="," horiz-adv-x="475" 
d="M231 283q81 0 129 -55t48 -142q0 -156 -89.5 -255t-240.5 -134l-6 22q82 43 139.5 111.5t60.5 149.5q-26 -13 -49 -13q-66 0 -109.5 45.5t-43.5 114.5q0 67 45.5 111.5t115.5 44.5z" />
    <glyph glyph-name="hyphen" unicode="-" horiz-adv-x="716" 
d="M102 573h512v-55h-512v55z" />
    <glyph glyph-name="period" unicode="." horiz-adv-x="452" 
d="M227 -29q-66 0 -111.5 45t-45.5 111q0 65 45.5 110.5t111.5 45.5q68 0 113 -45.5t45 -110.5t-46.5 -110.5t-111.5 -45.5z" />
    <glyph glyph-name="zero" unicode="0" horiz-adv-x="1378" 
d="M692 1481q139 0 250.5 -60.5t181.5 -165t107 -240t37 -290.5t-37 -290.5t-107 -240t-181.5 -165t-250.5 -60.5q-113 0 -208.5 39.5t-163.5 109t-115.5 165t-70.5 207t-23 235.5t23 235.5t70.5 207t115.5 165t163.5 109t208.5 39.5zM657 1423q-74 0 -132.5 -78t-90 -211
t-31.5 -296q0 -143 20.5 -283.5t58.5 -260t100.5 -193.5t138.5 -74q74 0 132.5 78.5t90 212t31.5 296.5q0 142 -20.5 282.5t-58.5 259.5t-100.5 193t-138.5 74z" />
    <glyph glyph-name="one" unicode="1" horiz-adv-x="800" 
d="M729 0h-680v29q131 10 175 42t44 109v1028h-217v29q161 44 269.5 98t199.5 133h29v-1288q0 -78 39.5 -109t140.5 -42v-29z" />
    <glyph glyph-name="two" unicode="2" horiz-adv-x="1187" 
d="M532 1423q-56 0 -103 -19.5t-76 -50.5t-49 -70.5t-22.5 -80t3.5 -78.5q18 -64 -8.5 -102.5t-79.5 -48.5q-61 -13 -103 19t-45 95q-6 152 139.5 273t350.5 121q243 0 386.5 -112t143.5 -296q0 -103 -38.5 -188.5t-103.5 -145.5t-144.5 -110.5t-167.5 -93t-166.5 -81.5
t-148 -87.5t-105.5 -100.5h589q52 0 94 10t83.5 34.5t72 73t47.5 118.5l29 -2l-59 -500h-969l2 49q6 97 34 181t70 146t95 117t110 101t113 91t106.5 93t89.5 101t61.5 121.5t22.5 148.5q0 115 -73 194.5t-181 79.5z" />
    <glyph glyph-name="three" unicode="3" horiz-adv-x="1185" 
d="M535 -31q-168 0 -298.5 79.5t-173.5 217.5q-26 58 -7.5 118.5t77.5 78.5q80 23 129.5 -22.5t22.5 -157.5q-5 -42 9.5 -86t45 -82.5t84.5 -63t121 -24.5q114 0 190 88.5t76 246.5q0 168 -116 259t-326 88v49q182 33 288.5 136t106.5 259q0 121 -60 195.5t-157 74.5
q-87 0 -146 -50t-78.5 -117.5t-5.5 -131.5q18 -64 -8.5 -102t-81.5 -49q-61 -15 -103 18t-44 96q-3 74 33 145.5t98.5 126.5t153.5 88.5t192 33.5q215 0 343.5 -92t133.5 -240q5 -142 -111 -244.5t-321 -136.5q231 -3 366.5 -102t135.5 -271q0 -131 -75.5 -228.5
t-203.5 -147.5t-290 -50z" />
    <glyph glyph-name="four" unicode="4" horiz-adv-x="1277" 
d="M1083 0h-680v29q119 14 170.5 61.5t51.5 159.5v143h-584v29l635 1057h227v-983h19q94 0 165 86.5t105 234.5h29l-54 -424h-264v-143q1 -118 38.5 -163.5t141.5 -57.5v-29zM625 1282l-475 -786h475v786z" />
    <glyph glyph-name="five" unicode="5" horiz-adv-x="1155" 
d="M946 1552h29l43 -344h-737l-62 -473q174 174 369 174q212 0 342.5 -130t130.5 -333q0 -217 -149 -347t-398 -130q-138 0 -260.5 54.5t-165.5 146.5q-30 51 -21 98t50 68q48 29 103 -1.5t79 -109.5q23 -89 82.5 -143t138.5 -55q122 -1 190 95t68 261q0 162 -85 269.5
t-214 107.5q-149 0 -278 -123l-49 27l102 786h551q117 0 141 102z" />
    <glyph glyph-name="six" unicode="6" horiz-adv-x="1263" 
d="M752 938q189 0 310.5 -133t121.5 -340q0 -219 -130.5 -358.5t-357.5 -139.5q-270 0 -430 199.5t-155 531.5q2 191 51.5 342t136 247t201 146t250.5 50q88 0 172.5 -27t138.5 -76q43 -31 65 -69t21.5 -71t-18 -60t-48.5 -39q-126 -51 -172 121q-18 70 -66.5 116.5
t-113.5 46.5q-131 0 -225 -187t-101 -488q132 188 349 188zM707 25q89 0 147.5 108t58.5 262q0 175 -84 287.5t-213 112.5q-133 0 -213 -111q2 -108 22 -220t56 -212t95 -163.5t131 -63.5z" />
    <glyph glyph-name="seven" unicode="7" horiz-adv-x="1107" 
d="M117 1450h968v-29q-276 -362 -389.5 -695.5t-91.5 -725.5h-309q-6 112 8 219.5t40 196.5t73.5 182.5t93.5 165.5t115 157t123.5 145t132.5 142h-543q-103 0 -156.5 -48.5t-93.5 -164.5h-29z" />
    <glyph glyph-name="eight" unicode="8" horiz-adv-x="1292" 
d="M805 834q52 -23 85.5 -39.5t80 -43t76.5 -50.5t63 -58t52 -70t31.5 -82.5t12.5 -99.5q0 -183 -152.5 -303.5t-418.5 -120.5q-243 0 -396 100t-153 252q0 258 348 386q-69 35 -119.5 69.5t-96 81.5t-69.5 108t-24 134q0 160 141 272.5t371 112.5q214 0 352.5 -98.5
t138.5 -227.5q0 -226 -323 -323zM637 1425q-96 0 -158.5 -61t-62.5 -166q0 -51 18 -95.5t45 -76t72.5 -63t86 -52t99.5 -47.5q59 40 97 114t38 163q0 128 -65.5 206t-169.5 78zM635 25q120 0 199 73.5t79 190.5q0 40 -11.5 75.5t-27.5 63t-47.5 56t-57 47.5t-71 43.5
t-73.5 38.5t-80 38q-35 17 -53 25q-62 -43 -101 -133.5t-39 -196.5q0 -141 78.5 -231t204.5 -90z" />
    <glyph glyph-name="nine" unicode="9" horiz-adv-x="1263" 
d="M567 1483q270 0 430 -200t156 -531q-2 -191 -51.5 -342t-136 -247t-201 -146t-250.5 -50q-88 0 -172.5 27t-138.5 76q-57 41 -76.5 92.5t-3 91.5t58.5 57q126 48 172 -123q18 -69 67 -116t114 -47q131 0 224.5 187.5t100.5 489.5q-131 -190 -348 -190q-189 0 -310.5 133
t-121.5 340q0 219 130 358.5t357 139.5zM647 655q134 0 213 111q-2 108 -21.5 219.5t-55 212t-95 164t-131.5 63.5q-89 0 -148 -108.5t-59 -261.5q0 -175 84 -287.5t213 -112.5z" />
    <glyph glyph-name="A" unicode="A" horiz-adv-x="1581" 
d="M791 1481l530 -1221q54 -123 112 -176t138 -55v-29h-674v29q118 1 146.5 50.5t-21.5 164.5l-96 223h-535l-94 -223q-49 -116 -18 -164.5t151 -50.5v-29h-420v29q72 2 126 55t106 176l520 1221h29zM655 1100l-241 -576h487z" />
    <glyph glyph-name="B" unicode="B" horiz-adv-x="1449" 
d="M848 0h-776v29q105 12 144.5 44.5t39.5 106.5v1090q0 74 -39.5 106.5t-144.5 44.5v29h669q253 0 392 -93t139 -265q0 -125 -96 -214t-252 -108q201 -19 322.5 -121t121.5 -250q0 -190 -136 -294.5t-384 -104.5zM537 1395v-611h163q124 0 200.5 85.5t76.5 222.5t-81 220
t-214 83h-145zM690 59h70q141 0 227 93.5t86 248.5q0 145 -93 235.5t-243 90.5h-200v-555q0 -52 37.5 -82.5t115.5 -30.5z" />
    <glyph glyph-name="C" unicode="C" horiz-adv-x="1449" 
d="M1237 1481h31l55 -445h-29q-58 180 -179.5 283.5t-272.5 103.5q-192 0 -316 -172t-123 -448q2 -188 69 -341.5t186 -242t268 -88.5q146 0 255.5 96t153.5 265l33 -7q-26 -234 -183 -375t-382 -141q-154 0 -284 55.5t-218.5 152t-138.5 229.5t-51 286q-1 167 49.5 312.5
t142.5 250.5t227 165.5t295 60.5q74 0 143.5 -15.5t108 -31.5t72 -24t53.5 8t35 63z" />
    <glyph glyph-name="D" unicode="D" horiz-adv-x="1603" 
d="M72 1450h628q367 0 580 -184t213 -510q0 -353 -206 -554.5t-558 -201.5h-657v29q105 12 144.5 44.5t39.5 106.5v1090q0 74 -39.5 106.5t-144.5 44.5v29zM659 57h70q132 0 239.5 84t169.5 234.5t62 337.5q0 313 -148.5 496.5t-385.5 183.5h-131v-1211q0 -125 124 -125z
" />
    <glyph glyph-name="E" unicode="E" horiz-adv-x="1292" 
d="M1204 397h29l-51 -397h-1110v29q105 12 144.5 44.5t39.5 106.5v1090q0 74 -39.5 106.5t-144.5 44.5v29h913q112 0 131 31h29l67 -428h-28q-46 182 -138 261t-258 79h-253v-621h210q180 0 168 217h29l59 -489h-28q-43 215 -213 215h-225v-535q0 -67 26.5 -95t93.5 -28h162
q162 0 253 80.5t134 259.5z" />
    <glyph glyph-name="F" unicode="F" horiz-adv-x="1261" 
d="M1114 1481h29l67 -428h-28q-44 181 -136 260.5t-258 79.5h-253v-621h210q180 0 168 217h29l59 -489h-28q-43 215 -213 215h-225v-535q0 -52 19 -80t71.5 -45.5t154.5 -25.5v-29h-708v29q105 12 144.5 44.5t39.5 106.5v1090q0 74 -39.5 106.5t-144.5 44.5v29h913
q110 0 129 31z" />
    <glyph glyph-name="G" unicode="G" horiz-adv-x="1544" 
d="M793 -31q-200 0 -356 95t-240.5 259.5t-85.5 368.5q-2 229 91.5 409.5t259.5 280t374 99.5q61 0 119.5 -11.5t95.5 -25.5t72 -25t56 -12t38.5 16.5t29.5 57.5h27l55 -445h-29q-154 387 -473 387q-182 0 -304.5 -177t-119.5 -455q2 -216 63 -389t167 -270t237 -97
q54 0 107 18.5t90 55.5v399q0 89 -46.5 138.5t-137.5 53.5v31h641v-31q-178 -12 -178 -192v-258q-79 -124 -231 -202.5t-322 -78.5z" />
    <glyph glyph-name="H" unicode="H" horiz-adv-x="1693" 
d="M1622 1450v-29q-105 -12 -144.5 -44.5t-39.5 -106.5v-1090q0 -74 39.5 -106.5t144.5 -44.5v-29h-647v29q105 12 144.5 44.5t39.5 106.5v535h-624v-535q0 -74 39.5 -106.5t144.5 -44.5v-29h-647v29q105 12 144.5 44.5t39.5 106.5v1090q0 74 -39.5 106.5t-144.5 44.5v29
h647v-29q-105 -12 -144.5 -44.5t-39.5 -106.5v-498h624v498q0 74 -39.5 106.5t-144.5 44.5v29h647z" />
    <glyph glyph-name="I" unicode="I" horiz-adv-x="790" 
d="M535 1270v-1090q0 -74 39.5 -106.5t144.5 -44.5v-29h-647v29q105 12 144.5 44.5t39.5 106.5v1090q0 74 -39.5 106.5t-144.5 44.5v29h647v-29q-105 -12 -144.5 -44.5t-39.5 -106.5z" />
    <glyph glyph-name="J" unicode="J" horiz-adv-x="1161" 
d="M467 -31q-63 0 -122.5 11.5t-114.5 37t-96 61.5t-65.5 89t-25.5 117q-2 61 30.5 99t90.5 38q62 0 99.5 -37.5t37.5 -101.5q0 -18 -5 -51.5t-5 -49.5q0 -70 52.5 -111.5t133.5 -41.5q180 0 180 284v957q0 74 -38.5 106.5t-143.5 44.5v29h645v-29q-105 -12 -143.5 -44.5
t-38.5 -106.5v-862q0 -212 -124.5 -325.5t-346.5 -113.5z" />
    <glyph glyph-name="K" unicode="K" horiz-adv-x="1552" 
d="M885 979l430 -772q37 -72 102 -121t125 -55v-31h-483q0 65 -55 166l-328 602l-141 -143v-445q0 -74 39.5 -106.5t144.5 -44.5v-29h-647v29q105 12 144.5 44.5t39.5 106.5v1090q0 74 -39.5 106.5t-144.5 44.5v29h647v-29q-105 -12 -144.5 -44.5t-39.5 -106.5v-563l573 583
q55 54 32 89.5t-126 39.5v31h438v-31q-65 -5 -141 -44t-140 -105z" />
    <glyph glyph-name="L" unicode="L" horiz-adv-x="1265" 
d="M1196 397h29l-49 -397h-1104v29q105 12 144.5 44.5t39.5 106.5v1090q0 74 -39.5 106.5t-144.5 44.5v29h647v-29q-105 -12 -144.5 -44.5t-39.5 -106.5v-1090q0 -67 26.5 -95t93.5 -28h156q161 0 252.5 80.5t132.5 259.5z" />
    <glyph glyph-name="M" unicode="M" horiz-adv-x="1955" 
d="M1884 1448v-29q-106 -12 -145 -44t-39 -107v-1090q0 -73 42 -107.5t142 -43.5v-29h-647v29q101 9 142.5 43t41.5 108v1004l-540 -1182h-29l-539 1182v-1002q0 -74 41 -108t140 -43v-29h-422v29q100 9 142 43.5t42 107.5v1090q0 75 -39 108t-143 43v29h426l489 -1077
l492 1077z" />
    <glyph glyph-name="N" unicode="N" horiz-adv-x="1517" 
d="M1024 1421v29h422v-29q-105 -12 -143.5 -44.5t-38.5 -106.5v-1270h-39l-912 1217v-1037q0 -74 38 -106.5t143 -44.5v-29h-422v29q105 12 144.5 44.5t39.5 106.5v1090q0 75 -39 108t-143 43v29h415l717 -973v793q0 74 -38.5 106.5t-143.5 44.5z" />
    <glyph glyph-name="O" unicode="O" horiz-adv-x="1665" 
d="M827 -31q-165 0 -302 58t-226.5 157.5t-138.5 230.5t-49 279q0 230 94.5 410t260 278.5t372.5 98.5q165 0 302.5 -58t227.5 -157t139 -230t49 -278q0 -171 -55.5 -318t-152 -250.5t-231.5 -162t-290 -58.5zM870 27q179 3 287 182t105 463q-1 205 -57.5 375.5
t-163.5 273.5t-244 102q-120 0 -210.5 -82t-138 -229t-45.5 -336q2 -202 60 -372.5t165.5 -274t241.5 -102.5z" />
    <glyph glyph-name="P" unicode="P" horiz-adv-x="1347" 
d="M707 627h-172v-437q0 -86 39.5 -118t144.5 -43v-29h-647v29q106 11 145 43.5t39 117.5v1072q0 83 -39.5 115.5t-144.5 43.5v29h635q271 0 424 -109t153 -303q0 -192 -153.5 -301.5t-423.5 -109.5zM639 1393h-104v-709h104q111 0 191.5 49.5t118.5 128.5t38 176
q0 156 -89 255.5t-259 99.5z" />
    <glyph glyph-name="Q" unicode="Q" horiz-adv-x="1665" 
d="M879 -29q99 -325 520 -297l8 -26q-111 -49 -239 -49.5t-241 42.5t-201 136.5t-118 220.5q-233 66 -365 257t-132 439q0 230 94.5 410t260 278.5t372.5 98.5q165 0 302.5 -58t227.5 -157t139 -230t49 -278q0 -164 -51 -306.5t-140.5 -244.5t-215 -164.5t-270.5 -71.5z
M797 1423q-120 0 -210.5 -82t-138 -229t-45.5 -336q2 -202 60 -372.5t165.5 -274t241.5 -102.5q179 3 287 182t105 463q-1 205 -57.5 375.5t-163.5 273.5t-244 102z" />
    <glyph glyph-name="R" unicode="R" horiz-adv-x="1503" 
d="M969 662l327 -488q34 -54 95 -96t102 -49v-29h-451q-2 53 -45 121l-327 506h-135v-437q0 -86 39.5 -118t144.5 -43v-29h-647v29q106 11 145 43.5t39 117.5v1072q0 83 -39.5 115.5t-144.5 43.5v29h635q271 0 424 -109t153 -303q0 -139 -82 -236t-233 -140zM535 1393v-709
h104q111 0 191.5 49.5t118.5 128.5t38 176q0 156 -89 255.5t-259 99.5h-104z" />
    <glyph glyph-name="S" unicode="S" 
d="M637 -31q-76 0 -142.5 15.5t-104 34.5t-70 34.5t-49.5 16t-31 -22t-27 -78.5h-29l-78 500h29q101 -226 223.5 -333t278.5 -107q115 0 187.5 70t72.5 180q0 70 -26.5 124.5t-72 90.5t-104 65.5t-123 54t-129 50.5t-123 61.5t-104 80.5t-72 114t-26.5 155q0 182 131.5 294
t357.5 112q78 0 147.5 -17t105 -34.5t65 -26t45.5 8.5t30 69h29l72 -449h-29q-72 184 -198.5 287.5t-266.5 103.5q-117 0 -181.5 -62.5t-64.5 -168.5q0 -63 27.5 -113t73.5 -84t106 -62.5t126 -54t132.5 -53t126.5 -65.5t106 -85t73.5 -117t27.5 -157q0 -195 -144.5 -313.5
t-377.5 -118.5z" />
    <glyph glyph-name="T" unicode="T" horiz-adv-x="1308" 
d="M1192 1481h29l67 -428h-28q-46 182 -138 261t-258 79h-69v-1213q0 -69 35.5 -103.5t142.5 -45.5v-31h-637v31q107 11 142.5 45.5t35.5 103.5v1213h-70q-166 0 -257.5 -79t-137.5 -261h-29l68 428h29q19 -31 129 -31h815q112 0 131 31z" />
    <glyph glyph-name="U" unicode="U" horiz-adv-x="1536" 
d="M1071 1421v29h424v-29q-105 -12 -143.5 -44.5t-38.5 -106.5v-766q0 -243 -137.5 -389t-366.5 -146q-279 0 -431.5 139.5t-152.5 395.5v766q0 74 -39.5 106.5t-144.5 44.5v29h647v-29q-105 -12 -144.5 -44.5t-39.5 -106.5v-766q0 -205 105 -331t276 -126q169 0 269.5 125
t100.5 332v766q0 74 -39.5 106.5t-144.5 44.5z" />
    <glyph glyph-name="V" unicode="V" horiz-adv-x="1581" 
d="M819 -31h-28l-531 1221q-54 123 -111.5 176.5t-138.5 54.5v29h676v-29q-119 -2 -147.5 -50.5t22.5 -164.5l365 -856l358 856q49 116 18 164.5t-151 50.5v29h420v-29q-72 -1 -125 -54.5t-107 -176.5z" />
    <glyph glyph-name="W" unicode="W" horiz-adv-x="2252" 
d="M1862 1419v31h381v-31q-65 0 -114.5 -53.5t-96.5 -175.5l-473 -1221h-27l-395 1000l-387 -1000h-27l-483 1221q-45 113 -98 171t-132 58v31h629v-31q-105 0 -127 -53t23 -160l313 -829l258 670l-57 143q-45 113 -98 171t-132 58v31h629v-31q-104 0 -127 -53t22 -160
l314 -829l319 829q45 110 20.5 161.5t-134.5 51.5z" />
    <glyph glyph-name="X" unicode="X" horiz-adv-x="1519" 
d="M870 844l404 -645q24 -39 35.5 -55.5t33.5 -41.5t42.5 -36t52 -21.5t73.5 -15.5v-29h-700v29q106 12 142.5 50.5t-1.5 100.5l-280 449l-336 -449q-46 -58 -17.5 -98.5t132.5 -52.5v-29h-441v29q51 6 89 18.5t68.5 36t50 44.5t50.5 60l369 496l-356 567q-31 49 -46.5 70
t-43.5 46.5t-62 36.5t-86 17v29h698v-29q-217 -25 -139 -151l234 -373l278 373q92 127 -117 151v29h443v-29q-68 -8 -116 -30t-75 -49.5t-67 -79.5z" />
    <glyph glyph-name="Y" unicode="Y" horiz-adv-x="1472" 
d="M1028 1421v29h436v-29q-105 -12 -163.5 -48.5t-94.5 -110.5l-309 -623v-457q0 -69 36.5 -103.5t143.5 -47.5v-31h-639v31q107 13 143.5 47.5t36.5 103.5v406l-370 663q-35 61 -59 90t-67 50.5t-112 29.5v29h688v-29q-107 -12 -142 -48.5t1 -102.5l309 -555l277 555
q37 67 12.5 103t-127.5 48z" />
    <glyph glyph-name="Z" unicode="Z" horiz-adv-x="1275" 
d="M1208 1450v-31l-811 -1362h387q166 0 258 79t138 261h28l-67 -428h-29q-19 31 -131 31h-930v31l813 1362h-327q-166 0 -258 -79.5t-136 -260.5h-28l67 428h29q19 -31 129 -31h868z" />
    <glyph glyph-name="a" unicode="a" horiz-adv-x="1161" 
d="M1108 166l27 -10q-77 -187 -230 -187q-35 0 -70.5 13t-67.5 38t-52.5 69t-20.5 99v7q-40 -110 -121.5 -168t-185.5 -58q-122 0 -203.5 74.5t-81.5 189.5q0 162 109.5 251t345.5 112l137 14v109q0 134 -51 213.5t-143 79.5q-66 0 -110 -35t-57.5 -82t-2.5 -92
q18 -66 -6 -106t-74 -50q-61 -14 -105 18t-43 101q2 55 31 108t82.5 97t140.5 71t193 27q193 0 302.5 -101t109.5 -274v-510q0 -43 16 -67.5t45 -24.5q46 0 86 74zM530 127q53 0 96 36t68 99v289l-116 -14q-209 -30 -209 -230q0 -78 45.5 -129t115.5 -51z" />
    <glyph glyph-name="b" unicode="b" horiz-adv-x="1214" 
d="M709 1069q137 0 237.5 -71t149.5 -187.5t49 -261.5q0 -260 -144 -420t-370 -160q-80 0 -153.5 28t-127.5 79l-172 -107h-28v1248q0 73 -30 98.5t-93 19.5v29l360 117h29v-645q27 102 105.5 167.5t187.5 65.5zM621 27q109 0 178 123t69 309q0 130 -30 233.5t-94 167.5
t-154 64q-61 0 -109 -41.5t-65 -108.5v-459q0 -119 55 -203.5t150 -84.5z" />
    <glyph glyph-name="c" unicode="c" horiz-adv-x="1060" 
d="M975 700h-29q-49 149 -137.5 230.5t-194.5 81.5q-119 0 -197.5 -116.5t-78.5 -289.5q0 -126 45.5 -232.5t132 -171.5t195.5 -65q96 0 165.5 54t100.5 153l29 -6q-25 -166 -136 -267.5t-284 -101.5q-220 0 -368 153.5t-148 383.5q0 156 67.5 285.5t184 203.5t256.5 74
q67 0 126.5 -13.5t89 -27.5t53.5 -20.5t35 6.5t19 55h27z" />
    <glyph glyph-name="d" unicode="d" horiz-adv-x="1267" 
d="M1212 166l27 -10q-74 -187 -229 -187q-35 0 -70.5 13t-67.5 38t-52.5 69t-20.5 99v9q-29 -99 -107.5 -163.5t-185.5 -64.5q-137 0 -237.5 71t-149.5 187.5t-49 261.5q0 260 144 420t370 160q118 0 215 -57v205q0 73 -30 98.5t-93 19.5v29l360 117h29v-1297
q0 -43 16.5 -67.5t44.5 -24.5q48 0 86 74zM625 115q60 0 107.5 39.5t66.5 103.5v465q0 119 -55 204t-150 85q-109 0 -177.5 -122.5t-68.5 -309.5q0 -131 29.5 -234.5t93.5 -167t154 -63.5z" />
    <glyph glyph-name="e" unicode="e" horiz-adv-x="1083" 
d="M971 338l28 -6q-25 -162 -141 -262.5t-276 -100.5q-123 0 -222.5 43.5t-161.5 117t-95 167.5t-33 199q0 254 145 412.5t373 158.5q211 0 315.5 -122t93.5 -322h-659q2 -139 42.5 -246.5t125.5 -173.5t205 -66q88 0 159.5 55t100.5 146zM555 1010q-99 0 -154 -92t-63 -244
h401q6 79 -14 155.5t-65 128.5t-105 52z" />
    <glyph glyph-name="f" unicode="f" horiz-adv-x="1024" 
d="M668 1507q60 0 118 -10.5t111.5 -31.5t86 -59.5t32.5 -88.5q0 -49 -34 -81t-77 -33.5t-82 22.5q-27 18 -45.5 48.5t-27.5 59.5t-21 56.5t-34.5 44t-59.5 16.5q-52 0 -87.5 -49t-50 -121.5t-14.5 -161.5v-80h285v-57h-285v-825q0 -62 37.5 -87.5t145.5 -39.5v-29h-582v29
q73 14 103 40.5t30 86.5v825h-172v57h172v15q0 111 37 199.5t100.5 143t143.5 83t170 28.5z" />
    <glyph glyph-name="g" unicode="g" horiz-adv-x="1134" 
d="M471 195l186 43q69 13 133.5 12t121 -23.5t99 -59t67 -93t24.5 -125.5q0 -116 -76.5 -204t-208.5 -133.5t-299 -45.5q-206 0 -314 64.5t-108 160.5q0 70 45.5 119.5t116.5 73.5q-62 25 -96.5 75.5t-34.5 120.5q0 74 42.5 138.5t123.5 99.5q-83 45 -131.5 119t-48.5 172
q0 154 122 257t320 103h33q36 -1 85.5 -3t79 -3.5t68.5 -2t62 1t49.5 4.5t41.5 10t29 17.5t20 26t7 35.5h25l20 -186q-49 0 -258 37q85 -48 132.5 -125t47.5 -172q0 -154 -122 -255.5t-320 -101.5q-121 0 -223 45q-64 -37 -64 -98q0 -67 61 -95.5t142 -8.5zM532 1018
q-70 0 -113.5 -67t-43.5 -173q0 -158 58 -266.5t147 -108.5q70 0 110.5 66.5t40.5 175.5q0 158 -56.5 265.5t-142.5 107.5zM592 -379q155 0 248.5 58.5t93.5 166.5q0 97 -91 142t-214 18l-140 -33q-95 -21 -172 -6q-49 -56 -49 -123q0 -103 92 -163t232 -60z" />
    <glyph glyph-name="h" unicode="h" 
d="M1092 715v-555q0 -62 26 -90.5t96 -40.5v-29h-512v29q70 12 96.5 40.5t26.5 90.5v540q0 94 -42 145.5t-119 51.5q-111 0 -226 -121v-616q0 -62 27 -90.5t98 -40.5v-29h-514v29q70 12 96.5 40.5t26.5 90.5v1057q0 73 -30 98.5t-93 19.5v29l361 117h28v-643
q84 109 168.5 169t179.5 60q149 0 227.5 -94t78.5 -258z" />
    <glyph glyph-name="i" unicode="i" horiz-adv-x="618" 
d="M305 1190q-75 0 -124.5 47.5t-49.5 118.5q0 69 49.5 116.5t124.5 47.5t124.5 -47.5t49.5 -116.5q0 -71 -49.5 -118.5t-124.5 -47.5zM438 1069v-909q0 -62 27 -90.5t98 -40.5v-29h-514v29q70 12 96.5 40.5t26.5 90.5v643q0 74 -29.5 100t-93.5 21v28l361 117h28z" />
    <glyph glyph-name="j" unicode="j" horiz-adv-x="630" 
d="M338 1190q-75 0 -124.5 47.5t-49.5 118.5q0 69 49.5 116.5t124.5 47.5t124.5 -47.5t49.5 -116.5q0 -71 -49.5 -118.5t-124.5 -47.5zM94 924v28l361 117h28v-954q0 -107 -19.5 -186.5t-69.5 -152t-143.5 -124.5t-232.5 -86l-8 24q40 17 67.5 34.5t56 49.5t45.5 75.5
t27.5 111t10.5 157.5v785q0 74 -29.5 100t-93.5 21z" />
    <glyph glyph-name="k" unicode="k" horiz-adv-x="1220" 
d="M760 741l291 -581q35 -63 69.5 -93.5t91.5 -37.5v-29h-405q2 46 -45 139l-207 420l-117 -104v-295q0 -62 27 -90.5t98 -40.5v-29h-514v29q70 12 96.5 40.5t26.5 90.5v1057q0 73 -30 98.5t-93 19.5v29l361 117h28v-951l385 344q57 47 43.5 88.5t-96.5 47.5v28h412v-28
q-81 -10 -141.5 -42.5t-149.5 -109.5z" />
    <glyph glyph-name="l" unicode="l" horiz-adv-x="618" 
d="M438 1481v-1321q0 -62 27 -90.5t98 -40.5v-29h-514v29q70 12 96.5 40.5t26.5 90.5v1057q0 73 -30 98.5t-93 19.5v29l361 117h28z" />
    <glyph glyph-name="m" unicode="m" horiz-adv-x="1906" 
d="M1747 719v-559q0 -62 27.5 -90.5t97.5 -40.5v-29h-514v29q70 12 97.5 40.5t27.5 90.5v542q0 89 -47 142t-125 53q-60 0 -110 -29t-109 -92q2 -18 2 -57v-559q0 -62 26.5 -90.5t96.5 -40.5v-29h-515v29q71 12 98 40.5t27 90.5v542q0 89 -46 142t-124 53q-60 0 -109.5 -29
t-109.5 -90v-618q0 -62 27 -90.5t98 -40.5v-29h-514v29q70 12 96.5 40.5t26.5 90.5v643q0 74 -29.5 100t-93.5 21v28l361 117h28v-233q86 113 170 172t180 59q122 0 197.5 -64t97.5 -180q89 118 176 181t185 63q148 0 225.5 -93.5t77.5 -254.5z" />
    <glyph glyph-name="n" unicode="n" 
d="M1092 715v-555q0 -62 26 -90.5t96 -40.5v-29h-512v29q70 12 96.5 40.5t26.5 90.5v540q0 94 -42 145.5t-119 51.5q-111 0 -226 -121v-616q0 -62 27 -90.5t98 -40.5v-29h-514v29q70 12 96.5 40.5t26.5 90.5v643q0 74 -29.5 100t-93.5 21v28l361 117h28v-231
q84 109 168.5 169t179.5 60q149 0 227.5 -94t78.5 -258z" />
    <glyph glyph-name="o" unicode="o" horiz-adv-x="1187" 
d="M586 -31q-230 0 -373 146t-143 381q0 255 148 414t384 159q229 0 372.5 -146.5t143.5 -381.5q0 -255 -148 -413.5t-384 -158.5zM641 27q97 0 152 94.5t55 251.5q0 107 -21 218t-58.5 205.5t-96.5 155t-127 60.5q-97 0 -152 -97.5t-55 -257.5q0 -142 35.5 -284.5t107 -244
t160.5 -101.5z" />
    <glyph glyph-name="p" unicode="p" horiz-adv-x="1257" 
d="M731 1069q137 0 237.5 -71t149.5 -187.5t49 -261.5q0 -260 -144 -420t-370 -160q-116 0 -215 58v-275q0 -64 37 -88.5t146 -38.5v-28h-582v28q74 14 103.5 40t29.5 87v1051q0 74 -29.5 100t-93.5 21v28l361 117h28v-233q27 102 105.5 167.5t187.5 65.5zM643 27
q109 0 178.5 123t69.5 309q0 130 -30 233.5t-94.5 167.5t-154.5 64q-61 0 -109 -41.5t-65 -108.5v-459q0 -119 55 -203.5t150 -84.5z" />
    <glyph glyph-name="q" unicode="q" horiz-adv-x="1198" 
d="M1065 1069v-1317q0 -62 30 -87.5t105 -39.5v-28h-584v28q109 14 146 38.5t37 88.5v445q-29 -99 -107.5 -163.5t-185.5 -64.5q-137 0 -237.5 71t-149.5 187.5t-49 261.5q0 260 144 420t370 160q159 0 276 -102l176 102h29zM625 115q60 0 107.5 39.5t66.5 103.5v465
q0 119 -55 204t-150 85q-109 0 -177.5 -122.5t-68.5 -309.5q0 -131 29.5 -234.5t93.5 -167t154 -63.5z" />
    <glyph glyph-name="r" unicode="r" horiz-adv-x="929" 
d="M739 1069q81 0 131 -34.5t50 -100.5q0 -57 -30.5 -91t-76.5 -34q-44 0 -88.5 34t-81.5 34q-79 0 -136 -85.5t-58 -211.5v-424q0 -62 37.5 -87.5t144.5 -39.5v-29h-582v29q73 14 103 40.5t30 86.5v647q0 74 -29.5 100t-93.5 21v28l361 117h29v-315q29 150 111.5 232.5
t178.5 82.5z" />
    <glyph glyph-name="s" unicode="s" horiz-adv-x="958" 
d="M504 -31q-65 0 -124.5 17t-90 34.5t-56.5 25.5t-39 -8.5t-22 -68.5h-29l-59 381h29q64 -151 168 -237t219 -86q78 0 131 44t53 115q0 53 -25.5 93t-67.5 63t-95 45.5t-109 39.5t-109 45.5t-95 63t-67.5 93t-25.5 133.5q0 136 102 221.5t254 85.5q56 0 112.5 -17t89.5 -34
t61 -25t40.5 8.5t14.5 67.5h29l53 -348h-29q-63 135 -157 213t-195 78q-73 0 -122.5 -42.5t-49.5 -109.5q0 -53 33 -90.5t85 -61.5t115.5 -45.5t127 -50.5t115.5 -68.5t85 -107.5t33 -160q0 -127 -103 -217t-280 -90z" />
    <glyph glyph-name="t" unicode="t" horiz-adv-x="788" 
d="M727 160l18 -13q-15 -26 -36.5 -53t-54 -57t-77.5 -49t-92 -19q-140 0 -220.5 85.5t-80.5 232.5v694h-159v29q143 44 245.5 126.5t151.5 192.5h29v-291h278v-57h-278v-684q0 -90 40 -146.5t115 -52.5q27 2 52 13t37 20.5t32 28.5z" />
    <glyph glyph-name="u" unicode="u" horiz-adv-x="1286" 
d="M1231 166l26 -10q-74 -187 -229 -187q-35 0 -70.5 13t-67.5 38t-52.5 69t-20.5 99v11q-85 -109 -168.5 -168.5t-179.5 -59.5q-149 0 -226 93t-77 255v484q0 74 -30.5 100t-94.5 21v28l360 117h29v-729q0 -92 46.5 -142.5t125.5 -50.5q60 0 109.5 26t105.5 83v547
q0 74 -29.5 100t-93.5 21v28l361 117h28v-885q0 -42 17 -67t45 -25q46 0 86 74z" />
    <glyph glyph-name="v" unicode="v" horiz-adv-x="1110" 
d="M578 -31h-29l-389 891q-60 135 -150 150v28h545v-28q-160 -18 -102 -150l221 -536l225 536q58 135 -96 150v28h299v-28q-81 -15 -139 -150z" />
    <glyph glyph-name="w" unicode="w" horiz-adv-x="1738" 
d="M1436 1010v28h293v-28q-41 -9 -73 -43t-61 -101l-381 -897h-26l-314 725l-309 -725h-26l-381 887q-59 138 -148 154v28h537v-28q-74 -10 -101 -47t-6 -86l222 -553l184 438l-45 104q-56 128 -144 144v28h539v-28q-74 -10 -100 -50.5t-2 -93.5l217 -542l229 542
q23 55 -4 93.5t-100 50.5z" />
    <glyph glyph-name="x" unicode="x" horiz-adv-x="1153" 
d="M684 614l287 -464q68 -107 172 -121v-29h-547v29q50 8 70 26t15.5 41.5t-26.5 59.5l-170 274l-196 -246q-53 -60 -51.5 -104t71.5 -51v-29h-299v29q91 19 219 172l228 278l-248 402q-70 112 -174 129v28h540v-28q-74 -7 -84.5 -40t27.5 -85l135 -221l154 190
q54 61 53.5 105.5t-69.5 50.5v28h299v-28q-48 -8 -99 -46.5t-125 -125.5z" />
    <glyph glyph-name="y" unicode="y" horiz-adv-x="1150" 
d="M844 1010v28h299v-28q-85 -15 -146 -152l-411 -954q-136 -338 -367 -338q-92 0 -150.5 40t-58.5 105q0 58 37.5 98.5t95.5 40.5q37 0 108 -33.5t122 -33.5q52 0 90 34.5t67 108.5l21 49l-391 883q-61 137 -144 152v28h539v-28q-157 -18 -102 -152l237 -563l244 563
q61 134 -90 152z" />
    <glyph glyph-name="z" unicode="z" horiz-adv-x="1044" 
d="M117 1038h860v-28l-610 -953h309q86 0 156.5 76t107.5 229h29l-35 -362h-881v29l613 952h-279q-85 0 -156 -66t-114 -206h-29z" />
    <glyph glyph-name="C.ss04" horiz-adv-x="1382" 
d="M1286 1470l31 -8l-109 -432l-28 4q-9 175 -101 282t-237 107q-192 0 -316 -172t-123 -448q2 -187 68.5 -338.5t185.5 -238.5t269 -87q147 0 256 92.5t153 260.5l33 -7q-26 -234 -183 -375t-382 -141q-154 0 -284 55.5t-218.5 152t-138.5 229.5t-51 286q-2 223 85 402.5
t250 283t373 103.5q83 0 160 -18t119 -37t79.5 -29t62 6t46.5 67z" />
    <glyph glyph-name="G.ss04" horiz-adv-x="1538" 
d="M793 -31q-200 0 -356 95t-240.5 259.5t-85.5 368.5q-2 228 91 409t255 280.5t362 99.5q83 0 162.5 -18.5t125.5 -37t87 -28.5t68 6t49 67l30 -8l-106 -432l-31 4q-7 171 -110.5 280t-251.5 109q-189 -2 -315.5 -178t-123.5 -454q2 -216 63 -389t167 -270t237 -97
q54 0 107 18.5t90 55.5v399q0 89 -46.5 138.5t-137.5 53.5v31h641v-31q-178 -12 -178 -192v-258q-79 -124 -231 -202.5t-322 -78.5z" />
    <glyph glyph-name="K.ss08" horiz-adv-x="1619" 
d="M756 856l579 -645q37 -42 58.5 -64.5t56 -52.5t69 -45t70.5 -18v-31h-473q-11 59 -96 160l-485 528v-508q0 -74 39.5 -106.5t144.5 -44.5v-29h-647v29q105 12 144.5 44.5t39.5 106.5v1090q0 74 -39.5 106.5t-144.5 44.5v29h647v-29q-105 -12 -144.5 -44.5t-39.5 -106.5
v-541l616 561q71 64 48 96.5t-136 32.5v31h440v-31q-134 -9 -289 -151z" />
    <glyph glyph-name="R.ss08" horiz-adv-x="1521" 
d="M874 639l394 -438q69 -73 129.5 -118.5t97.5 -51.5v-31h-461q-9 65 -80 141l-419 484v-435q0 -86 39.5 -118t144.5 -43v-29h-647v29q106 11 145 43.5t39 117.5v1072q0 83 -39.5 115.5t-144.5 43.5v29h635q275 0 426 -108.5t151 -303.5q0 -162 -106.5 -265t-303.5 -134z
M639 1393h-104v-709h104q19 0 55 4l54 8q117 30 178 122.5t61 219.5q0 159 -88.5 257t-259.5 98z" />
    <glyph glyph-name="S.ss10" horiz-adv-x="1193" 
d="M604 -31q-63 0 -121.5 12t-98 28t-76.5 32.5t-64.5 26t-54.5 8t-53.5 -21.5t-55.5 -62l-29 6l121 477l29 -6q-8 -86 12.5 -159.5t61 -124t95.5 -86.5t114.5 -53t119.5 -17q120 0 196.5 70t76.5 180q0 70 -26.5 124.5t-70.5 90.5t-102 65.5t-121.5 54t-127 50.5
t-121.5 61.5t-102 80.5t-70.5 114t-26.5 155q0 183 131.5 294.5t365.5 111.5q64 0 125.5 -14.5t102 -33.5t79.5 -34t66.5 -19t54.5 14.5t51 63.5l29 -8l-106 -424l-29 6q-4 97 -39 174t-88.5 123t-116.5 70t-129 24q-113 0 -183.5 -63.5t-70.5 -167.5q0 -63 27 -113
t72.5 -84t104.5 -62.5t124.5 -54t130.5 -53t124 -65.5t104.5 -85t72.5 -117t27 -157q0 -196 -146.5 -314t-388.5 -118z" />
    <glyph glyph-name="M.titl" horiz-adv-x="2084" 
d="M1774 1229l92 -1055q6 -72 48.5 -104.5t137.5 -40.5v-29h-635v29q99 9 138.5 43t33.5 106l-84 991l-569 -1169h-25l-557 1167l-84 -991q-6 -71 33 -104.5t137 -42.5v-29h-407v29q88 8 129 41.5t47 105.5l96 1055q10 100 -30 139.5t-146 50.5v29h412l506 -1096l532 1096
h373v-29q-108 -13 -147.5 -51.5t-30.5 -140.5z" />
    <glyph glyph-name="a.ss01" horiz-adv-x="1257" 
d="M1204 166l25 -10q-23 -59 -54.5 -99t-65 -57.5t-59 -24t-51.5 -6.5q-48 0 -93.5 21.5t-80 73.5t-34.5 124v15q-27 -102 -106.5 -168t-186.5 -66q-103 0 -187.5 41t-138.5 112t-83.5 165t-29.5 202q0 260 144 420t372 160q78 0 151.5 -27.5t127.5 -76.5l172 104h29v-885
q0 -43 16.5 -67.5t44.5 -24.5q48 0 88 74zM614 115q63 0 111.5 41.5t65.5 107.5v459q0 119 -55.5 204t-149.5 85q-111 0 -179.5 -122.5t-68.5 -309.5q0 -202 72 -333.5t204 -131.5z" />
    <glyph glyph-name="a.ss02" horiz-adv-x="1148" 
d="M1096 166l24 -10q-74 -187 -229 -187q-35 0 -70 13t-67 38.5t-52 69t-20 98.5v13q-40 -114 -122 -173t-187 -59q-122 0 -203.5 74.5t-81.5 189.5q0 162 109.5 251t345.5 112l139 14v148q0 121 -56.5 180t-156.5 59q-108 0 -195.5 -71t-132.5 -199l-28 2l53 340h29
q0 -44 12.5 -58.5t42 -7t64.5 22t94 29t116 14.5q61 0 119.5 -12t114 -38.5t97 -64.5t66.5 -96t25 -127v-547q0 -42 17 -67t45 -25q48 0 88 74zM516 127q53 0 97 37.5t69 101.5v287l-119 -16q-207 -30 -207 -230q0 -78 45 -129t115 -51z" />
    <glyph glyph-name="a.ss03" horiz-adv-x="1155" 
d="M1102 166l26 -10q-77 -187 -229 -187q-35 0 -70.5 13t-67.5 38t-52.5 69t-20.5 99v13q-40 -114 -122 -173t-185 -59q-122 0 -203.5 74.5t-81.5 189.5q0 162 108.5 251t344.5 112l139 14v133q0 129 -65.5 196t-171.5 67q-120 0 -191.5 -79.5t-77.5 -213.5l-28 -4l-56 348
l29 6q18 -44 38.5 -58t52 -5.5t66.5 24t98 30.5t130 15q78 0 153.5 -20.5t141.5 -59.5t106.5 -106t40.5 -152v-547q0 -43 16.5 -67.5t45.5 -24.5q46 0 86 74zM522 127q53 0 96 36t70 99v291l-117 -16q-209 -30 -209 -230q0 -78 45 -129t115 -51z" />
    <glyph glyph-name="c.ss04" horiz-adv-x="1069" 
d="M586 -29q-220 0 -368 152.5t-148 382.5q0 116 41 221t109.5 179.5t161 118.5t193.5 44q61 0 117.5 -12t91.5 -27t66.5 -28t50.5 -16.5t36 10t30 48.5l28 -6l-94 -362l-29 4q5 151 -64 241.5t-192 90.5q-121 0 -199.5 -114t-78.5 -292q0 -126 45.5 -232.5t132 -171.5
t195.5 -65q96 0 165.5 54t100.5 153l29 -6q-25 -166 -136 -266.5t-284 -100.5z" />
    <glyph glyph-name="d.ss05" horiz-adv-x="1255" 
d="M1057 1481v-1248q0 -73 30 -98.5t93 -19.5v-29l-361 -117h-28v234q-27 -102 -106.5 -168t-186.5 -66q-103 0 -187.5 41t-138.5 112t-83.5 165t-29.5 202q0 260 144 420t372 160q59 0 116.5 -20t99.5 -54v222q0 73 -30 98.5t-95 19.5v29l362 117h29zM614 115q62 0 111 41
t66 106v461q0 119 -55.5 204t-149.5 85q-111 0 -179.5 -122.5t-68.5 -309.5q0 -202 72 -333.5t204 -131.5z" />
    <glyph glyph-name="u.ss05" horiz-adv-x="1234" 
d="M1083 233q0 -73 30 -98.5t93 -19.5v-29l-360 -117h-29v230q-85 -109 -168.5 -168.5t-179.5 -59.5q-149 0 -226 93t-77 255v484q0 74 -30.5 100t-94.5 21v28l360 117h29v-729q0 -92 46.5 -142.5t125.5 -50.5q60 0 109.5 26t105.5 83v547q0 74 -29.5 100t-93.5 21v28
l361 117h28v-836z" />
    <glyph glyph-name="g.ss06" horiz-adv-x="1206" 
d="M868 963l168 102h29v-1085q0 -203 -119.5 -308.5t-337.5 -105.5q-237 0 -369 85.5t-135 198.5q-1 67 46.5 102t109.5 23q51 -10 77 -52t7 -107q-13 -44 3.5 -88t70.5 -76.5t135 -32.5q117 0 181.5 86t64.5 252v287q-28 -88 -104 -141.5t-177 -53.5q-108 0 -194 38.5
t-141 105t-84 152.5t-29 185q0 242 144 390.5t370 148.5q82 0 157 -27.5t127 -78.5zM799 295v459q0 108 -54.5 183t-150.5 75q-109 0 -177.5 -113t-68.5 -285q0 -117 29.5 -215t94 -161.5t153.5 -63.5q58 0 106 33.5t68 87.5z" />
    <glyph glyph-name="g.ss07" horiz-adv-x="1208" 
d="M858 969l182 100h25v-1161q0 -137 -89 -224t-233 -87h-548v57h421q83 0 134 62t51 163v326q-27 -102 -106.5 -169t-188.5 -67q-137 0 -237.5 71t-149.5 187.5t-49 261.5q0 260 144 420t370 160q77 0 149.5 -26.5t124.5 -73.5zM625 115q61 0 109 41.5t67 107.5v461l-2 -2
q0 119 -55 204t-150 85q-109 0 -177.5 -122.5t-68.5 -309.5q0 -131 29.5 -234.5t93.5 -167t154 -63.5z" />
    <glyph glyph-name="k.ss08" horiz-adv-x="1255" 
d="M641 682l416 -543q1 -1 14.5 -18t16 -19.5t15 -16.5t19 -17t21.5 -12.5t28 -13t32 -7.5t40 -6v-29h-430q0 50 -65 139l-310 420v-399q0 -62 27 -90.5t98 -40.5v-29h-514v29q70 12 96.5 40.5t26.5 90.5v1057q0 73 -30 98.5t-93 19.5v29l361 117h28v-883l402 305
q66 49 50 78t-108 29v28h402v-28q-69 0 -123 -27t-176 -119z" />
    <glyph glyph-name="r.ss09" horiz-adv-x="772" 
d="M481 1038h275v-57h-148q-83 0 -133.5 -62.5t-50.5 -162.5v-596q0 -62 27.5 -90.5t97.5 -40.5v-29h-514v29q70 12 97.5 40.5t27.5 90.5v565q0 138 88.5 225.5t232.5 87.5z" />
    <glyph glyph-name="s.ss10" horiz-adv-x="980" 
d="M518 -31q-73 0 -139.5 18t-103.5 36.5t-70.5 30t-58 -1.5t-48.5 -58l-28 6l90 358l28 -4q4 -80 32 -144t72.5 -103t97.5 -59.5t110 -20.5q88 0 141 43.5t53 115.5q0 53 -25.5 93t-67.5 63t-95 45.5t-109 39.5t-109 45.5t-95 63t-67.5 93t-25.5 133.5q0 136 102.5 221.5
t254.5 85.5q56 0 110.5 -13t90 -29.5t69.5 -30t57 -17.5t44 11t38 54l29 -6l-84 -325l-29 6q-19 145 -105.5 219t-189.5 74q-82 0 -133 -42t-51 -110q0 -53 33 -90.5t85 -61.5t115.5 -45.5t127 -50.5t115.5 -68.5t85 -107.5t33 -160q0 -127 -101.5 -217t-277.5 -90z" />
    <glyph glyph-name="t.ss11" horiz-adv-x="698" 
d="M426 981v-743q0 -99 39 -140t123 -41h69v-57h-194q-303 0 -303 266v715h-140v35q113 50 211.5 131t165.5 182h29v-291h231v-57h-231z" />
    <glyph glyph-name="at.ss12" horiz-adv-x="1748" 
d="M893 524l104 13v88q0 105 -39 168t-108 63q-77 0 -111 -54t-20 -114q14 -53 -6.5 -86t-59.5 -43q-58 -13 -94 14.5t-35 92.5q2 92 101.5 163.5t263.5 71.5q161 0 250.5 -80.5t89.5 -218.5v-348q0 -66 31 -97.5t79 -31.5q105 0 174.5 110t69.5 267q0 197 -90 351
t-250 238.5t-362 84.5q-203 0 -366 -94t-255 -261.5t-92 -376.5q0 -195 94 -357t263 -258t378 -101q184 -3 328 67l20 -51q-153 -73 -348 -70q-226 5 -407.5 107.5t-283 276.5t-101.5 386q0 169 58.5 315t160.5 249t244.5 162t306.5 59t304.5 -53t241 -147.5t157 -230.5
t56.5 -296q0 -204 -109.5 -343t-281.5 -139q-109 0 -175 45.5t-75 137.5q-32 -90 -98.5 -136.5t-148.5 -46.5q-97 0 -162.5 60.5t-65.5 152.5q0 132 92 201t277 90zM879 154q75 0 118 98v235l-86 -12q-73 -13 -117 -58t-44 -120q0 -62 37 -102.5t92 -40.5z" />
    </font>
</defs>
</svg>
