<?xml version="1.0" standalone="no"?>
<!DOCTYPE svg PUBLIC "-//W3C//DTD SVG 1.1//EN" "http://www.w3.org/Graphics/SVG/1.1/DTD/svg11.dtd" >
<svg xmlns="http://www.w3.org/2000/svg" xmlns:xlink="http://www.w3.org/1999/xlink" version="1.1">
<metadata></metadata>
<defs>
<font id="tobias_trialregular" horiz-adv-x="716" >
<font-face units-per-em="2048" ascent="1614" descent="-434" />
<missing-glyph horiz-adv-x="446" />
<glyph horiz-adv-x="0" />
<glyph horiz-adv-x="682" />
<glyph unicode=" "  horiz-adv-x="446" />
<glyph unicode="&#x09;" horiz-adv-x="446" />
<glyph unicode="&#xa0;" horiz-adv-x="446" />
<glyph unicode="," horiz-adv-x="438" d="M76 100q0 59 38.5 98.5t98.5 39.5q69 0 109 -49.5t40 -127.5q0 -135 -73 -222.5t-203 -127.5l-6 23q75 40 130 104t58 148q-27 -19 -59 -19q-58 0 -95.5 38t-37.5 95z" />
<glyph unicode="-" d="M102 518v55h512v-55h-512z" />
<glyph unicode="." horiz-adv-x="421" d="M76 104q0 55 39.5 94.5t95.5 39.5q57 0 96 -39t39 -95q0 -57 -39.5 -96t-95.5 -39t-95.5 39t-39.5 96z" />
<glyph unicode="0" horiz-adv-x="1306" d="M117 725q0 158 35.5 295t102 240.5t169.5 163t229 59.5q168 0 291.5 -103t184.5 -273t61 -382q0 -211 -61 -381t-184.5 -273.5t-291.5 -103.5q-126 0 -229 60t-169.5 163.5t-102 240.5t-35.5 294zM317 838q0 -91 11 -193.5t39 -214.5t68.5 -200.5t105.5 -146.5t145 -58 q137 0 221 163t84 424q0 92 -11.5 195t-40 214.5t-69 200t-105 146t-142.5 57.5q-137 0 -221.5 -163t-84.5 -424z" />
<glyph unicode="1" horiz-adv-x="720" d="M49 0v29q132 6 178.5 38.5t46.5 125.5v1042h-223v29q134 36 222 80.5t157 113.5h29v-1265q0 -93 41.5 -125.5t142.5 -38.5v-29h-594z" />
<glyph unicode="2" horiz-adv-x="1103" d="M49 1110q-3 96 55.5 181.5t163.5 137.5t230 52q213 0 341 -109t128 -289q0 -92 -30.5 -176.5t-81 -148t-117 -124t-137 -106.5t-142.5 -93.5t-131.5 -86.5t-106 -83.5t-65.5 -86.5h559q62 0 100 7t75 30.5t62 71t45 125.5l29 -4l-59 -408h-897l2 49q3 72 29 139.5 t67.5 122t94 107.5t110 102.5t114.5 99.5t108 105t90.5 113.5t63 130.5t23.5 151q0 128 -82.5 215.5t-206.5 87.5q-88 0 -152.5 -45t-91 -112t-16.5 -140q10 -52 -9.5 -79.5t-61.5 -32.5q-45 -6 -73 21t-30 75z" />
<glyph unicode="3" horiz-adv-x="1099" d="M56 354q15 43 59 54q56 13 88.5 -16.5t19.5 -106.5q0 -49 17.5 -94t52.5 -82.5t94 -59.5t135 -22q134 0 216.5 92.5t82.5 249.5q0 170 -124 263t-351 87l2 43q183 22 294.5 121t111.5 247q0 133 -69 213t-179 80q-128 0 -197 -91t-55 -206q19 -98 -74 -112 q-44 -6 -71.5 21t-30.5 75q-6 148 124.5 259.5t317.5 111.5q190 0 304.5 -90t117.5 -240q3 -134 -98 -239t-266 -142q209 -9 326.5 -107.5t117.5 -261.5q0 -197 -145 -314.5t-375 -117.5q-171 0 -292 79.5t-153 217.5q-16 45 -1 88z" />
<glyph unicode="4" horiz-adv-x="1216" d="M41 397v29l668 1055h129v-996h24q100 0 168 77t100 226h29l-53 -391h-268v-168q1 -112 40 -153t144 -47v-29h-608v29q127 8 183 51t56 149v168h-612zM143 485h510v801z" />
<glyph unicode="5" horiz-adv-x="1122" d="M71 300.5q11 33.5 44 47.5q37 16 74.5 -9t50.5 -81q25 -105 102 -168t180 -63q142 -1 223.5 102t81.5 281q0 167 -97.5 279t-237.5 112q-167 0 -299 -125l-37 18l104 756h547q51 0 77 23.5t34 76.5h28l37 -266h-688l-70 -506q155 144 338 144q200 0 329.5 -131.5 t129.5 -331.5q0 -217 -140.5 -353.5t-363.5 -136.5q-157 0 -277 69.5t-163 186.5q-18 42 -7 75.5z" />
<glyph unicode="6" horiz-adv-x="1200" d="M117 717q4 197 52 347t129 240t184 134.5t225 44.5q95 0 182 -33.5t137 -91.5q36 -29 48.5 -65t1.5 -65.5t-40 -43.5q-46 -22 -84 0.5t-53 83.5q-17 68 -80.5 112.5t-142.5 44.5q-52 0 -101 -24t-94.5 -78t-80.5 -132t-57.5 -195t-25.5 -259v-43q59 104 156.5 164 t220.5 60q188 0 307 -131t119 -334q0 -210 -126 -348t-335 -138q-253 0 -401.5 205.5t-140.5 544.5zM317 641q7 -164 50 -301.5t124 -226t185 -88.5q111 0 183.5 111t72.5 270q0 176 -94.5 285.5t-241.5 109.5q-85 0 -157.5 -41t-121.5 -119z" />
<glyph unicode="7" horiz-adv-x="1044" d="M55 1044l60 406h907v-29q-78 -110 -142 -214t-133.5 -249t-114 -287.5t-69 -318.5t-14.5 -352h-211q-7 115 5.5 229t38.5 212t70 199t89 182t105.5 169.5t110.5 152.5t113 140h-544q-98 0 -153 -55t-89 -185h-29z" />
<glyph unicode="8" horiz-adv-x="1210" d="M88 326q0 136 92 241.5t260 165.5q-68 34 -117 67.5t-94 79t-68.5 104t-23.5 128.5q0 153 129 262t334 109q197 0 326 -97t129 -229q0 -122 -91 -211.5t-249 -134.5q56 -25 87.5 -39.5t81.5 -41.5t78.5 -49t63.5 -55.5t53.5 -68t31.5 -80t13 -96.5q0 -182 -143.5 -298 t-380.5 -116q-224 0 -368 102t-144 257zM274 338q0 -136 92.5 -224.5t233.5 -88.5q137 0 230.5 78.5t93.5 203.5q0 32 -7 62t-18 54t-31 48.5t-38 42.5t-48 39t-52 34.5t-58.5 32.5t-60 30.5t-64 30.5t-62.5 30q-96 -48 -153.5 -148.5t-57.5 -224.5zM336 1180 q0 -44 11.5 -82.5t36 -70.5t51.5 -57.5t69 -51t76.5 -43.5t85.5 -41q95 48 151.5 133t56.5 186q0 124 -79 198t-195 74q-113 0 -188.5 -64.5t-75.5 -180.5z" />
<glyph unicode="9" horiz-adv-x="1200" d="M80 997q0 211 125.5 348.5t335.5 137.5q254 0 402 -205.5t140 -544.5q-4 -197 -52 -347t-129 -240t-183.5 -134.5t-224.5 -44.5q-95 0 -182.5 33.5t-137.5 91.5q-36 29 -48.5 65t-1.5 65.5t40 43.5q46 22 84 -0.5t53 -83.5q17 -68 80.5 -112.5t142.5 -44.5q52 0 101 24 t94.5 78t80.5 132t58 195t27 259v47q-58 -107 -156 -167.5t-223 -60.5q-188 0 -307 131t-119 334zM268 1044q0 -176 94.5 -285.5t241.5 -109.5q86 0 159.5 41t119.5 121q-7 164 -50 301t-124 225t-185 88q-111 0 -183.5 -111t-72.5 -270z" />
<glyph unicode="A" horiz-adv-x="1503" d="M12 0v29q72 0 120.5 49t98.5 168l500 1235h29l504 -1235q50 -119 100.5 -168t126.5 -49v-29h-588v29q137 1 174 45q17 20 17 53q0 40 -25 100l-102 254h-580l-102 -254q-24 -60 -24 -100q0 -33 16 -53q36 -44 169 -45v-29h-434zM410 539h534l-268 667z" />
<glyph unicode="B" horiz-adv-x="1357" d="M78 0v29q105 10 144.5 43t39.5 108v1090q0 75 -39.5 108t-144.5 43v29h592q232 0 364.5 -94.5t132.5 -263.5q0 -121 -91.5 -212t-241.5 -116q194 -20 312 -122.5t118 -246.5q0 -184 -133.5 -289.5t-362.5 -105.5h-690zM449 190q0 -64 39.5 -98.5t136.5 -34.5h94 q156 0 251 92.5t95 245.5q0 146 -107 238t-278 92h-231v-535zM449 782h213q137 0 222 87t85 223q0 137 -93.5 219t-246.5 82h-180v-611z" />
<glyph unicode="C" horiz-adv-x="1409" d="M117 690q0 228 84.5 408.5t237.5 281.5t349 101q67 0 133.5 -15.5t105 -30.5t72.5 -23t52.5 7.5t28.5 61.5h28l60 -416h-29q-55 173 -171.5 265.5t-276.5 92.5q-208 0 -341 -180t-133 -467q0 -194 70 -352t196 -248t283 -90q152 0 265 97.5t157 265.5l31 -9 q-29 -217 -179.5 -345t-357.5 -128q-146 0 -271 54.5t-211 150.5t-134.5 229.5t-48.5 288.5z" />
<glyph unicode="D" horiz-adv-x="1527" d="M78 0v29q105 10 144.5 43t39.5 108v1090q0 75 -39.5 108t-144.5 43v29h588q339 0 542 -185t203 -499q0 -351 -195 -558.5t-520 -207.5h-618zM449 195q0 -72 32.5 -105t102.5 -33h112q148 0 265 84t183 235t66 343q0 313 -157.5 493.5t-421.5 180.5h-182v-1198z" />
<glyph unicode="E" horiz-adv-x="1265" d="M78 0v29q105 10 144.5 43t39.5 108v1090q0 75 -39.5 108t-144.5 43v29h911q90 0 103 31h28l66 -408h-29q-40 171 -119 245.5t-221 74.5h-368v-621h266q90 0 126 48q29 39 29 119q0 20 -2 42h29l66 -475h-29q-24 111 -73 160t-128 49h-284v-522q0 -74 26 -105t90 -31h289 q132 0 211 77.5t117 244.5h28l-55 -379h-1077z" />
<glyph unicode="F" horiz-adv-x="1230" d="M78 0v29q105 10 144.5 43t39.5 108v1090q0 75 -39.5 108t-144.5 43v29h909q92 0 105 31h28l64 -408h-29q-40 171 -119 245.5t-221 74.5h-366v-621h266q90 0 126 48q29 39 29 119q0 20 -2 42h29l66 -475h-29q-24 111 -73 160t-128 49h-284v-535q0 -53 19 -81.5t71.5 -45.5 t154.5 -24v-29h-616z" />
<glyph unicode="G" horiz-adv-x="1492" d="M117 690q0 173 51 320.5t140.5 250.5t216 161.5t272.5 58.5q66 0 131 -15.5t103 -31t71.5 -23.5t52.5 7.5t29 62.5h28l58 -416h-27q-130 358 -461 358q-203 0 -336 -183q-131 -181 -131 -466q0 -202 67 -373q67 -168 185.5 -267t263.5 -99q79 0 153.5 25.5t125.5 80.5 v377q0 173 -188 182v31h551v-31q-179 -9 -179 -182v-293q-75 -111 -214.5 -183.5t-311.5 -72.5q-185 0 -334 93t-233 258t-84 370z" />
<glyph unicode="H" horiz-adv-x="1607" d="M78 0v29q105 10 144.5 43t39.5 108v1090q0 75 -39.5 108t-144.5 43v29h555v-29q-105 -10 -144.5 -43t-39.5 -108v-496h712v496q0 75 -40 108t-146 43v29h557v-29q-106 -10 -146 -43t-40 -108v-1090q0 -75 40 -108t146 -43v-29h-557v29q106 10 146 43t40 108v537h-712 v-537q0 -75 39.5 -108t144.5 -43v-29h-555z" />
<glyph unicode="I" horiz-adv-x="710" d="M78 0v29q105 10 144.5 43t39.5 108v1090q0 75 -39.5 108t-144.5 43v29h555v-29q-105 -10 -144.5 -43t-39.5 -108v-1090q0 -75 39.5 -108t144.5 -43v-29h-555z" />
<glyph unicode="J" horiz-adv-x="1052" d="M37 272v7q0 43 21 71q24 29 65 29q43 0 69.5 -27.5t26.5 -72.5q0 -18 -5 -47t-5 -44q0 -77 60 -118t155 -41q101 0 159 76.5t58 236.5v928q0 75 -40 108t-146 43v29h557v-29q-106 -11 -146.5 -43.5t-40.5 -107.5v-867q0 -213 -108 -323.5t-299 -110.5q-75 0 -141.5 18.5 t-119.5 55t-85.5 95.5t-34.5 134z" />
<glyph unicode="K" horiz-adv-x="1474" d="M78 0v29q105 10 144.5 43t39.5 108v1090q0 75 -39.5 108t-144.5 43v29h555v-29q-105 -10 -144.5 -43t-39.5 -108v-592l587 614q42 43 42 71q0 11 -5 19q-20 32 -135 37v31h432v-31q-149 -14 -264 -137l-340 -356l469 -752q36 -62 99 -101t130 -42v-31h-379q-3 60 -59 147 l-393 637l-184 -192v-412q0 -75 39.5 -108t144.5 -43v-29h-555z" />
<glyph unicode="L" horiz-adv-x="1236" d="M78 0v29q105 10 144.5 43t39.5 108v1090q0 75 -39.5 108t-144.5 43v29h555v-29q-105 -10 -144.5 -43t-39.5 -108v-1077q0 -74 26 -105t90 -31h275q132 0 210.5 77.5t116.5 244.5h29l-55 -379h-1063z" />
<glyph unicode="M" horiz-adv-x="1894" d="M78 0v29q102 7 143 41.5t41 109.5v1092q0 77 -39.5 110t-142.5 37v31h342l524 -1188l541 1188h332v-29q-106 -11 -146.5 -43.5t-40.5 -107.5v-1090q0 -75 42 -109.5t145 -41.5v-29h-557v29q102 7 144 41.5t42 109.5v1047l-557 -1227h-29l-543 1223v-1043 q0 -75 41.5 -109.5t143.5 -41.5v-29h-426z" />
<glyph unicode="N" horiz-adv-x="1509" d="M78 0v29q105 10 144.5 43t39.5 108v1092q0 77 -39.5 110t-142.5 39v29h319l789 -1128v948q0 76 -38.5 108.5t-143.5 42.5v29h426v-29q-106 -11 -146.5 -43.5t-40.5 -107.5v-1270h-45l-881 1239v-1059q0 -75 40 -108t145 -43v-29h-426z" />
<glyph unicode="O" horiz-adv-x="1605" d="M117 694q0 172 51.5 319t143 249.5t220 160.5t277.5 58q153 0 281.5 -55.5t215 -152.5t135 -230t48.5 -287q0 -228 -88.5 -408t-246 -279.5t-355.5 -99.5q-205 0 -361 95.5t-238.5 259.5t-82.5 370zM317 752q3 -206 69 -372t185 -261q115 -92 258 -92h9q136 3 239.5 88 t158.5 237q52 144 52 326v20q-4 208 -69.5 373.5t-182.5 259.5q-115 92 -260 92h-6q-139 -2 -243.5 -87.5t-158.5 -237.5q-51 -141 -51 -320v-26z" />
<glyph unicode="P" horiz-adv-x="1263" d="M78 0v29q105 6 144.5 40.5t39.5 129.5v1054q0 94 -40 128t-144 40v29h573q250 0 396.5 -110t146.5 -296q0 -188 -146.5 -297.5t-396.5 -109.5h-202v-438q0 -98 40.5 -131t143.5 -39v-29h-555zM449 694h169q173 0 274 98.5t101 251.5q0 155 -100 252t-275 97h-169v-699z " />
<glyph unicode="Q" horiz-adv-x="1605" d="M117 694q0 172 51.5 319t143 249.5t220 160.5t277.5 58q153 0 281.5 -55.5t215 -152.5t135 -230t48.5 -287q0 -226 -87.5 -405.5t-243 -279.5t-351.5 -102q24 -77 66 -133.5t93 -87t112 -48.5q57 -16 114 -16h6q60 1 121 7l6 -29q-82 -30 -171 -35q-16 -1 -32 -1 q-72 0 -141 18q-85 22 -158 66t-128 117t-79 165q-231 58 -365 248.5t-134 453.5zM317 752q3 -206 69 -372t185 -261q115 -92 258 -92h9q136 3 239.5 88t158.5 237q52 143 52 326v20q-4 208 -69.5 373.5t-182.5 259.5q-115 92 -260 92h-6q-139 -2 -243.5 -87.5 t-158.5 -237.5q-51 -141 -51 -320v-26z" />
<glyph unicode="R" horiz-adv-x="1394" d="M78 0v29q105 6 144.5 40.5t39.5 129.5v1054q0 94 -40 128t-144 40v29h573q250 0 396.5 -110t146.5 -296q0 -150 -96 -253t-267 -138l365 -508q33 -46 87.5 -78.5t100.5 -35.5v-31h-335q-9 44 -54 109l-372 528h-174v-438q0 -98 40.5 -131t143.5 -39v-29h-555zM449 694 h169q173 0 274 98.5t101 251.5q0 155 -100 252t-275 97h-169v-699z" />
<glyph unicode="S" horiz-adv-x="1167" d="M98 436h29q73 -201 194.5 -304t282.5 -103q129 0 211 77t82 197q0 73 -26.5 130.5t-71 95t-102 68t-121.5 55t-128 50t-121.5 60t-102 77.5t-71 109t-26.5 150q0 173 116 278t314 105q72 0 137.5 -16.5t99.5 -33t62.5 -24.5t43 8t24.5 66h28l66 -418h-29 q-53 172 -170 266t-262 94q-125 0 -197.5 -68t-72.5 -184q0 -66 27 -118t72.5 -87t104.5 -64t124 -54.5t130 -52t124 -63t104.5 -81.5t72.5 -113t27 -153q0 -185 -130.5 -300.5t-338.5 -115.5q-87 0 -161 20.5t-109.5 41t-64 30t-42 -9.5t-26.5 -82h-29z" />
<glyph unicode="T" horiz-adv-x="1277" d="M20 1073l66 408h29q11 -31 102 -31h846q89 0 102 31h29l63 -408h-28q-38 170 -117.5 245t-222.5 75h-158v-1200q0 -86 39 -121.5t145 -42.5v-29h-553v29q106 8 145.5 43t39.5 121v1200h-158q-142 0 -221 -74.5t-119 -245.5h-29z" />
<glyph unicode="U" horiz-adv-x="1495" d="M41 1421v29h557v-29q-106 -10 -146 -43t-40 -108v-760q0 -214 112 -343.5t297 -129.5q181 0 285 128.5t104 344.5v760q0 75 -40 108t-146 43v29h430v-29q-106 -10 -146 -43t-40 -108v-760q0 -247 -135.5 -394t-362.5 -147q-255 0 -399 143t-144 398v760q0 75 -40 108 t-146 43z" />
<glyph unicode="V" horiz-adv-x="1503" d="M12 1421v29h588v-29q-137 -1 -174 -45q-17 -20 -17 -53q0 -40 25 -100l395 -979l390 979q25 61 25 101q0 32 -16 52q-36 44 -169 45v29h432v-29q-72 0 -121 -49t-96 -168l-500 -1235h-29l-505 1237q-47 117 -99 166t-129 49z" />
<glyph unicode="W" horiz-adv-x="2199" d="M12 1421v29h541v-29q-122 -1 -153 -47q-13 -20 -13 -50q0 -41 23 -101l344 -959l319 883l-22 59q-40 111 -86.5 162.5t-120.5 52.5v29h540v-29q-122 -1 -152 -47q-13 -20 -13 -51q0 -40 22 -100l344 -957l350 957q24 60 24 101q-1 29 -13 49q-30 47 -154 48v29h395v-29 q-65 -2 -110.5 -51t-87.5 -166l-453 -1235h-27l-405 1092l-399 -1092h-27l-459 1237q-42 111 -88.5 162.5t-118.5 52.5z" />
<glyph unicode="X" horiz-adv-x="1429" d="M8 0v29q51 5 88 17t66 35t46.5 43.5t45.5 59.5l373 527l-357 549q-28 45 -43.5 66t-43 44.5t-62 34.5t-86.5 16v29h594v-29q-107 -11 -145 -48q-18 -18 -19 -43q0 -26 20 -60l267 -410l288 410q26 37 26 65q0 21 -14 37q-34 38 -141 49v29h445v-29q-68 -7 -114 -28.5 t-70.5 -47.5t-61.5 -79l-324 -459l400 -617q27 -44 42.5 -64.5t43 -44.5t62.5 -35.5t87 -16.5v-29h-592v29q107 11 145 49q18 19 18 43q0 26 -21 59l-309 477l-338 -477q-25 -35 -25 -63q1 -21 15 -38q34 -39 139 -50v-29h-445z" />
<glyph unicode="Y" horiz-adv-x="1386" d="M8 1421v29h588v-29q-160 -16 -160 -92q0 -26 19 -59l321 -574l293 574q19 36 19 63q0 24 -14 41q-31 37 -136 47v29h440v-29q-102 -10 -154.5 -45t-90.5 -110l-328 -643v-428q0 -88 38 -122.5t144 -41.5v-31h-551v31q106 7 144 41.5t38 122.5v403l-374 662 q-23 42 -40.5 66t-44.5 46t-63 33t-88 16z" />
<glyph unicode="Z" horiz-adv-x="1189" d="M47 0v31l844 1362h-422q-142 0 -221 -74.5t-119 -245.5h-29l64 408h29q13 -31 104 -31h829v-31l-845 -1362h483q142 0 221 74.5t119 245.5h29l-66 -408h-29q-13 31 -102 31h-889z" />
<glyph unicode="a" horiz-adv-x="1073" d="M106 236q0 157 102 243.5t320 108.5l172 16v94q0 139 -62.5 220t-170.5 81q-114 0 -165 -66q-37 -48 -37 -101q0 -20 5 -41q6 -25 6 -46q0 -64 -59 -81q-14 -4 -28 -4q-27 0 -49 16q-34 24 -34 84q1 49 25.5 99.5t71.5 95.5t127 73.5t180 28.5q167 0 263.5 -99t96.5 -270 v-543q0 -38 17 -60t45 -22q43 0 82 68l24 -10q-19 -45 -43.5 -77t-49 -47t-45.5 -21.5t-40 -6.5q-64 0 -112 46t-48 130v78q-44 -122 -126.5 -188t-186.5 -66q-119 0 -200 75t-81 192zM283 285q0 -86 55 -142.5t135 -56.5q70 0 128 50t99 140v273l-157 -21 q-260 -34 -260 -243z" />
<glyph unicode="b" horiz-adv-x="1142" d="M12 1356v28l283 97h29v-680q27 112 112.5 184t200.5 72q197 0 313.5 -145.5t116.5 -372.5q0 -256 -133.5 -413t-347.5 -157q-89 0 -168.5 34t-130.5 93l-103 -127h-28v1274q0 79 -32 102q-21 15 -63 15q-22 0 -49 -4zM324 334q0 -122 72.5 -214.5t199.5 -92.5 q130 0 209.5 119.5t79.5 308.5q0 221 -87.5 361t-236.5 140q-86 0 -151 -62t-86 -155v-405z" />
<glyph unicode="c" horiz-adv-x="1013" d="M76 496q0 118 36 222t98 178.5t148 117.5t183 43q65 0 122.5 -13.5t86 -27t51.5 -19.5t32.5 6.5t14.5 53.5h24l48 -338h-29q-49 142 -135 211t-197 69q-133 0 -220 -118.5t-87 -298.5q0 -130 46.5 -239.5t137.5 -177t209 -67.5q97 0 172 58t109 159l24 -6 q-25 -152 -130 -245t-257 -93q-208 0 -347.5 150t-139.5 375z" />
<glyph unicode="d" horiz-adv-x="1191" d="M76 487q0 256 133.5 413t349.5 157q149 0 260 -90v276q0 79 -32 102q-21 15 -62 15q-22 0 -49 -4v28l285 97h28v-1336q0 -38 17 -60t45 -22q43 0 82 68l24 -10q-37 -85 -85.5 -118.5t-92.5 -33.5q-64 0 -112 46t-48 130v80q-27 -112 -112.5 -184t-200.5 -72 q-197 0 -313.5 145.5t-116.5 372.5zM258 573q0 -222 87.5 -362.5t236.5 -140.5q86 0 151 62t86 157v403q0 78 -29.5 146.5t-92.5 114.5t-148 46q-131 0 -211 -119t-80 -307z" />
<glyph unicode="e" horiz-adv-x="1019" d="M76 492q0 250 134.5 407.5t348.5 157.5q185 -1 283 -127q84 -109 84 -261q0 -25 -2 -51h-670v-43q0 -211 101.5 -344t283.5 -133q89 0 161 56.5t101 148.5l27 -6q-25 -146 -128.5 -236t-244.5 -90q-149 0 -259.5 70.5t-165 187.5t-54.5 263zM258 666h496q1 14 1 27 q0 73 -23 137q-27 76 -82 122.5t-126 46.5q-116 0 -184 -88t-82 -245z" />
<glyph unicode="f" horiz-adv-x="866" d="M49 969v57h174v74q0 189 102 291t263 102q63 0 121.5 -13.5t103.5 -47.5t45 -84q0 -48 -40 -70q-21 -12 -42 -12q-19 0 -37 10q-25 9 -41.5 29t-26 41.5t-21 42.5t-34.5 34t-59 13q-81 0 -123.5 -77.5t-42.5 -203.5v-129h285v-57h-285v-815q0 -64 45 -89t156 -36v-29 h-516v29q35 6 58 13t45.5 20.5t33 36t10.5 55.5v815h-174z" />
<glyph unicode="g" horiz-adv-x="1079" d="M102 -197q0 143 154 220q-64 20 -100.5 68.5t-36.5 115.5q0 66 39 123t114 88q-75 46 -118 118.5t-43 165.5q0 155 113.5 255t297.5 100h23q49 -1 108.5 -4.5t96.5 -5.5t78 -3h17q28 0 47 2q23 4 43.5 13t29 26t8.5 43h24l21 -163q-53 0 -270 41q86 -45 135 -124.5 t49 -179.5q0 -154 -113.5 -253t-296.5 -99q-125 0 -221 51q-82 -42 -82 -118q0 -70 59 -103q37 -20 83 -20q29 0 61 8l199 45q57 15 109 15q27 0 52 -4q76 -11 133.5 -45t91 -96t33.5 -142q0 -170 -154.5 -272.5t-402.5 -102.5q-180 0 -280.5 66.5t-100.5 170.5zM219 -162 q0 -100 90.5 -159.5t231.5 -59.5q173 0 278 70.5t105 191.5q0 108 -91 161q-59 34 -133 34q-41 0 -86 -10l-176 -43q-56 -13 -100 -13q-18 0 -35 2q-84 -73 -84 -174zM285 754q0 -151 71 -254t183 -103q99 0 158 71t59 185q0 154 -72 256.5t-178 102.5q-99 0 -160 -71.5 t-61 -186.5z" />
<glyph unicode="h" horiz-adv-x="1200" d="M55 0v29q80 11 111 39.5t31 91.5v1083q1 79 -31 102q-21 15 -62 15q-22 0 -49 -4v28l283 97h29v-664q175 240 354 240q141 0 219 -92.5t78 -253.5v-551q0 -63 31 -92t110 -39v-29h-452v29q79 10 110 39t31 92v542q0 112 -50.5 173t-144.5 61q-75 0 -143.5 -42.5 t-142.5 -127.5v-606q0 -63 31 -92t110 -39v-29h-453z" />
<glyph unicode="i" horiz-adv-x="571" d="M55 0v29q80 11 111 39.5t31 91.5v659q1 81 -31 104q-20 14 -58 14q-23 0 -53 -5v29l283 96h29v-897q0 -63 31 -92t110 -39v-29h-453zM152 1335q0 53 37 88t92 35q54 0 89.5 -35t35.5 -88t-35.5 -88t-89.5 -35q-55 0 -92 35t-37 88z" />
<glyph unicode="j" horiz-adv-x="546" d="M8 -412q74 34 117 80t68.5 136.5t25.5 234.5v780q0 81 -32 104q-20 14 -58 14q-23 0 -53 -5v29l284 96h29v-957q0 -226 -80 -351t-289 -183zM164 1337q0 53 37 88t92 35q54 0 89.5 -35t35.5 -88t-35.5 -88t-89.5 -35q-55 0 -92 35t-37 88z" />
<glyph unicode="k" horiz-adv-x="1150" d="M55 0v29q80 11 111 39.5t31 91.5v1083q1 79 -31 102q-21 15 -62 15q-22 0 -49 -4v28l283 97h29v-973l407 373q35 31 35 58q0 9 -5 19q-19 34 -99 39v29h391v-29q-71 -7 -126.5 -37t-133.5 -100l-185 -168l287 -522q45 -75 90.5 -105.5t114.5 -35.5v-29h-332 q1 26 -10.5 56t-42.5 85l-238 430l-153 -141v-270q0 -63 31 -92t110 -39v-29h-453z" />
<glyph unicode="l" horiz-adv-x="571" d="M55 0v29q80 11 111 39.5t31 91.5v1083q1 79 -31 102q-21 15 -62 15q-22 0 -49 -4v28l283 97h29v-1321q0 -63 31 -92t110 -39v-29h-453z" />
<glyph unicode="m" horiz-adv-x="1835" d="M55 0v29q80 11 111 39.5t31 91.5v659q1 81 -31 104q-20 14 -58 14q-23 0 -53 -5v29l283 96h29v-230q88 118 171 174t177 56q117 0 190.5 -63.5t95.5 -178.5q91 124 176.5 183t180.5 59q143 0 220 -91t77 -249v-557q0 -63 31 -92t110 -39v-29h-453v29q80 11 111 39.5 t31 91.5v549q0 104 -57 166.5t-154 62.5q-70 0 -130 -40t-136 -126q2 -18 2 -55v-557q0 -63 31.5 -91.5t111.5 -39.5v-29h-455v29q80 11 111 39.5t31 91.5v549q0 104 -57 166.5t-152 62.5q-71 0 -128.5 -38.5t-135.5 -123.5v-616q0 -63 31 -92t110 -39v-29h-453z" />
<glyph unicode="n" horiz-adv-x="1200" d="M55 0v29q80 11 111 39.5t31 91.5v659q1 81 -31 104q-20 14 -58 14q-23 0 -53 -5v29l283 96h29v-240q175 240 354 240q141 0 219 -92.5t78 -253.5v-551q0 -63 31 -92t110 -39v-29h-452v29q79 10 110 39t31 92v542q0 112 -50.5 173t-144.5 61q-75 0 -143.5 -42.5 t-142.5 -127.5v-606q0 -63 31 -92t110 -39v-29h-453z" />
<glyph unicode="o" horiz-adv-x="1118" d="M76 492q0 252 136.5 408.5t354.5 156.5q212 0 343.5 -144t131.5 -376q0 -255 -136.5 -411.5t-356.5 -156.5q-211 0 -342 145t-131 378zM254 616q0 -149 42 -283t121.5 -220t178.5 -86q119 0 193.5 107t74.5 274q0 150 -42.5 284.5t-122.5 220.5t-179 86 q-119 0 -192.5 -107t-73.5 -276z" />
<glyph unicode="p" horiz-adv-x="1191" d="M35 -375q74 12 110.5 37.5t36.5 87.5v1069q0 81 -32 104q-19 14 -57 14q-22 0 -52 -5v29l283 96h28v-248q30 109 115.5 178.5t198.5 69.5q196 0 313 -145.5t117 -372.5q0 -255 -134.5 -412.5t-349.5 -157.5q-149 0 -260 90v-309q0 -64 45 -89t156 -36v-28h-518v28z M352 334q0 -57 17.5 -111t50 -98.5t85.5 -71t118 -26.5q130 0 210 119.5t80 308.5q0 145 -38 258t-112.5 178t-174.5 65q-81 0 -146.5 -60.5t-89.5 -150.5v-411z" />
<glyph unicode="q" horiz-adv-x="1140" d="M76 487q0 256 133.5 413t349.5 157q86 0 164 -33t129 -90l109 123h28v-1307q0 -33 10.5 -55.5t32.5 -36t45 -20.5t58 -13v-28h-517v28q111 11 156 36t45 89v475q-27 -112 -112.5 -184t-200.5 -72q-197 0 -313.5 145.5t-116.5 372.5zM258 573q0 -222 87.5 -362.5 t236.5 -140.5q86 0 151 62t86 157v403q0 78 -29.5 146.5t-92.5 114.5t-148 46q-131 0 -211 -119t-80 -307z" />
<glyph unicode="r" horiz-adv-x="806" d="M55 0v29q35 6 58.5 13t45.5 20.5t33 36.5t11 55v665q-1 81 -33 104q-20 14 -58 14q-23 0 -53 -5v29l285 96h29v-269q30 128 102.5 198.5t163.5 70.5q73 0 115.5 -30t42.5 -81q0 -39 -21.5 -64.5t-56.5 -25.5q-31 0 -52 17t-43 34t-55 17q-79 0 -137.5 -84t-58.5 -207 v-479q0 -64 44 -89t154 -36v-29h-516z" />
<glyph unicode="s" horiz-adv-x="888" d="M78 315h28q51 -135 149 -210.5t208 -75.5q95 0 156 50t61 134q0 47 -20.5 84.5t-54.5 62.5t-78.5 46t-93.5 38.5t-98 36.5t-93.5 44.5t-78.5 57.5t-54.5 80.5t-20.5 108.5q0 127 92 206t232 79q53 0 106 -15.5t83.5 -31t56 -23.5t36 7.5t11.5 62.5h28l51 -318h-28 q-53 123 -140.5 191.5t-195.5 68.5q-84 0 -139.5 -47t-55.5 -123q0 -48 25.5 -84.5t67 -58.5t95 -44t108.5 -40t108.5 -46.5t95 -63.5t67 -92t25.5 -130q0 -128 -95.5 -213.5t-256.5 -85.5q-56 0 -110.5 15.5t-85.5 31.5t-56.5 23.5t-37.5 -8.5t-15 -64h-29z" />
<glyph unicode="t" horiz-adv-x="712" d="M27 969v28q247 62 309 297h29v-268h290v-57h-290v-699q0 -98 42 -154q40 -54 115 -53h8q15 0 29 4t23 8t21 13t16.5 13t16 16t13.5 14l17 -10q-11 -28 -36.5 -60.5t-74 -62t-102.5 -29.5q-123 0 -190.5 78t-67.5 219v703h-168z" />
<glyph unicode="u" horiz-adv-x="1206" d="M41 932v29l283 96h28v-727q0 -112 56 -170t155 -58q75 0 136.5 36.5t134.5 119.5v561q0 81 -32 104q-20 14 -59 14q-23 0 -53 -5v29l283 96h28v-912q0 -37 17.5 -59.5t44.5 -22.5q45 0 84 68l24 -10q-37 -85 -85.5 -118.5t-92.5 -33.5q-64 0 -111.5 46t-47.5 130v62 q-91 -120 -176 -179t-179 -59q-143 0 -220 91t-77 249v510q0 81 -31 104q-19 14 -57 14q-23 0 -53 -5z" />
<glyph unicode="v" horiz-adv-x="1060" d="M8 997v29h453v-29q-86 -7 -115 -39q-16 -17 -16 -43q0 -22 12 -51l254 -647l262 647q12 29 12 51q0 75 -129 82v29h312v-29q-81 -9 -133 -133l-371 -895h-29l-364 895q-52 124 -148 133z" />
<glyph unicode="w" horiz-adv-x="1644" d="M8 997v29h445v-29q-128 -19 -128 -86q0 -18 9 -39l252 -655l213 537l-45 114q-46 111 -142 129v29h443v-29q-126 -20 -126 -89q0 -19 9 -42l252 -649l258 651q10 22 10 40q0 68 -133 89v29h311v-29q-43 -8 -75 -39t-56 -92l-362 -897h-29l-287 713l-288 -713h-29 l-356 893q-47 113 -146 135z" />
<glyph unicode="x" horiz-adv-x="1062" d="M12 0v29q94 26 189 149l250 322l-244 372q-43 64 -83.5 91t-88.5 34v29h428v-29q-36 -2 -57 -9.5t-29 -17t-4.5 -27t11.5 -32t24 -39.5l163 -247l181 233q24 31 35 53t10 41.5t-23 30.5t-65 14v29h305v-29q-47 -6 -92 -38.5t-105 -108.5l-213 -272l281 -426 q68 -105 166 -123v-29h-433v29q45 6 68 17t24.5 29.5t-6 35.5t-26.5 45l-195 297l-217 -283q-18 -24 -28.5 -42t-14 -36t4.5 -30t29.5 -20.5t57.5 -12.5v-29h-303z" />
<glyph unicode="y" horiz-adv-x="1085" d="M10 -315q0 39 25.5 65.5t66.5 26.5q26 0 87.5 -34t109.5 -34q61 0 108 46.5t85 144.5l34 90l-364 870q-52 128 -139 137v29h446v-29q-131 -9 -131 -85q0 -23 12 -52l264 -653l258 653q13 31 13 55q0 73 -119 82v29h311v-29q-88 -9 -143 -137l-389 -979q-24 -63 -55 -116 t-73 -99.5t-98.5 -73t-121.5 -26.5q-76 0 -131.5 33t-55.5 86z" />
<glyph unicode="z" horiz-adv-x="960" d="M49 0v29l631 940h-338q-87 0 -143 -57.5t-95 -192.5h-28l26 307h789v-29l-631 -940h363q90 0 148 68t93 215h29l-43 -340h-801z" />
<glyph unicode="&#xad;" d="M102 518v55h512v-55h-512z" />
<glyph unicode="&#x2000;" horiz-adv-x="775" />
<glyph unicode="&#x2001;" horiz-adv-x="1550" />
<glyph unicode="&#x2002;" horiz-adv-x="775" />
<glyph unicode="&#x2003;" horiz-adv-x="1550" />
<glyph unicode="&#x2004;" horiz-adv-x="516" />
<glyph unicode="&#x2005;" horiz-adv-x="387" />
<glyph unicode="&#x2006;" horiz-adv-x="258" />
<glyph unicode="&#x2007;" horiz-adv-x="258" />
<glyph unicode="&#x2008;" horiz-adv-x="193" />
<glyph unicode="&#x2009;" horiz-adv-x="310" />
<glyph unicode="&#x200a;" horiz-adv-x="86" />
<glyph unicode="&#x2010;" d="M102 518v55h512v-55h-512z" />
<glyph unicode="&#x2011;" d="M102 518v55h512v-55h-512z" />
<glyph unicode="&#x2012;" d="M102 518v55h512v-55h-512z" />
<glyph unicode="&#x2013;" horiz-adv-x="1228" d="M102 518v55h1024v-55h-1024z" />
<glyph unicode="&#x2014;" horiz-adv-x="2252" d="M102 518v55h2048v-55h-2048z" />
<glyph unicode="&#x202f;" horiz-adv-x="310" />
<glyph unicode="&#x205f;" horiz-adv-x="387" />
<glyph unicode="&#x25fc;" horiz-adv-x="1024" d="M0 0v1024h1024v-1024h-1024z" />
</font>
</defs>
</svg>
