<?xml version="1.0" standalone="no"?>
<!DOCTYPE svg PUBLIC "-//W3C//DTD SVG 1.1//EN" "http://www.w3.org/Graphics/SVG/1.1/DTD/svg11.dtd" >
<svg xmlns="http://www.w3.org/2000/svg" xmlns:xlink="http://www.w3.org/1999/xlink" version="1.1">
<metadata>
Created by FontForge 20170731 at Tue Jan 12 21:15:48 2021
 By Aleksey,,,
Copyright (c) 2018 by Martin Va'cha. All rights reserved.
</metadata>
<defs>
<font id="TobiasTRIAL-Regular" horiz-adv-x="1200" >
  <font-face 
    font-family="Tobias TRIAL"
    font-weight="400"
    font-stretch="normal"
    units-per-em="2048"
    panose-1="0 0 5 0 0 0 0 0 0 0"
    ascent="1614"
    descent="-434"
    x-height="1026"
    cap-height="1450"
    bbox="8 -434 2187 1659"
    underline-thickness="102"
    underline-position="-307"
    unicode-range="U+0020-007A"
  />
<missing-glyph horiz-adv-x="2281" 
d="M117 633q0 202 78 388.5t210 323.5t314.5 222t384.5 92v-2048q-202 7 -385 90.5t-315 220t-209.5 322.5t-77.5 389zM1178 -383v2034q83 -28 153 -172t111 -368.5t41 -477.5t-41 -477t-111 -367t-153 -172zM1841 633q0 -344 -142 -617t-366 -366q103 134 164.5 398.5
t61.5 584.5t-61 584.5t-165 402.5q146 -62 262 -207.5t181 -349.5t65 -430zM2165 633q0 -310 -171 -566t-452 -374q172 150 273.5 400t101.5 540q0 289 -101.5 541t-273.5 401q281 -119 452 -376t171 -566z" />
    <glyph glyph-name=".notdef" horiz-adv-x="2281" 
d="M117 633q0 202 78 388.5t210 323.5t314.5 222t384.5 92v-2048q-202 7 -385 90.5t-315 220t-209.5 322.5t-77.5 389zM1178 -383v2034q83 -28 153 -172t111 -368.5t41 -477.5t-41 -477t-111 -367t-153 -172zM1841 633q0 -344 -142 -617t-366 -366q103 134 164.5 398.5
t61.5 584.5t-61 584.5t-165 402.5q146 -62 262 -207.5t181 -349.5t65 -430zM2165 633q0 -310 -171 -566t-452 -374q172 150 273.5 400t101.5 540q0 289 -101.5 541t-273.5 401q281 -119 452 -376t171 -566z" />
    <glyph glyph-name=".null" horiz-adv-x="0" 
 />
    <glyph glyph-name="nonmarkingreturn" horiz-adv-x="682" 
 />
    <glyph glyph-name="space" unicode=" " horiz-adv-x="446" 
 />
    <glyph glyph-name="comma" unicode="," horiz-adv-x="438" 
d="M213 238q69 0 109 -49.5t40 -127.5q0 -135 -73 -222.5t-203 -127.5l-6 23q75 40 130 104t58 148q-27 -19 -59 -19q-58 0 -95.5 38t-37.5 95q0 59 38.5 98.5t98.5 39.5z" />
    <glyph glyph-name="hyphen" unicode="-" horiz-adv-x="716" 
d="M102 573h512v-55h-512v55z" />
    <glyph glyph-name="period" unicode="." horiz-adv-x="421" 
d="M211 -31q-56 0 -95.5 39t-39.5 96q0 55 39.5 94.5t95.5 39.5q57 0 96 -39t39 -95q0 -57 -39.5 -96t-95.5 -39z" />
    <glyph glyph-name="zero" unicode="0" horiz-adv-x="1306" 
d="M653 1483q168 0 291.5 -103t184.5 -273t61 -382q0 -211 -61 -381t-184.5 -273.5t-291.5 -103.5q-126 0 -229 60t-169.5 163.5t-102 240.5t-35.5 294q0 158 35.5 295t102 240.5t169.5 163t229 59.5zM623 1425q-137 0 -221.5 -163t-84.5 -424q0 -91 11 -193.5t39 -214.5
t68.5 -200.5t105.5 -146.5t145 -58q137 0 221 163t84 424q0 92 -11.5 195t-40 214.5t-69 200t-105 146t-142.5 57.5z" />
    <glyph glyph-name="one" unicode="1" horiz-adv-x="720" 
d="M643 0h-594v29q132 6 178.5 38.5t46.5 125.5v1042h-223v29q134 36 222 80.5t157 113.5h29v-1265q0 -93 41.5 -125.5t142.5 -38.5v-29z" />
    <glyph glyph-name="two" unicode="2" horiz-adv-x="1103" 
d="M483 1423q-88 0 -152.5 -45t-91 -112t-16.5 -140q10 -52 -9.5 -79.5t-61.5 -32.5q-45 -6 -73 21t-30 75q-3 96 55.5 181.5t163.5 137.5t230 52q213 0 341 -109t128 -289q0 -92 -30.5 -176.5t-81 -148t-117 -124t-137 -106.5t-142.5 -93.5t-131.5 -86.5t-106 -83.5
t-65.5 -86.5h559q62 0 100 7t75 30.5t62 71t45 125.5l29 -4l-59 -408h-897l2 49q3 72 29 139.5t67.5 122t94 107.5t110 102.5t114.5 99.5t108 105t90.5 113.5t63 130.5t23.5 151q0 128 -82.5 215.5t-206.5 87.5z" />
    <glyph glyph-name="three" unicode="3" horiz-adv-x="1099" 
d="M502 -31q-171 0 -292 79.5t-153 217.5q-16 45 -1 88t59 54q56 13 88.5 -16.5t19.5 -106.5q0 -49 17.5 -94t52.5 -82.5t94 -59.5t135 -22q134 0 216.5 92.5t82.5 249.5q0 170 -124 263t-351 87l2 43q183 22 294.5 121t111.5 247q0 133 -69 213t-179 80q-128 0 -197 -91
t-55 -206q19 -98 -74 -112q-44 -6 -71.5 21t-30.5 75q-6 148 124.5 259.5t317.5 111.5q190 0 304.5 -90t117.5 -240q3 -134 -98 -239t-266 -142q209 -9 326.5 -107.5t117.5 -261.5q0 -197 -145 -314.5t-375 -117.5z" />
    <glyph glyph-name="four" unicode="4" horiz-adv-x="1216" 
d="M1022 0h-608v29q127 8 183 51t56 149v168h-612v29l668 1055h129v-996h24q100 0 168 77t100 226h29l-53 -391h-268v-168q1 -112 40 -153t144 -47v-29zM653 1286l-510 -801h510v801z" />
    <glyph glyph-name="five" unicode="5" horiz-adv-x="1122" 
d="M918 1550h28l37 -266h-688l-70 -506q155 144 338 144q200 0 329.5 -131.5t129.5 -331.5q0 -217 -140.5 -353.5t-363.5 -136.5q-157 0 -277 69.5t-163 186.5q-18 42 -7 75.5t44 47.5q37 16 74.5 -9t50.5 -81q25 -105 102 -168t180 -63q142 -1 223.5 102t81.5 281
q0 167 -97.5 279t-237.5 112q-167 0 -299 -125l-37 18l104 756h547q51 0 77 23.5t34 76.5z" />
    <glyph glyph-name="six" unicode="6" 
d="M694 918q188 0 307 -131t119 -334q0 -210 -126 -348t-335 -138q-253 0 -401.5 205.5t-140.5 544.5q4 197 52 347t129 240t184 134.5t225 44.5q95 0 182 -33.5t137 -91.5q36 -29 48.5 -65t1.5 -65.5t-40 -43.5q-46 -22 -84 0.5t-53 83.5q-17 68 -80.5 112.5t-142.5 44.5
q-52 0 -101 -24t-94.5 -78t-80.5 -132t-57.5 -195t-25.5 -259v-43q59 104 156.5 164t220.5 60zM676 25q111 0 183.5 111t72.5 270q0 176 -94.5 285.5t-241.5 109.5q-85 0 -157.5 -41t-121.5 -119q7 -164 50 -301.5t124 -226t185 -88.5z" />
    <glyph glyph-name="seven" unicode="7" horiz-adv-x="1044" 
d="M115 1450h907v-29q-78 -110 -142 -214t-133.5 -249t-114 -287.5t-69 -318.5t-14.5 -352h-211q-7 115 5.5 229t38.5 212t70 199t89 182t105.5 169.5t110.5 152.5t113 140h-544q-98 0 -153 -55t-89 -185h-29z" />
    <glyph glyph-name="eight" unicode="8" horiz-adv-x="1210" 
d="M715 811q56 -25 87.5 -39.5t81.5 -41.5t78.5 -49t63.5 -55.5t53.5 -68t31.5 -80t13 -96.5q0 -182 -143.5 -298t-380.5 -116q-224 0 -368 102t-144 257q0 136 92 241.5t260 165.5q-68 34 -117 67.5t-94 79t-68.5 104t-23.5 128.5q0 153 129 262t334 109q197 0 326 -97
t129 -229q0 -122 -91 -211.5t-249 -134.5zM336 1180q0 -44 11.5 -82.5t36 -70.5t51.5 -57.5t69 -51t76.5 -43.5t85.5 -41q95 48 151.5 133t56.5 186q0 124 -79 198t-195 74q-113 0 -188.5 -64.5t-75.5 -180.5zM600 25q137 0 230.5 78.5t93.5 203.5q0 32 -7 62t-18 54
t-31 48.5t-38 42.5t-48 39t-52 34.5t-58.5 32.5t-60 30.5t-64 30.5t-62.5 30q-96 -48 -153.5 -148.5t-57.5 -224.5q0 -136 92.5 -224.5t233.5 -88.5z" />
    <glyph glyph-name="nine" unicode="9" 
d="M541 1483q254 0 402 -205.5t140 -544.5q-4 -197 -52 -347t-129 -240t-183.5 -134.5t-224.5 -44.5q-95 0 -182.5 33.5t-137.5 91.5q-36 29 -48.5 65t-1.5 65.5t40 43.5q46 22 84 -0.5t53 -83.5q17 -68 80.5 -112.5t142.5 -44.5q52 0 101 24t94.5 78t80.5 132t58 195
t27 259v47q-58 -107 -156 -167.5t-223 -60.5q-188 0 -307 131t-119 334q0 211 125.5 348.5t335.5 137.5zM604 649q86 0 159.5 41t119.5 121q-7 164 -50 301t-124 225t-185 88q-111 0 -183.5 -111t-72.5 -270q0 -176 94.5 -285.5t241.5 -109.5z" />
    <glyph glyph-name="A" unicode="A" horiz-adv-x="1503" 
d="M760 1481l504 -1235q50 -119 100.5 -168t126.5 -49v-29h-588v29q137 0 174 44.5t-8 153.5l-102 254h-580l-102 -254q-44 -109 -8 -153.5t169 -44.5v-29h-434v29q72 0 120.5 49t98.5 168l500 1235h29zM676 1206l-266 -667h534z" />
    <glyph glyph-name="B" unicode="B" horiz-adv-x="1357" 
d="M768 0h-690v29q105 10 144.5 43t39.5 108v1090q0 75 -39.5 108t-144.5 43v29h592q232 0 364.5 -94.5t132.5 -263.5q0 -121 -91.5 -212t-241.5 -116q194 -20 312 -122.5t118 -246.5q0 -184 -133.5 -289.5t-362.5 -105.5zM449 1393v-611h213q137 0 222 87t85 223
q0 137 -93.5 219t-246.5 82h-180zM625 57h94q156 0 251 92.5t95 245.5q0 146 -107 238t-278 92h-231v-535q0 -64 39.5 -98.5t136.5 -34.5z" />
    <glyph glyph-name="C" unicode="C" horiz-adv-x="1409" 
d="M1180 1481h28l60 -416h-29q-55 173 -171.5 265.5t-276.5 92.5q-208 0 -341 -180t-133 -467q0 -194 70 -352t196 -248t283 -90q152 0 265 97.5t157 265.5l31 -9q-29 -217 -179.5 -345t-357.5 -128q-146 0 -271 54.5t-211 150.5t-134.5 229.5t-48.5 288.5q0 228 84.5 408.5
t237.5 281.5t349 101q67 0 133.5 -15.5t105 -30.5t72.5 -23t52.5 7.5t28.5 61.5z" />
    <glyph glyph-name="D" unicode="D" horiz-adv-x="1527" 
d="M78 1450h588q339 0 542 -185t203 -499q0 -351 -195 -558.5t-520 -207.5h-618v29q105 10 144.5 43t39.5 108v1090q0 75 -39.5 108t-144.5 43v29zM584 57h112q148 0 265 84t183 235t66 343q0 313 -157.5 493.5t-421.5 180.5h-182v-1198q0 -72 32.5 -105t102.5 -33z" />
    <glyph glyph-name="E" unicode="E" horiz-adv-x="1265" 
d="M1182 379h28l-55 -379h-1077v29q105 10 144.5 43t39.5 108v1090q0 75 -39.5 108t-144.5 43v29h911q90 0 103 31h28l66 -408h-29q-40 171 -119 245.5t-221 74.5h-368v-621h266q90 0 126 48.5t27 160.5h29l66 -475h-29q-24 111 -73 160t-128 49h-284v-522q0 -74 26 -105
t90 -31h289q132 0 211 77.5t117 244.5z" />
    <glyph glyph-name="F" unicode="F" horiz-adv-x="1230" 
d="M1092 1481h28l64 -408h-29q-40 171 -119 245.5t-221 74.5h-366v-621h266q90 0 126 48.5t27 160.5h29l66 -475h-29q-24 111 -73 160t-128 49h-284v-535q0 -53 19 -81.5t71.5 -45.5t154.5 -24v-29h-616v29q105 10 144.5 43t39.5 108v1090q0 75 -39.5 108t-144.5 43v29h909
q92 0 105 31z" />
    <glyph glyph-name="G" unicode="G" horiz-adv-x="1492" 
d="M768 -31q-185 0 -334 93t-233 258t-84 370q0 173 51 320.5t140.5 250.5t216 161.5t272.5 58.5q66 0 131 -15.5t103 -31t71.5 -23.5t52.5 7.5t29 62.5h28l58 -416h-27q-130 358 -461 358q-203 0 -335.5 -182.5t-131.5 -470.5q1 -201 67.5 -369t185 -267t263.5 -99
q79 0 153.5 25.5t125.5 80.5v377q0 173 -188 182v31h551v-31q-179 -9 -179 -182v-293q-75 -111 -214.5 -183.5t-311.5 -72.5z" />
    <glyph glyph-name="H" unicode="H" horiz-adv-x="1607" 
d="M1532 1450v-29q-106 -10 -146 -43t-40 -108v-1090q0 -75 40 -108t146 -43v-29h-557v29q106 10 146 43t40 108v537h-712v-537q0 -75 39.5 -108t144.5 -43v-29h-555v29q105 10 144.5 43t39.5 108v1090q0 75 -39.5 108t-144.5 43v29h555v-29q-105 -10 -144.5 -43t-39.5 -108
v-496h712v496q0 75 -40 108t-146 43v29h557z" />
    <glyph glyph-name="I" unicode="I" horiz-adv-x="710" 
d="M449 1270v-1090q0 -75 39.5 -108t144.5 -43v-29h-555v29q105 10 144.5 43t39.5 108v1090q0 75 -39.5 108t-144.5 43v29h555v-29q-105 -10 -144.5 -43t-39.5 -108z" />
    <glyph glyph-name="J" unicode="J" horiz-adv-x="1052" 
d="M418 -31q-75 0 -141.5 18.5t-119.5 55t-85.5 95.5t-34.5 134q-2 48 21.5 77.5t64.5 29.5q43 0 69.5 -27.5t26.5 -72.5q0 -18 -5 -47t-5 -44q0 -77 60 -118t155 -41q101 0 159 76.5t58 236.5v928q0 75 -40 108t-146 43v29h557v-29q-106 -11 -146.5 -43.5t-40.5 -107.5
v-867q0 -213 -108 -323.5t-299 -110.5z" />
    <glyph glyph-name="K" unicode="K" horiz-adv-x="1474" 
d="M766 926l469 -752q36 -62 99 -101t130 -42v-31h-379q-3 60 -59 147l-393 637l-184 -192v-412q0 -75 39.5 -108t144.5 -43v-29h-555v29q105 10 144.5 43t39.5 108v1090q0 75 -39.5 108t-144.5 43v29h555v-29q-105 -10 -144.5 -43t-39.5 -108v-592l587 614q57 58 37 89.5
t-135 37.5v31h432v-31q-149 -14 -264 -137z" />
    <glyph glyph-name="L" unicode="L" horiz-adv-x="1236" 
d="M1167 379h29l-55 -379h-1063v29q105 10 144.5 43t39.5 108v1090q0 75 -39.5 108t-144.5 43v29h555v-29q-105 -10 -144.5 -43t-39.5 -108v-1077q0 -74 26 -105t90 -31h275q132 0 210.5 77.5t116.5 244.5z" />
    <glyph glyph-name="M" unicode="M" horiz-adv-x="1894" 
d="M1819 1450v-29q-106 -11 -146.5 -43.5t-40.5 -107.5v-1090q0 -75 42 -109.5t145 -41.5v-29h-557v29q102 7 144 41.5t42 109.5v1047l-557 -1227h-29l-543 1223v-1043q0 -75 41.5 -109.5t143.5 -41.5v-29h-426v29q102 7 143 41.5t41 109.5v1092q0 77 -39.5 110t-142.5 37
v31h342l524 -1188l541 1188h332z" />
    <glyph glyph-name="N" unicode="N" horiz-adv-x="1509" 
d="M1006 1421v29h426v-29q-106 -11 -146.5 -43.5t-40.5 -107.5v-1270h-45l-881 1239v-1059q0 -75 40 -108t145 -43v-29h-426v29q105 10 144.5 43t39.5 108v1092q0 77 -39.5 110t-142.5 39v29h319l789 -1128v948q0 76 -38.5 108.5t-143.5 42.5z" />
    <glyph glyph-name="O" unicode="O" horiz-adv-x="1605" 
d="M799 -31q-205 0 -361 95.5t-238.5 259.5t-82.5 370q0 172 51.5 319t143 249.5t220 160.5t277.5 58q153 0 281.5 -55.5t215 -152.5t135 -230t48.5 -287q0 -228 -88.5 -408t-246 -279.5t-355.5 -99.5zM838 27q136 3 239.5 88t158.5 236.5t52 346.5q-4 208 -69.5 373.5
t-182.5 259.5t-266 92q-139 -2 -243.5 -87.5t-159 -237t-50.5 -346.5q3 -206 69 -372t185 -261t267 -92z" />
    <glyph glyph-name="P" unicode="P" horiz-adv-x="1263" 
d="M651 1450q250 0 396.5 -110t146.5 -296q0 -188 -146.5 -297.5t-396.5 -109.5h-202v-438q0 -98 40.5 -131t143.5 -39v-29h-555v29q105 6 144.5 40.5t39.5 129.5v1054q0 94 -40 128t-144 40v29h573zM449 694h169q173 0 274 98.5t101 251.5q0 155 -100 252t-275 97h-169
v-699z" />
    <glyph glyph-name="Q" unicode="Q" horiz-adv-x="1605" 
d="M807 -31q24 -77 66 -133.5t93 -87t111.5 -48t120.5 -16.5t121 7l6 -29q-82 -30 -170.5 -35t-173.5 17t-158 66t-128 117t-79 165q-231 58 -365 248.5t-134 453.5q0 172 51.5 319t143 249.5t220 160.5t277.5 58q153 0 281.5 -55.5t215 -152.5t135 -230t48.5 -287
q0 -226 -87.5 -405.5t-243 -279.5t-351.5 -102zM317 752q3 -206 69 -372t185 -261t267 -92q136 3 239.5 88t158.5 236.5t52 346.5q-4 208 -69.5 373.5t-182.5 259.5t-266 92q-139 -2 -243.5 -87.5t-159 -237t-50.5 -346.5z" />
    <glyph glyph-name="R" unicode="R" horiz-adv-x="1394" 
d="M831 653l365 -508q33 -46 87.5 -78.5t100.5 -35.5v-31h-335q-9 44 -54 109l-372 528h-174v-438q0 -98 40.5 -131t143.5 -39v-29h-555v29q105 6 144.5 40.5t39.5 129.5v1054q0 94 -40 128t-144 40v29h573q250 0 396.5 -110t146.5 -296q0 -150 -96 -253t-267 -138z
M618 1393h-169v-699h169q173 0 274 98.5t101 251.5q0 155 -100 252t-275 97z" />
    <glyph glyph-name="S" unicode="S" horiz-adv-x="1167" 
d="M604 -31q-87 0 -161 20.5t-109.5 41t-64 30t-42 -9.5t-26.5 -82h-29l-74 467h29q73 -201 194.5 -304t282.5 -103q129 0 211 77t82 197q0 73 -26.5 130.5t-71 95t-102 68t-121.5 55t-128 50t-121.5 60t-102 77.5t-71 109t-26.5 150q0 173 116 278t314 105
q72 0 137.5 -16.5t99.5 -33t62.5 -24.5t43 8t24.5 66h28l66 -418h-29q-53 172 -170 266t-262 94q-125 0 -197.5 -68t-72.5 -184q0 -66 27 -118t72.5 -87t104.5 -64t124 -54.5t130 -52t124 -63t104.5 -81.5t72.5 -113t27 -153q0 -185 -130.5 -300.5t-338.5 -115.5z" />
    <glyph glyph-name="T" unicode="T" horiz-adv-x="1277" 
d="M1165 1481h29l63 -408h-28q-38 170 -117.5 245t-222.5 75h-158v-1200q0 -86 39 -121.5t145 -42.5v-29h-553v29q106 8 145.5 43t39.5 121v1200h-158q-142 0 -221 -74.5t-119 -245.5h-29l66 408h29q11 -31 102 -31h846q89 0 102 31z" />
    <glyph glyph-name="U" unicode="U" horiz-adv-x="1495" 
d="M1024 1421v29h430v-29q-106 -10 -146 -43t-40 -108v-760q0 -247 -135.5 -394t-362.5 -147q-255 0 -399 143t-144 398v760q0 75 -40 108t-146 43v29h557v-29q-106 -10 -146 -43t-40 -108v-760q0 -214 112 -343.5t297 -129.5q181 0 285 128.5t104 344.5v760q0 75 -40 108
t-146 43z" />
    <glyph glyph-name="V" unicode="V" horiz-adv-x="1503" 
d="M774 -31h-29l-505 1237q-47 117 -99 166t-129 49v29h588v-29q-137 0 -174 -44.5t8 -153.5l395 -979l390 979q45 109 9 153.5t-169 44.5v29h432v-29q-72 0 -121 -49t-96 -168z" />
    <glyph glyph-name="W" unicode="W" horiz-adv-x="2199" 
d="M1792 1421v29h395v-29q-65 -2 -110.5 -51t-87.5 -166l-453 -1235h-27l-405 1092l-399 -1092h-27l-459 1237q-42 111 -88.5 162.5t-118.5 52.5v29h541v-29q-122 -1 -153 -46.5t10 -151.5l344 -959l319 883l-22 59q-40 111 -86.5 162.5t-120.5 52.5v29h540v-29
q-121 -1 -151.5 -46.5t8.5 -151.5l344 -957l350 957q41 103 11.5 150t-154.5 48z" />
    <glyph glyph-name="X" unicode="X" horiz-adv-x="1429" 
d="M786 807l400 -617q27 -44 42.5 -64.5t43 -44.5t62.5 -35.5t87 -16.5v-29h-592v29q107 11 144.5 49.5t-2.5 101.5l-309 477l-338 -477q-44 -62 -10.5 -101t139.5 -50v-29h-445v29q51 5 88 17t66 35t46.5 43.5t45.5 59.5l373 527l-357 549q-28 45 -43.5 66t-43 44.5
t-62 34.5t-86.5 16v29h594v-29q-108 -11 -145.5 -48t1.5 -103l267 -410l288 410q45 65 11.5 102.5t-140.5 48.5v29h445v-29q-68 -7 -114 -28.5t-70.5 -47.5t-61.5 -79z" />
    <glyph glyph-name="Y" unicode="Y" horiz-adv-x="1386" 
d="M938 1421v29h440v-29q-102 -10 -154.5 -45t-90.5 -110l-328 -643v-428q0 -88 38 -122.5t144 -41.5v-31h-551v31q106 7 144 41.5t38 122.5v403l-374 662q-23 42 -40.5 66t-44.5 46t-63 33t-88 16v29h588v-29q-214 -21 -141 -151l321 -574l293 574q36 67 5 104t-136 47z
" />
    <glyph glyph-name="Z" unicode="Z" horiz-adv-x="1189" 
d="M1104 377h29l-66 -408h-29q-13 31 -102 31h-889v31l844 1362h-422q-142 0 -221 -74.5t-119 -245.5h-29l64 408h29q13 -31 104 -31h829v-31l-845 -1362h483q142 0 221 74.5t119 245.5z" />
    <glyph glyph-name="a" unicode="a" horiz-adv-x="1073" 
d="M1014 131l24 -10q-19 -45 -43.5 -77t-49 -47t-45.5 -21.5t-40 -6.5q-64 0 -112 46t-48 130v78q-44 -122 -126.5 -188t-186.5 -66q-119 0 -200 75t-81 192q0 157 102 243.5t320 108.5l172 16v94q0 139 -62.5 220t-170.5 81q-114 0 -165 -66t-32 -142q25 -105 -53 -127
q-44 -12 -77.5 12.5t-33.5 83.5q1 49 25.5 99.5t71.5 95.5t127 73.5t180 28.5q167 0 263.5 -99t96.5 -270v-543q0 -38 17 -60t45 -22q43 0 82 68zM473 86q70 0 128 50t99 140v273l-157 -21q-260 -34 -260 -243q0 -86 55 -142.5t135 -56.5z" />
    <glyph glyph-name="b" unicode="b" horiz-adv-x="1142" 
d="M637 1057q197 0 313.5 -145.5t116.5 -372.5q0 -256 -133.5 -413t-347.5 -157q-89 0 -168.5 34t-130.5 93l-103 -127h-28v1274q0 79 -32.5 102t-111.5 11v28l283 97h29v-680q27 112 112.5 184t200.5 72zM596 27q130 0 209.5 119.5t79.5 308.5q0 221 -87.5 361t-236.5 140
q-86 0 -151 -62t-86 -155v-405q0 -122 72.5 -214.5t199.5 -92.5z" />
    <glyph glyph-name="c" unicode="c" horiz-adv-x="1013" 
d="M920 719h-29q-49 142 -135 211t-197 69q-133 0 -220 -118.5t-87 -298.5q0 -130 46.5 -239.5t137.5 -177t209 -67.5q97 0 172 58t109 159l24 -6q-25 -152 -130 -245t-257 -93q-208 0 -347.5 150t-139.5 375q0 118 36 222t98 178.5t148 117.5t183 43q65 0 122.5 -13.5
t86 -27t51.5 -19.5t32.5 6.5t14.5 53.5h24z" />
    <glyph glyph-name="d" unicode="d" horiz-adv-x="1191" 
d="M1133 131l24 -10q-37 -85 -85.5 -118.5t-92.5 -33.5q-64 0 -112 46t-48 130v80q-27 -112 -112.5 -184t-200.5 -72q-197 0 -313.5 145.5t-116.5 372.5q0 256 133.5 413t349.5 157q149 0 260 -90v276q0 79 -32 102t-111 11v28l285 97h28v-1336q0 -38 17 -60t45 -22
q43 0 82 68zM582 70q86 0 151 62t86 157v403q0 78 -29.5 146.5t-92.5 114.5t-148 46q-131 0 -211 -119t-80 -307q0 -222 87.5 -362.5t236.5 -140.5z" />
    <glyph glyph-name="e" unicode="e" horiz-adv-x="1019" 
d="M901 303l27 -6q-25 -146 -128.5 -236t-244.5 -90q-149 0 -259.5 70.5t-165 187.5t-54.5 263q0 250 134.5 407.5t348.5 157.5q185 0 283 -126.5t82 -312.5h-670v-43q0 -211 101.5 -344t283.5 -133q89 0 161 56.5t101 148.5zM524 999q-116 0 -184 -88t-82 -245h496
q5 88 -22 164t-82 122.5t-126 46.5z" />
    <glyph glyph-name="f" unicode="f" horiz-adv-x="866" 
d="M588 1493q63 0 121.5 -13.5t103.5 -47.5t45 -84q0 -48 -40.5 -70.5t-78.5 -1.5q-25 9 -41.5 29t-26 41.5t-21 42.5t-34.5 34t-59 13q-81 0 -123.5 -77.5t-42.5 -203.5v-129h285v-57h-285v-815q0 -64 45 -89t156 -36v-29h-516v29q35 6 58 13t45.5 20.5t33 36t10.5 55.5
v815h-174v57h174v74q0 189 102 291t263 102z" />
    <glyph glyph-name="g" unicode="g" horiz-adv-x="1079" 
d="M422 168l199 45q85 22 161 11t133.5 -45t91 -96t33.5 -142q0 -170 -154.5 -272.5t-402.5 -102.5q-180 0 -280.5 66.5t-100.5 170.5q0 143 154 220q-64 20 -100.5 68.5t-36.5 115.5q0 66 39 123t114 88q-75 46 -118 118.5t-43 165.5q0 155 113.5 255t297.5 100h23
q49 -1 108.5 -4.5t96.5 -5.5t77.5 -3t64 2.5t44 12.5t29 26t8.5 43h24l21 -163q-53 0 -270 41q86 -45 135 -124.5t49 -179.5q0 -154 -113.5 -253t-296.5 -99q-125 0 -221 51q-82 -42 -82 -118q0 -70 59 -102.5t144 -12.5zM506 1012q-99 0 -160 -71.5t-61 -186.5
q0 -151 71 -254t183 -103q99 0 158 71t59 185q0 154 -72 256.5t-178 102.5zM541 -381q173 0 278 70.5t105 191.5q0 108 -91 161t-219 24l-176 -43q-79 -19 -135 -11q-84 -73 -84 -174q0 -100 90.5 -159.5t231.5 -59.5z" />
    <glyph glyph-name="h" unicode="h" 
d="M1018 711v-551q0 -63 31 -92t110 -39v-29h-452v29q79 10 110 39t31 92v542q0 112 -50.5 173t-144.5 61q-75 0 -143.5 -42.5t-142.5 -127.5v-606q0 -63 31 -92t110 -39v-29h-453v29q80 11 111 39.5t31 91.5v1083q0 79 -31.5 102t-110.5 11v28l283 97h29v-664
q175 240 354 240q141 0 219 -92.5t78 -253.5z" />
    <glyph glyph-name="i" unicode="i" horiz-adv-x="571" 
d="M281 1212q-55 0 -92 35t-37 88t37 88t92 35q54 0 89.5 -35t35.5 -88t-35.5 -88t-89.5 -35zM367 1057v-897q0 -63 31 -92t110 -39v-29h-453v29q80 11 111 39.5t31 91.5v659q0 81 -31.5 104t-110.5 9v29l283 96h29z" />
    <glyph glyph-name="j" unicode="j" horiz-adv-x="546" 
d="M293 1214q-55 0 -92 35t-37 88t37 88t92 35q54 0 89.5 -35t35.5 -88t-35.5 -88t-89.5 -35zM76 932v29l284 96h29v-957q0 -226 -80 -351t-289 -183l-12 22q74 34 117 80t68.5 136.5t25.5 234.5v780q0 81 -32 104t-111 9z" />
    <glyph glyph-name="k" unicode="k" horiz-adv-x="1150" 
d="M651 692l287 -522q45 -75 90.5 -105.5t114.5 -35.5v-29h-332q1 26 -10.5 56t-42.5 85l-238 430l-153 -141v-270q0 -63 31 -92t110 -39v-29h-453v29q80 11 111 39.5t31 91.5v1083q0 79 -31.5 102t-110.5 11v28l283 97h29v-973l407 373q49 43 30 77.5t-99 38.5v29h391v-29
q-71 -7 -126.5 -37t-133.5 -100z" />
    <glyph glyph-name="l" unicode="l" horiz-adv-x="571" 
d="M367 1481v-1321q0 -63 31 -92t110 -39v-29h-453v29q80 11 111 39.5t31 91.5v1083q0 79 -31.5 102t-110.5 11v28l283 97h29z" />
    <glyph glyph-name="m" unicode="m" horiz-adv-x="1835" 
d="M1655 717v-557q0 -63 31 -92t110 -39v-29h-453v29q80 11 111 39.5t31 91.5v549q0 104 -57 166.5t-154 62.5q-70 0 -130 -40t-136 -126q2 -18 2 -55v-557q0 -63 31.5 -91.5t111.5 -39.5v-29h-455v29q80 11 111 39.5t31 91.5v549q0 104 -57 166.5t-152 62.5
q-71 0 -128.5 -38.5t-135.5 -123.5v-616q0 -63 31 -92t110 -39v-29h-453v29q80 11 111 39.5t31 91.5v659q0 81 -31.5 104t-110.5 9v29l283 96h29v-230q88 118 171 174t177 56q117 0 190.5 -63.5t95.5 -178.5q91 124 176.5 183t180.5 59q143 0 220 -91t77 -249z" />
    <glyph glyph-name="n" unicode="n" 
d="M1018 711v-551q0 -63 31 -92t110 -39v-29h-452v29q79 10 110 39t31 92v542q0 112 -50.5 173t-144.5 61q-75 0 -143.5 -42.5t-142.5 -127.5v-606q0 -63 31 -92t110 -39v-29h-453v29q80 11 111 39.5t31 91.5v659q0 81 -31.5 104t-110.5 9v29l283 96h29v-240
q175 240 354 240q141 0 219 -92.5t78 -253.5z" />
    <glyph glyph-name="o" unicode="o" horiz-adv-x="1118" 
d="M549 -31q-211 0 -342 145t-131 378q0 252 136.5 408.5t354.5 156.5q212 0 343.5 -144t131.5 -376q0 -255 -136.5 -411.5t-356.5 -156.5zM596 27q119 0 193.5 107t74.5 274q0 150 -42.5 284.5t-122.5 220.5t-179 86q-119 0 -192.5 -107t-73.5 -276q0 -149 42 -283
t121.5 -220t178.5 -86z" />
    <glyph glyph-name="p" unicode="p" horiz-adv-x="1191" 
d="M666 1057q196 0 313 -145.5t117 -372.5q0 -255 -134.5 -412.5t-349.5 -157.5q-149 0 -260 90v-309q0 -64 45 -89t156 -36v-28h-518v28q74 12 110.5 37.5t36.5 87.5v1069q0 81 -31.5 104t-109.5 9v29l283 96h28v-248q30 109 115.5 178.5t198.5 69.5zM623 27
q130 0 210 119.5t80 308.5q0 145 -38 258t-112.5 178t-174.5 65q-81 0 -146.5 -60.5t-89.5 -150.5v-411q0 -57 17.5 -111t50 -98.5t85.5 -71t118 -26.5z" />
    <glyph glyph-name="q" unicode="q" horiz-adv-x="1140" 
d="M989 1057v-1307q0 -33 10.5 -55.5t32.5 -36t45 -20.5t58 -13v-28h-517v28q111 11 156 36t45 89v475q-27 -112 -112.5 -184t-200.5 -72q-197 0 -313.5 145.5t-116.5 372.5q0 256 133.5 413t349.5 157q86 0 164 -33t129 -90l109 123h28zM582 70q86 0 151 62t86 157v403
q0 78 -29.5 146.5t-92.5 114.5t-148 46q-131 0 -211 -119t-80 -307q0 -222 87.5 -362.5t236.5 -140.5z" />
    <glyph glyph-name="r" unicode="r" horiz-adv-x="806" 
d="M639 1057q73 0 115.5 -30t42.5 -81q0 -39 -21.5 -64.5t-56.5 -25.5q-31 0 -52 17t-43 34t-55 17q-79 0 -137.5 -84t-58.5 -207v-479q0 -64 44 -89t154 -36v-29h-516v29q35 6 58.5 13t45.5 20.5t33 36.5t11 55v665q0 81 -32.5 104t-111.5 9v29l285 96h29v-269
q30 128 102.5 198.5t163.5 70.5z" />
    <glyph glyph-name="s" unicode="s" horiz-adv-x="888" 
d="M465 -29q-56 0 -110.5 15.5t-85.5 31.5t-56.5 23.5t-37.5 -8.5t-15 -64h-29l-53 346h28q51 -135 149 -210.5t208 -75.5q95 0 156 50t61 134q0 47 -20.5 84.5t-54.5 62.5t-78.5 46t-93.5 38.5t-98 36.5t-93.5 44.5t-78.5 57.5t-54.5 80.5t-20.5 108.5q0 127 92 206t232 79
q53 0 106 -15.5t83.5 -31t56 -23.5t36 7.5t11.5 62.5h28l51 -318h-28q-53 123 -140.5 191.5t-195.5 68.5q-84 0 -139.5 -47t-55.5 -123q0 -48 25.5 -84.5t67 -58.5t95 -44t108.5 -40t108.5 -46.5t95 -63.5t67 -92t25.5 -130q0 -128 -95.5 -213.5t-256.5 -85.5z" />
    <glyph glyph-name="t" unicode="t" horiz-adv-x="712" 
d="M649 131l17 -10q-11 -28 -36.5 -60.5t-74 -62t-102.5 -29.5q-123 0 -190.5 78t-67.5 219v703h-168v28q247 62 309 297h29v-268h290v-57h-290v-699q0 -97 42 -153.5t123 -53.5q15 0 29 4t23 8t21 13t16.5 13t16 16t13.5 14z" />
    <glyph glyph-name="u" unicode="u" horiz-adv-x="1206" 
d="M1147 131l24 -10q-37 -85 -85.5 -118.5t-92.5 -33.5q-64 0 -111.5 46t-47.5 130v62q-91 -120 -176 -179t-179 -59q-143 0 -220 91t-77 249v510q0 81 -31 104t-110 9v29l283 96h28v-727q0 -112 56 -170t155 -58q75 0 136.5 36.5t134.5 119.5v561q0 81 -32.5 104t-111.5 9
v29l283 96h28v-912q0 -37 17.5 -59.5t44.5 -22.5q45 0 84 68z" />
    <glyph glyph-name="v" unicode="v" horiz-adv-x="1060" 
d="M549 -31h-29l-364 895q-52 124 -148 133v29h453v-29q-86 -6 -115 -38.5t-4 -94.5l254 -647l262 647q50 124 -117 133v29h312v-29q-81 -9 -133 -133z" />
    <glyph glyph-name="w" unicode="w" horiz-adv-x="1644" 
d="M1325 997v29h311v-29q-43 -8 -75 -39t-56 -92l-362 -897h-29l-287 713l-288 -713h-29l-356 893q-47 113 -146 135v29h445v-29q-162 -24 -119 -125l252 -655l213 537l-45 114q-46 111 -142 129v29h443v-29q-161 -25 -117 -131l252 -649l258 651q45 102 -123 129z" />
    <glyph glyph-name="x" unicode="x" horiz-adv-x="1062" 
d="M604 578l281 -426q68 -105 166 -123v-29h-433v29q45 6 68 17t24.5 29.5t-6 35.5t-26.5 45l-195 297l-217 -283q-18 -24 -28.5 -42t-14 -36t4.5 -30t29.5 -20.5t57.5 -12.5v-29h-303v29q94 26 189 149l250 322l-244 372q-43 64 -83.5 91t-88.5 34v29h428v-29
q-36 -2 -57 -9.5t-29 -17t-4.5 -27t11.5 -32t24 -39.5l163 -247l181 233q24 31 35 53t10 41.5t-23 30.5t-65 14v29h305v-29q-47 -6 -92 -38.5t-105 -108.5z" />
    <glyph glyph-name="y" unicode="y" horiz-adv-x="1085" 
d="M766 997v29h311v-29q-88 -9 -143 -137l-389 -979q-24 -63 -55 -116t-73 -99.5t-98.5 -73t-121.5 -26.5q-76 0 -131.5 33t-55.5 86q0 39 25.5 65.5t66.5 26.5q26 0 87.5 -34t109.5 -34q61 0 108 46.5t85 144.5l34 90l-364 870q-52 128 -139 137v29h446v-29
q-171 -12 -119 -137l264 -653l258 653q52 125 -106 137z" />
    <glyph glyph-name="z" unicode="z" horiz-adv-x="960" 
d="M102 1026h789v-29l-631 -940h363q90 0 148 68t93 215h29l-43 -340h-801v29l631 940h-338q-87 0 -143 -57.5t-95 -192.5h-28z" />
    <glyph glyph-name="C.ss04" horiz-adv-x="1349" 
d="M1241 1479l31 -9l-84 -409l-31 2q-14 162 -114 261t-252 99q-208 0 -341 -180t-133 -467q0 -192 70 -346.5t196 -242t283 -87.5q154 0 266 91.5t156 257.5l31 -9q-29 -217 -179.5 -345t-357.5 -128q-146 0 -271 54.5t-211 150.5t-134.5 229.5t-48.5 288.5q0 228 84 408.5
t235 281.5t342 101q84 0 160.5 -19.5t116.5 -38.5t76.5 -29t61 9t48.5 76z" />
    <glyph glyph-name="G.ss04" horiz-adv-x="1484" 
d="M768 -31q-185 0 -334 93t-233 258t-84 370q0 230 86.5 411.5t237 281t337.5 98.5q84 0 162 -19.5t120 -38.5t80.5 -29t64.5 9t50 76l29 -9l-84 -409l-29 2q-15 161 -121 260.5t-259 99.5q-206 0 -341.5 -183t-134.5 -470q1 -201 67.5 -369t185 -267t263.5 -99
q79 0 153.5 25.5t125.5 80.5v377q0 173 -188 182v31h551v-31q-179 -9 -179 -182v-293q-75 -111 -214.5 -183.5t-311.5 -72.5z" />
    <glyph glyph-name="K.ss08" horiz-adv-x="1507" 
d="M600 801l645 -625l41.5 -41.5t39.5 -35t48.5 -36t46 -20.5t56.5 -12v-31h-344q-8 44 -89 129l-595 563v-512q0 -75 39.5 -108t144.5 -43v-29h-555v29q105 10 144.5 43t39.5 108v1090q0 75 -39.5 108t-144.5 43v29h555v-29q-105 -10 -144.5 -43t-39.5 -108v-529l624 553
q69 62 46.5 92.5t-132.5 32.5v31h424v-31q-63 -3 -125 -36.5t-137 -98.5z" />
    <glyph glyph-name="R.ss08" horiz-adv-x="1390" 
d="M692 637l449 -440q91 -85 146 -124t97 -42v-31h-344q-8 32 -28.5 63t-71.5 82l-491 490v-436q0 -98 40 -130t144 -38v-31h-555v31q105 6 144.5 39.5t39.5 128.5v1054q0 94 -40.5 127.5t-143.5 38.5v31h573q256 0 399.5 -107.5t143.5 -298.5q0 -184 -132 -291t-370 -116z
M618 1393h-169v-699h169q178 0 276.5 96t98.5 254q0 159 -98 254t-277 95z" />
    <glyph glyph-name="S.ss10" horiz-adv-x="1112" 
d="M571 -31q-84 0 -160 20.5t-119 41.5t-81.5 33.5t-68.5 -3.5t-60 -69l-29 8l92 442l29 -6q-10 -78 8 -145t57 -114.5t93 -81.5t115 -50t124 -16q132 0 216.5 76.5t84.5 197.5q0 74 -26 131.5t-70.5 95t-101.5 67.5t-120 55t-126.5 50.5t-120.5 59.5t-101.5 77t-70.5 109
t-26 150q0 173 120 278t324 105q70 0 137.5 -19t109 -39t80 -32.5t67.5 2t54 63.5l29 -6l-84 -393l-28 6q2 86 -29 156t-84 113.5t-118 67t-134 23.5q-126 0 -205.5 -69t-79.5 -183q0 -59 22 -107.5t59.5 -81.5t87.5 -62.5t106 -50.5t115.5 -46.5t115.5 -50.5t106 -61.5
t87.5 -79.5t59.5 -106t22 -140q0 -186 -132 -301t-346 -115z" />
    <glyph glyph-name="M.titl" horiz-adv-x="2013" 
d="M1704 1255l86 -1083q6 -70 49.5 -102.5t140.5 -40.5v-29h-544v29q98 9 137 43.5t33 107.5l-84 1061l-588 -1241h-25l-557 1235l-86 -1061q-5 -69 35 -102.5t139 -42.5v-29h-407v29q88 7 128 40.5t46 104.5l90 1086q7 83 -34 117.5t-148 43.5v29h350l528 -1188l563 1188
h330v-29q-107 -11 -148 -46.5t-34 -119.5z" />
    <glyph glyph-name="a.ss01" horiz-adv-x="1185" 
d="M1126 131l25 -10q-19 -45 -43.5 -77t-49 -47t-45.5 -21.5t-40 -6.5q-64 0 -112 46t-48 130v72q-30 -110 -114 -179t-197 -69q-197 0 -313.5 145.5t-116.5 372.5q0 256 133.5 413t347.5 157q87 0 167 -34t130 -91l104 125h29v-912q0 -38 16.5 -60t44.5 -22q43 0 82 68z
M578 70q83 0 147 59.5t88 151.5v411q0 78 -29 146t-92 114.5t-149 46.5q-129 0 -209 -119t-80 -307q0 -222 87.5 -362.5t236.5 -140.5z" />
    <glyph glyph-name="a.ss02" horiz-adv-x="1056" 
d="M997 131l25 -10q-19 -45 -43.5 -77t-49 -47t-45.5 -21.5t-40 -6.5q-64 0 -112 46t-48 130v78q-45 -123 -127.5 -188.5t-187.5 -65.5q-119 0 -199 75t-80 192q0 157 102 243.5t318 108.5l174 16v146q0 118 -62 180.5t-171 62.5q-107 0 -192.5 -67.5t-121.5 -186.5l-28 2
l49 316h26q0 -43 11.5 -57.5t39 -7.5t60 21.5t88 29t109.5 14.5q97 0 177.5 -34t132.5 -108.5t52 -177.5v-592q0 -38 16.5 -60t44.5 -22q43 0 82 68zM455 86q72 0 131 52t98 145v266l-160 -21q-258 -34 -258 -243q0 -85 55 -142t134 -57z" />
    <glyph glyph-name="a.ss03" horiz-adv-x="1069" 
d="M1010 131l24 -10q-19 -45 -43.5 -77t-49 -47t-45.5 -21.5t-40 -6.5q-64 0 -112 46t-48 130v78q-45 -123 -127.5 -188.5t-187.5 -65.5q-119 0 -199 75t-80 192q0 157 102 243.5t320 108.5l172 16v139q0 119 -70.5 186.5t-185.5 67.5q-117 0 -188.5 -78t-77.5 -208l-29 -2
l-51 327l29 6q16 -35 33.5 -49t36 -11.5t47 14t59.5 25.5t80.5 25t103.5 11q101 0 186.5 -35.5t141 -110t55.5 -174.5v-592q0 -38 17 -60t45 -22q43 0 82 68zM469 86q71 0 129.5 52t97.5 145v266l-159 -21q-258 -34 -258 -243q0 -86 55 -142.5t135 -56.5z" />
    <glyph glyph-name="c.ss04" horiz-adv-x="1021" 
d="M563 -29q-208 0 -347.5 150t-139.5 375q0 117 38 222t102.5 179t152 117t182.5 43q60 0 114 -11.5t85.5 -26t59 -27t42.5 -15.5t28 10t23 47l29 -8l-70 -324l-28 7q5 132 -65 211t-198 79q-135 0 -227 -118t-92 -299q0 -130 46.5 -239.5t137.5 -177t209 -67.5
q97 0 172 58t109 159l24 -6q-25 -152 -130 -245t-257 -93z" />
    <glyph glyph-name="d.ss05" horiz-adv-x="1196" 
d="M983 1481v-1274q0 -79 32 -102t111 -11v-28l-284 -97h-29v252q-28 -112 -112.5 -182t-198.5 -70q-197 0 -313.5 145.5t-116.5 372.5q0 256 133.5 413t347.5 157q78 0 147.5 -28.5t112.5 -78.5v293q0 80 -31 102.5t-110 10.5v28l282 97h29zM578 70q84 0 148.5 61.5
t86.5 153.5v407q0 78 -29 146t-92 114.5t-149 46.5q-129 0 -209 -119t-80 -307q0 -222 87.5 -362.5t236.5 -140.5z" />
    <glyph glyph-name="u.ss05" horiz-adv-x="1179" 
d="M1001 207q0 -79 32.5 -102t111.5 -11v-28l-283 -97h-28v238q-91 -120 -176 -179t-179 -59q-143 0 -220 91t-77 249v510q0 81 -31 104t-110 9v29l283 96h28v-727q0 -112 56 -170t155 -58q75 0 136.5 36.5t134.5 119.5v561q0 81 -32.5 104t-111.5 9v29l283 96h28v-850z" />
    <glyph glyph-name="g.ss06" horiz-adv-x="1142" 
d="M860 932l101 119h28v-1096q0 -184 -106 -286.5t-291 -102.5q-112 0 -202 27.5t-142 71.5t-79 92.5t-28 97.5q0 57 36.5 82.5t80.5 15.5q37 -8 53 -41.5t2 -89.5q-20 -73 39.5 -137t188.5 -64t203.5 85.5t74.5 238.5v334q-26 -103 -110 -166.5t-197 -63.5
q-201 0 -318.5 135t-117.5 346q0 236 133.5 381.5t349.5 145.5q91 0 171.5 -33.5t129.5 -91.5zM819 334v387q0 114 -72 198.5t-198 84.5q-131 0 -211 -111t-80 -283q0 -133 38 -239t112.5 -169t173.5 -63q86 0 151 55.5t86 139.5z" />
    <glyph glyph-name="g.ss07" horiz-adv-x="1146" 
d="M850 936l117 121h22v-1182q0 -125 -78 -203t-206 -78h-508v58h446q78 0 127 57.5t49 149.5v366q-27 -112 -112.5 -184t-200.5 -72q-197 0 -313.5 145.5t-116.5 372.5q0 256 133.5 413t349.5 157q86 0 163.5 -32.5t127.5 -88.5zM582 70q86 0 151 62t86 157v403
q0 78 -29.5 146.5t-92.5 114.5t-148 46q-131 0 -211 -119t-80 -307q0 -222 87.5 -362.5t236.5 -140.5z" />
    <glyph glyph-name="k.ss08" horiz-adv-x="1159" 
d="M506 633l444 -498q27 -29 39.5 -41t37.5 -30t54 -25.5t68 -9.5v-29h-328q1 20 -10.5 44t-24 40.5t-36.5 44.5l-383 428v-397q0 -63 31 -92t110 -39v-29h-453v29q80 11 111 39.5t31 91.5v1083q0 79 -31.5 102t-110.5 11v28l283 97h29v-883l405 301q57 43 41 70.5
t-100 27.5v29h385v-29q-62 0 -116 -26.5t-159 -104.5z" />
    <glyph glyph-name="r.ss09" horiz-adv-x="690" 
d="M467 1026h209v-57h-148q-78 0 -127 -57t-49 -150v-602q0 -63 31 -91.5t111 -39.5v-29h-453v29q79 10 110 39t31 92v588q0 125 78 201.5t207 76.5z" />
    <glyph glyph-name="s.ss10" horiz-adv-x="915" 
d="M485 -29q-64 0 -124 17t-94.5 34.5t-66 28.5t-54 -1.5t-42.5 -55.5l-28 6l67 330l27 -4q3 -95 47.5 -164t111.5 -101t146 -32q100 0 158.5 49.5t58.5 134.5q0 47 -20.5 84.5t-54.5 62.5t-78.5 46t-93.5 38.5t-98 36.5t-93.5 44.5t-78.5 57.5t-54.5 80.5t-20.5 108.5
q0 127 92 206t232 79q59 0 116.5 -16.5t92 -34t65.5 -28t50 1.5t32 54l29 -8l-64 -301l-26 4q-13 132 -92.5 201t-188.5 69q-88 0 -144 -47t-56 -123q0 -48 25.5 -84.5t67 -58.5t95 -44t109 -40t109 -46.5t95 -63.5t67 -92t25.5 -130q0 -129 -93 -214t-253 -85z" />
    <glyph glyph-name="t.ss11" horiz-adv-x="616" 
d="M336 969v-738q0 -91 38 -132.5t118 -41.5h79v-57h-141q-129 0 -196.5 62t-67.5 184v723h-146v41q97 33 172.5 106t114.5 178h29v-268h235v-57h-235z" />
    <glyph glyph-name="at.ss12" horiz-adv-x="1712" 
d="M858 1198q157 0 293 -52.5t234 -145t154 -227t56 -292.5q0 -200 -100.5 -330.5t-263.5 -130.5q-96 0 -156.5 47t-60.5 148q-35 -95 -100.5 -145t-149.5 -50q-95 0 -159 60t-64 151q0 127 84.5 196.5t255.5 88.5l133 14v76q0 109 -49 174.5t-134 65.5q-88 0 -127 -53.5
t-24 -114.5q10 -43 -3.5 -70t-41.5 -35q-40 -10 -67.5 11t-26.5 73q0 38 20.5 78t59.5 75.5t103.5 58t143.5 22.5q137 0 216 -79.5t79 -215.5v-367q0 -70 34 -100.5t83 -30.5q115 0 186.5 110t71.5 273q0 145 -52 269t-142.5 210.5t-216 135.5t-269.5 49q-145 0 -272 -53
t-217.5 -146t-142.5 -223t-52 -279q0 -196 93 -357t258 -254t370 -95q182 -3 307 61l21 -51q-146 -66 -328 -63q-221 2 -399.5 102t-278.5 273t-100 384q0 215 96.5 387.5t266 269.5t378.5 97zM842 119q105 0 172 143v223l-121 -18q-203 -29 -203 -191q0 -67 45 -112
t107 -45z" />
    </font>
</defs>
</svg>
