<?xml version="1.0" standalone="no"?>
<!DOCTYPE svg PUBLIC "-//W3C//DTD SVG 1.1//EN" "http://www.w3.org/Graphics/SVG/1.1/DTD/svg11.dtd" >
<svg xmlns="http://www.w3.org/2000/svg" xmlns:xlink="http://www.w3.org/1999/xlink" version="1.1">
<metadata></metadata>
<defs>
<font id="tobias_trialsemibold_italic" horiz-adv-x="716" >
<font-face units-per-em="2048" ascent="1614" descent="-434" />
<missing-glyph horiz-adv-x="419" />
<glyph horiz-adv-x="0" />
<glyph horiz-adv-x="682" />
<glyph unicode=" "  horiz-adv-x="419" />
<glyph unicode="&#x09;" horiz-adv-x="419" />
<glyph unicode="&#xa0;" horiz-adv-x="419" />
<glyph unicode="," horiz-adv-x="475" d="M-98 -281q92 43 164 111t92 150q-75 -26 -131 26t-39 135q13 60 60 101t116 41q86 0 126 -58.5t19 -158.5q-30 -142 -139 -238t-266 -131z" />
<glyph unicode="-" d="M102 518l13 55h512l-13 -55h-512z" />
<glyph unicode="." horiz-adv-x="454" d="M-14 127q8 65 58 110.5t116 45.5q68 0 108.5 -45.5t32.5 -110.5q-7 -66 -58 -111t-116 -45q-66 0 -107 45t-34 111z" />
<glyph unicode="0" horiz-adv-x="1378" d="M132 537q3 98 26 204q33 152 98 285t156 235t212.5 161t256.5 59q112 0 200 -40t142 -110.5t85 -167t29 -211t-26 -241.5q-45 -207 -143 -372.5t-248.5 -267.5t-327.5 -102q-95 0 -172.5 28t-132 78.5t-91 121t-52 156.5t-12.5 184zM422.5 411q0.5 -178 51 -281 t142.5 -103q113 0 219.5 166t161.5 430q48 240 48 417.5t-51 280t-144 102.5q-111 0 -217.5 -166t-163.5 -428q-47 -240 -46.5 -418z" />
<glyph unicode="1" horiz-adv-x="800" d="M-63 0l6 29q135 10 187 42t67 109l219 1028h-219l6 29q169 44 290 98t230 133h29l-275 -1288q-17 -77 16 -108.5t130 -42.5l-7 -29h-679z" />
<glyph unicode="2" horiz-adv-x="1187" d="M-31 0l15 49q36 131 101.5 237.5t143 177t164.5 131.5t170.5 115t155 111.5t125 137.5t74.5 178q26 124 -29.5 205t-171.5 81q-146 0 -232 -86t-69 -215q7 -65 -24.5 -107.5t-86.5 -51.5q-71 -12 -107.5 31t-17.5 122q28 156 185 260.5t358 104.5q252 0 377 -116t86 -304 q-21 -100 -77 -181.5t-132.5 -138t-166 -103.5t-186 -87.5t-184 -80t-168 -92t-129.5 -112.5h586q112 0 199.5 51t148.5 185l29 -2l-168 -500h-969z" />
<glyph unicode="3" horiz-adv-x="1185" d="M8 266q-10 63 20.5 122t92.5 75q54 13 90.5 -1t47 -58.5t-25.5 -124.5q-8 -32 -9.5 -66t13.5 -67.5t39 -60t67 -42.5t97 -16q115 0 209.5 86t126.5 241q36 175 -61 266.5t-305 88.5l8 49q190 33 319 136t162 259q26 121 -19 195.5t-145 74.5q-131 0 -212 -89.5 t-79 -209.5q4 -65 -28.5 -105t-87.5 -46q-69 -9 -103.5 31.5t-19.5 109.5q14 68 64 135t121 118t162.5 82.5t182.5 31.5q229 0 343.5 -95.5t86.5 -250.5q-24 -132 -161.5 -233t-348.5 -134q212 -5 332 -123.5t80 -300.5q-23 -110 -112.5 -195.5t-224.5 -132.5t-290 -47 q-171 0 -293 82t-139 215z" />
<glyph unicode="4" horiz-adv-x="1277" d="M14 393l6 29l861 1057h227l-209 -983h19q93 0 182 86.5t155 234.5h29l-143 -424h-262l-31 -143q-26 -118 1.5 -163.5t129.5 -57.5l-6 -29h-680l6 29q122 14 183 61.5t85 159.5l31 143h-584zM147 496h474l165 784z" />
<glyph unicode="5" horiz-adv-x="1157" d="M11.5 258.5q17.5 47.5 60.5 71.5q55 29 106 -1t58 -110q13 -189 188 -192q116 -1 203 93.5t121 254.5q35 167 -25 276t-191 109q-160 0 -305 -123l-45 27l269 786h553q116 0 163 102h29l-31 -344h-737l-164 -479q183 180 383 180q102 0 186 -39t135.5 -107.5t72 -162 t-4.5 -203.5q-42 -194 -206 -311t-408 -117q-144 0 -263 50.5t-147 140.5q-18 51 -0.5 98.5z" />
<glyph unicode="6" horiz-adv-x="1265" d="M152 711q42 187 121 334.5t182 242t224 144t253 49.5q99 0 191 -38t130 -104q35 -31 50 -69.5t10 -72t-26 -60.5t-54 -37q-71 -22 -118 16t-50 123q2 84 -39 134t-119 50q-119 0 -249 -185.5t-201 -481.5q148 182 336 182q130 0 225.5 -66.5t136 -186t10.5 -265.5 q-41 -192 -197 -321.5t-374 -129.5q-281 0 -399 200t-43 542zM414 466q-4 -112 10 -212t60 -163.5t118 -63.5q90 0 171 104.5t114 257.5q37 174 -23 291t-188 117q-131 0 -236 -111q-22 -108 -26 -220z" />
<glyph unicode="7" horiz-adv-x="1107" d="M160 995l155 455h969l-6 -29q-374 -386 -554 -713.5t-230 -707.5h-312q51 312 245.5 589t600.5 619h-545q-101 0 -165.5 -48.5t-129.5 -164.5h-28z" />
<glyph unicode="8" horiz-adv-x="1292" d="M49 348q26 122 129.5 206t304.5 153q-35 21 -62.5 40t-56.5 44t-49.5 50t-37.5 56.5t-25 65t-8 75t10 86.5q32 151 183.5 254t369.5 103q116 0 210.5 -28t152 -74.5t82.5 -108.5t10 -129q-24 -112 -132 -191t-268 -116q38 -20 61 -32.5t58 -34t56 -38t48 -41.5t42 -48 t30 -54.5t20 -64t4.5 -72.5t-10.5 -84q-35 -169 -201 -282.5t-417 -113.5q-257 0 -397.5 108t-106.5 271zM307 360q-32 -148 39 -240.5t207 -92.5q116 0 200.5 68t106.5 169q16 74 1.5 132t-71.5 109.5t-93.5 76t-128.5 75.5q-27 15 -40 23q-173 -93 -221 -320zM558.5 1155 q-0.5 -32 7 -59.5t19 -51t31 -45.5t39 -39.5t48 -36t52 -32t56.5 -31.5q163 73 203 266q28 135 -32.5 216t-174.5 81q-90 0 -155.5 -57t-84.5 -143q-8 -36 -8.5 -68z" />
<glyph unicode="9" horiz-adv-x="1265" d="M40.5 253.5q5.5 33.5 26.5 60t54 36.5q71 22 118 -16t48 -123q0 -84 41 -134t118 -50q120 0 250 186t201 483q-150 -184 -338 -184q-129 0 -224.5 66.5t-136 186t-10.5 265.5q27 124 103.5 225.5t199.5 163.5t269 62q279 0 398 -200t44 -542q-43 -187 -122 -334.5 t-181.5 -242t-223.5 -144t-253 -49.5q-100 0 -193 38t-129 104q-35 32 -50 70.5t-9.5 72zM467 1063q-37 -175 22.5 -291.5t186.5 -116.5q132 0 237 111q21 109 25 220t-10 211t-59 163t-117 63q-90 0 -171 -104t-114 -256z" />
<glyph unicode="A" horiz-adv-x="1581" d="M-100 0l6 29q73 1 137.5 54.5t142.5 176.5l781 1221h28l271 -1221q28 -123 74 -176t126 -55l-6 -29h-651l6 29q117 1 157 50q24 30 25 85q0 35 -10 80l-47 223h-559l-143 -223q-56 -90 -56 -140q0 -14 4 -24q20 -48 140 -51l-7 -29h-419zM418 524h510l-129 606z" />
<glyph unicode="B" horiz-adv-x="1449" d="M-39 -2l6 31q108 12 154 44.5t61 106.5l232 1090q6 26 6 46q0 38 -21 60q-32 32 -135 45l6 29l670 2q234 0 358 -108q96 -84 97 -206q0 -36 -9 -75q-26 -119 -137 -197.5t-272 -95.5q197 -18 295 -128q72 -81 72 -192q0 -40 -9 -83q-36 -166 -186 -266.5t-379 -100.5z M463 172q-3 -14 -3 -26q0 -35 23 -58q31 -31 109 -31h78q139 0 242 91.5t135 242.5q10 46 10 87q0 93 -51 157q-73 92 -224 92h-200zM594 784h164q126 0 218 80t124 223q9 42 9 79q0 84 -45 144q-64 86 -196 85h-145z" />
<glyph unicode="C" horiz-adv-x="1447" d="M152 440q-13 64 -13 132q0 83 19 173q32 154 111 289.5t191 234t259 155.5t307 57q63 0 120.5 -11.5t91.5 -25.5t66 -24.5t52.5 -11.5t41.5 16t42 57h28l-38 -445h-29q-19 181 -118 284t-259 103q-192 0 -347.5 -164.5t-211.5 -441.5q-19 -106 -19 -201v-18 q2 -102 33 -188t81.5 -148t126 -96.5t167.5 -34.5q152 0 272 93.5t201 267.5l31 -7q-77 -238 -254 -377t-408 -139q-140 0 -256.5 60t-188 164.5t-99.5 246.5z" />
<glyph unicode="D" horiz-adv-x="1603" d="M-39 0l6 29q108 12 154 44.5t61 106.5l232 1090q6 26 6 46q0 38 -21 60q-32 32 -135 45l6 29h629q182 0 317.5 -48t219.5 -142q82 -95 108 -236q10 -57 11 -121q0 -95 -23 -207q-67 -316 -303 -506t-586 -190h-682zM463 182q-4 -21 -4 -38q0 -87 100 -87h72 q205 0 377 185t235 471q24 116 24 215q0 168 -69 282q-110 184 -346 183h-131z" />
<glyph unicode="E" horiz-adv-x="1292" d="M-39 0l6 29q108 12 154 44.5t61 106.5l232 1090q6 26 6 46q0 38 -21 60q-32 32 -135 45l6 29h914q113 0 135 31h29l-23 -428h-29q-6 182 -80.5 261t-240.5 79h-254l-133 -621h211q183 0 213 217h28l-43 -489h-28v7q0 208 -168 208h-226l-112 -535q-6 -27 -6 -48 q1 -30 13 -47q20 -28 87 -28h162q161 0 270.5 81t188.5 259h28l-135 -397h-1110z" />
<glyph unicode="F" horiz-adv-x="1261" d="M-39 0l6 29q108 12 154 44.5t61 106.5l232 1090q6 26 6 46q0 38 -21 60q-32 32 -135 45l6 29h914q111 0 135 31h29l-23 -428h-29q-8 182 -82 261t-239 79h-254l-133 -621h211q183 0 213 217h28l-43 -489h-28v7q0 208 -168 208h-226l-112 -535q-5 -22 -5 -41q0 -44 30 -66 q42 -32 186 -44l-6 -29h-707z" />
<glyph unicode="G" horiz-adv-x="1546" d="M162 758q30 148 113 281t199 230.5t264 154.5t302 57q61 0 118 -11.5t91 -25.5t66 -25t53 -12t42.5 16.5t41.5 57.5h27l-39 -445h-29q-63 387 -385 387q-181 0 -343.5 -175.5t-217.5 -442.5q-27 -148 -27 -272q0 -70 8 -132q25 -171 112.5 -268.5t217.5 -97.5 q129 0 203 69l88 404q7 30 7 56q0 50 -24 82q-37 50 -126 54l6 31h641l-8 -31q-179 -12 -217 -192l-58 -258q-106 -127 -260 -204t-321 -77q-195 0 -336 103.5t-197 285.5q-32 101 -32 213q0 90 20 187z" />
<glyph unicode="H" horiz-adv-x="1693" d="M-39 0l6 29q108 12 154 44.5t61 106.5l232 1090q6 26 6 46q0 38 -21 60q-32 32 -135 45l6 29h645l-6 -29q-107 -12 -153.5 -44.5t-61.5 -106.5l-106 -498h624l105 498q6 26 6 46q0 38 -21 60q-32 32 -135 45l7 29h645l-7 -29q-107 -12 -153.5 -44.5t-61.5 -106.5 l-231 -1090q-6 -25 -6 -45q0 -39 22 -61q32 -33 134 -45l-7 -29h-645l6 29q108 12 154 44.5t61 106.5l115 535h-625l-112 -535q-6 -25 -6 -45q-1 -39 21 -61q32 -33 134 -45l-6 -29h-645z" />
<glyph unicode="I" horiz-adv-x="790" d="M-39 0l6 29q108 12 154 44.5t61 106.5l232 1090q6 26 6 46q0 38 -21 60q-32 32 -135 45l6 29h645l-6 -29q-107 -12 -153.5 -44.5t-61.5 -106.5l-231 -1090q-6 -25 -6 -45q-1 -39 21 -61q32 -33 134 -45l-6 -29h-645z" />
<glyph unicode="J" horiz-adv-x="1163" d="M-8 285q14 62 54 99.5t97 37.5q62 0 92 -38q21 -26 21 -65q0 -17 -4 -36q-3 -18 -15.5 -51.5t-15.5 -49.5q-3 -15 -3 -29q0 -48 36 -81q45 -43 125 -43q176 0 237 284l201 957q6 26 6 46q0 39 -21 60q-32 33 -134 45l6 29h645l-6 -29q-107 -12 -153.5 -44.5t-61.5 -106.5 l-183 -862q-45 -212 -192 -325.5t-367 -113.5q-78 0 -149 21t-125 59t-80 99q-16 39 -16 83q0 26 6 54z" />
<glyph unicode="K" horiz-adv-x="1566" d="M-39 0l6 29q108 12 154 44.5t61 106.5l232 1090q6 26 6 46q0 38 -21 60q-32 32 -135 45l6 29h645l-6 -29q-107 -12 -153.5 -44.5t-61.5 -106.5l-119 -563l695 583q53 43 53 75q0 9 -3 15q-16 36 -118 39l6 31h443l-6 -31q-68 -5 -152 -44t-162 -105l-348 -295l264 -768 q24 -74 81.5 -122t125.5 -54l-8 -31h-459q4 17 4 38q0 51 -22 128l-209 629l-203 -174l-94 -441q-6 -25 -6 -45q-1 -39 21 -61q32 -33 134 -45l-6 -29h-645z" />
<glyph unicode="L" horiz-adv-x="1265" d="M-39 0l6 29q108 12 154 44.5t61 106.5l232 1090q6 26 6 46q0 38 -21 60q-32 32 -135 45l6 29h645l-6 -29q-107 -12 -153.5 -44.5t-61.5 -106.5l-231 -1090q-6 -27 -6 -48q1 -30 13 -47q20 -28 87 -28h154q162 0 270 80.5t190 259.5h29l-137 -397h-1102z" />
<glyph unicode="M" horiz-adv-x="1955" d="M-39 0l6 29q108 12 154 44.5t61 106.5l232 1090q6 26 6 47q0 39 -21 61q-32 33 -133 43l6 29h398l268 -1108l741 1108l404 -2l-6 -29q-109 -12 -155.5 -44t-61.5 -107l-232 -1090q-5 -24 -5 -43q-1 -41 21 -63q32 -32 136 -45l-6 -29h-648l7 29q108 13 154 45t63 106 l213 1004l-793 -1182h-27l-290 1184l-213 -1004q-5 -24 -5 -44q0 -40 21 -62q31 -32 133 -45l-6 -29h-422z" />
<glyph unicode="N" horiz-adv-x="1517" d="M-39 0l6 29q108 12 154 44.5t61 106.5l232 1090q6 26 6 47q0 39 -20 61q-32 33 -134 43l6 29h375l539 -1028l180 848q5 24 5 44q0 40 -21 62q-31 32 -133 45l6 29h422l-7 -29q-107 -12 -153.5 -44.5t-61.5 -106.5l-270 -1270h-39l-653 1217l-221 -1037q-5 -24 -5 -44 q0 -40 21 -62q31 -32 133 -45l-6 -29h-422z" />
<glyph unicode="O" horiz-adv-x="1671" d="M154 430q-15 66 -15 138q0 82 19 173q41 208 163.5 377.5t298 266t369.5 96.5q163 0 294 -57t211 -159q80 -101 112 -243q15 -67 15 -140q0 -82 -19 -171q-41 -208 -163.5 -378t-299.5 -267t-371 -97q-163 0 -293.5 57t-209.5 159.5t-111 244.5zM450 538v-15 q0 -101 19 -187q21 -92 61 -162q38 -70 102 -109q62 -38 140 -38h4q177 3 315.5 184.5t194.5 474.5q22 116 24 226v14q0 102 -20 188q-21 92 -61 162q-39 68 -103 108q-62 39 -141 39h-4q-177 0 -314.5 -181.5t-193.5 -477.5q-21 -116 -23 -226z" />
<glyph unicode="P" horiz-adv-x="1347" d="M-39 0l6 29q108 11 154 43.5t63 117.5l230 1072q6 29 6 52q0 44 -21 64q-32 32 -135 43l6 29h619q275 0 409 -112q101 -85 102 -223q0 -45 -11 -95q-37 -180 -211 -286.5t-443 -106.5h-178l-92 -437q-6 -31 -6 -55q0 -43 20 -63q32 -32 133 -43l-6 -29h-645zM569 684h113 q164 0 274.5 100.5t141.5 247.5q10 48 10 91q0 99 -52 169q-75 102 -247 101h-88z" />
<glyph unicode="Q" horiz-adv-x="1671" d="M158 741q41 208 163.5 377.5t298 266t369.5 96.5q163 0 294 -57t211 -159t112 -243q15 -67 15 -140q0 -82 -19 -171q-41 -208 -163.5 -378t-299.5 -267t-371 -97h-4q7 -75 37 -131.5t73.5 -89t102.5 -51t117 -23.5q31 -2 65 -2q30 0 62 2l2 -26q-122 -50 -250 -50h-3 q-130 1 -235 45.5t-171.5 141.5t-65.5 229h6q-208 77 -303 272q-61 126 -61 279q0 84 18 176zM450 538q-1 -8 -1 -15q0 -101 20 -187q21 -93 60.5 -162.5t102.5 -108.5q62 -38 140 -38h4q177 3 315.5 184.5t194.5 474.5q22 116 24 226v14q0 101 -20 188q-21 92 -61 161.5 t-103 108.5q-62 39 -141 39h-4q-177 0 -314.5 -181.5t-193.5 -477.5q-22 -117 -23 -226z" />
<glyph unicode="R" horiz-adv-x="1527" d="M-39 0l6 29q108 11 154 43.5t63 117.5l230 1072q6 29 6 52q0 44 -21 64q-32 32 -135 43l6 29h627q273 0 405 -114q100 -86 100 -222q0 -44 -11 -94q-30 -139 -137.5 -231.5t-278.5 -131.5l225 -483q25 -56 74 -90.5t137 -54.5l-6 -29h-473q4 21 4 41q0 41 -16 80 l-220 506h-143l-92 -437q-6 -31 -6 -55q0 -43 20 -63q32 -32 133 -43l-6 -29h-645zM569 684h105q168 0 279 96.5t145 251.5q10 49 10 92q0 98 -50 168q-72 102 -241 101h-96z" />
<glyph unicode="S" horiz-adv-x="1249" d="M68 -31l28 500h29q54 -226 160.5 -333t275.5 -107q103 0 180.5 62t100.5 167q8 43 8 79q0 11 -1 21q-3 44 -21.5 79.5t-44.5 63.5t-62.5 51.5t-74.5 43.5t-81 40q-42 19 -63.5 30t-59.5 32t-58 36.5t-50 42t-44.5 50.5t-30.5 59q-17 34 -21 70q-3 27 -3 60q1 10 1 22 q2 46 12 99q31 151 175 247.5t349 96.5q74 0 137 -12.5t97.5 -27.5t64 -27.5t47 -12.5t35.5 18t39 62h29l-25 -449h-29q-33 186 -138 288.5t-257 102.5q-101 0 -172.5 -57.5t-93.5 -153.5q-8 -34 -8 -65q0 -25 6 -47q12 -50 42.5 -85t75 -66.5t97 -54.5t107.5 -51.5 t106.5 -57t94 -70.5t69.5 -92q28 -49 36 -121q2 -20 2 -42q0 -55 -14 -118q-35 -167 -189.5 -270t-369.5 -103q-82 0 -152 15.5t-108 34.5t-70 34.5t-51 16t-39 -22t-45 -78.5h-28z" />
<glyph unicode="T" horiz-adv-x="1308" d="M133 1053l160 428h29q13 -31 122 -31h816q113 0 135 31h28l-22 -428h-29q-3 340 -299 340h-94l-256 -1213q-5 -24 -5 -44q0 -38 18 -60q28 -34 134 -45l-8 -31h-639l8 31q75 8 119.5 28t63 47.5t28.5 73.5l258 1213h-94q-146 0 -254 -82.5t-190 -257.5h-29z" />
<glyph unicode="U" horiz-adv-x="1536" d="M221 504l162 766q6 26 6 46q0 38 -21 60q-32 32 -135 45l7 29h645l-6 -29q-107 -12 -153.5 -44.5t-61.5 -106.5l-162 -766q-16 -74 -16 -138q0 -113 50 -193q78 -126 248 -126q171 0 297.5 125t169.5 332l164 766q5 24 5 43q0 41 -22 63q-32 32 -134 45l6 29h424l-6 -29 q-108 -12 -154 -44.5t-61 -106.5l-164 -766q-51 -245 -206 -390t-372 -145q-293 1 -429 141q-97 100 -97 257q0 64 16 137z" />
<glyph unicode="V" horiz-adv-x="1581" d="M203 1421l6 29h649l-6 -29q-120 -2 -158 -51q-23 -29 -22 -82q0 -36 10 -82l188 -884l562 884q57 91 57 140q-1 14 -5 24q-20 48 -141 51l7 29h419l-6 -29q-72 -1 -136 -54.5t-144 -176.5l-781 -1221h-28l-271 1221q-28 123 -74 176t-126 55z" />
<glyph unicode="W" horiz-adv-x="2252" d="M203 1419l6 31h629l-7 -31q-105 0 -137 -51q-20 -31 -20 -84q0 -34 8 -78l137 -833l400 686l-31 153q-22 101 -62.5 154t-113.5 53l6 31h631l-7 -31q-107 0 -139 -51q-20 -33 -20 -90q0 -32 6 -72l139 -833l496 833q56 90 56 141q0 11 -3 21q-15 52 -123 51l6 31h381 l-6 -31q-65 0 -126 -53.5t-134 -175.5l-733 -1221h-27l-180 1010l-602 -1010h-27l-223 1221q-22 115 -62 172t-118 57z" />
<glyph unicode="X" horiz-adv-x="1519" d="M-102 0l6 29q100 11 158 46.5t133 112.5l491 512l-229 551q-34 87 -74 123t-137 47l6 29h682l-6 -29q-112 -12 -162 -50q-32 -25 -32 -61q0 -19 9 -40l160 -385l365 385q46 48 46 82q0 55 -124 69l6 29h442l-6 -29q-70 -8 -122.5 -30t-85.5 -49.5t-83 -79.5l-415 -433 l262 -630q19 -44 32.5 -67.5t37 -47.5t57.5 -36.5t84 -18.5l-6 -29h-680l6 29q110 12 159 51q32 25 32 60q0 19 -9 40l-192 463l-441 -463q-45 -45 -45 -79q1 -11 5 -21q20 -40 120 -51l-6 -29h-444z" />
<glyph unicode="Y" horiz-adv-x="1480" d="M201 1421l6 29h659l-6 -29q-110 -12 -154 -49q-28 -24 -28 -60q0 -20 8 -42l201 -590l416 590q38 50 38 83q0 11 -4 20q-17 36 -116 48l6 29h436l-6 -29q-108 -12 -175 -48.5t-118 -110.5l-440 -623l-97 -457q-5 -24 -5 -43q0 -38 18 -61q29 -34 133 -47l-6 -31h-639 l8 31q75 9 119.5 29.5t63 48t28.5 73.5l86 406l-232 663q-15 45 -27 70t-33.5 48t-54.5 34.5t-85 17.5z" />
<glyph unicode="Z" horiz-adv-x="1275" d="M-59 0l6 31l1085 1362h-309q-165 0 -273.5 -79t-193.5 -261h-29l160 428h29q11 -31 123 -31h868l-6 -31l-1088 -1362h373q165 0 273.5 79t193.5 261h29l-160 -428h-29q-11 31 -123 31h-929z" />
<glyph unicode="a" horiz-adv-x="1161" d="M49 268q62 284 522 328l144 14l22 109q12 59 12 108q1 61 -19 105q-36 80 -134 80q-104 0 -156 -62q-50 -59 -49 -134v-9v-12q-1 -63 -29 -99q-32 -40 -86 -49q-15 -3 -28 -3q-42 0 -70 29q-24 25 -24 65q0 20 6 44q11 50 47 99t94 92t146.5 69.5t191.5 26.5 q201 -1 297 -103q71 -75 70 -186q0 -40 -9 -86l-108 -510q-4 -19 -4 -34q1 -20 7 -34q12 -24 40 -24q46 0 100 74l25 -10q-115 -187 -271 -187q-66 1 -119 47q-49 43 -49 116v11l13 62q-129 -236 -340 -236q-128 -1 -198 85q-51 62 -51 148q0 31 7 66zM324 307 q-5 -24 -5 -46q-1 -47 23 -83q34 -50 104 -51q105 0 193 129l63 295l-120 -14q-214 -30 -258 -230z" />
<glyph unicode="b" horiz-adv-x="1214" d="M33 -31l264 1248q6 29 6 51q0 32 -14 48q-19 21 -65 20q-11 0 -23 -1l6 29l385 117h29l-138 -645q49 101 142.5 167t199.5 66q197 -1 283 -163q51 -98 52 -230q0 -89 -23 -193q-50 -235 -212.5 -374.5t-389.5 -139.5q-84 0 -160.5 30.5t-114.5 80.5l-199 -111h-28z M371 307q-8 -43 -8 -82q-1 -65 23 -117q38 -82 130 -81q110 0 205 124.5t137 317.5q19 96 19 177t-20 144t-66 98.5t-115 35.5q-61 0 -117.5 -42t-87.5 -108z" />
<glyph unicode="c" horiz-adv-x="1060" d="M80 571q45 208 221.5 353t392.5 145q67 0 124 -13.5t84 -27.5t50 -20.5t36.5 6.5t29.5 55h29l-33 -369h-29q-17 148 -88 230t-176 82q-123 0 -225.5 -114t-139.5 -292q-15 -64 -15 -123q-1 -29 3 -57q10 -86 43.5 -149.5t96.5 -101.5t145 -38q97 0 178 53.5t133 153.5 l27 -6q-61 -169 -181 -268t-292 -99q-147 0 -254 75q-108 75 -152 213q-25 76 -24 164q0 70 16 148z" />
<glyph unicode="d" horiz-adv-x="1267" d="M78 555q50 229 222 371.5t402 142.5q59 0 112 -19.5t87 -52.5l47 220q5 28 5 48q-1 35 -15 51q-19 20 -64 20q-11 0 -24 -1l6 29l385 117h29l-275 -1297q-5 -20 -5 -35q0 -18 6 -32q12 -25 40 -25q49 0 103 74l24 -10q-115 -187 -270 -187q-69 0 -121 48q-48 45 -47 123 v12l10 57q-47 -103 -142 -171.5t-204 -68.5q-195 0 -281 164q-52 99 -52 233q0 87 22 189zM339 395q2 -83 21.5 -145t65.5 -98.5t113 -36.5q61 0 117 40.5t89 104.5l101 467q7 46 7 87q0 26 -3 52q-8 64 -47.5 105t-102.5 41q-111 0 -206.5 -124.5t-135.5 -316.5 q-19 -85 -19 -161v-15z" />
<glyph unicode="e" horiz-adv-x="1083" d="M80 573q45 209 219 351.5t395 142.5q214 1 298 -119q50 -71 50 -173q0 -69 -24 -152h-658q-14 -70 -15 -133q-1 -28 3 -56q10 -88 41 -154.5t93 -104.5t147 -38q89 0 172 55t133 146l27 -6q-63 -171 -179 -267t-288 -96q-153 0 -261 79q-109 78 -149 216q-21 73 -21 155 q0 74 17 154zM373 674h399q19 76 19 146q-1 4 -1 10q-2 74 -36.5 127t-94.5 53q-100 0 -176 -94.5t-110 -241.5z" />
<glyph unicode="f" horiz-adv-x="1030" d="M-29 0l6 29q77 14 113 40.5t49 86.5l176 825h-172l13 57h172l16 72q27 102 81 180.5t124.5 124.5t149 69t161.5 23t155.5 -16.5t124.5 -58.5q48 -39 48 -94v-9q-1 -65 -44 -102q-40 -35 -98 -35h-6q-52 1 -79 27.5t-33.5 64.5t-12 75.5t-25 64t-61.5 26.5 q-52 0 -98.5 -50.5t-76.5 -124t-46 -159.5l-14 -78h285l-13 -57h-284l-176 -825q-4 -19 -4 -35q0 -38 24 -55q33 -24 133 -37l-6 -29h-582z" />
<glyph unicode="g" horiz-adv-x="1134" d="M-61 -238q0 163 223 220q-70 24 -96 82q-16 37 -16 81q0 24 5 50q14 70 70 127.5t147 93.5q-74 47 -107 123q-20 46 -20 101q0 36 9 77q32 149 174 250.5t338 101.5q52 0 112 -2t98 -3.5t80 -1.5q9 -1 17 -1q31 0 52 2q26 2 52.5 7.5t42.5 16t28 27.5t19 41h25l-21 -186 q-80 0 -294 47q105 -44 143 -127q25 -52 25 -112q0 -36 -9 -75q-33 -150 -173.5 -250t-336.5 -100q-125 0 -221 45q-70 -39 -84 -98q-2 -12 -2 -23q0 -51 49 -72q31 -13 74 -13q42 0 96 12l82 18q97 19 175 19q53 0 98 -9q110 -22 159 -102q32 -52 32 -123q0 -37 -9 -80 q-32 -158 -206 -259t-415 -101q-199 0 -307 52.5t-108 143.5zM127 -221q14 -72 89 -115t196 -43q147 0 251.5 61t124.5 160q5 21 5 39q0 69 -65 104q-50 27 -123 27q-49 0 -107 -12l-82 -18q-93 -16 -153 -16q-35 0 -58 5q-80 -82 -80 -166q0 -13 2 -26zM416 588 q6 -83 43 -134t96 -51q70 0 124.5 66.5t78.5 175.5q17 79 17 146q0 65 -17 119q-33 108 -119 108q-70 0 -128 -67t-81 -173q-16 -81 -16 -149q0 -21 2 -41z" />
<glyph unicode="h" horiz-adv-x="1249" d="M-63 0l6 29q75 12 108 40.5t45 90.5l223 1057q7 30 7 52q0 31 -14 47q-19 21 -66 20q-11 0 -23 -1l6 29l385 117h29l-137 -645q109 113 202.5 172t188.5 59q146 -1 208 -95q40 -61 41 -148q0 -48 -13 -105l-117 -559q-6 -25 -6 -45q0 -29 12 -45q20 -28 88 -41l-6 -29 h-514l6 29q75 12 108.5 40.5t45.5 90.5l114 536q8 34 8 63q0 51 -24 85q-38 52 -113 53q-60 0 -113 -29t-130 -92l-130 -616q-6 -25 -6 -44q0 -28 13 -46q21 -28 88 -41l-6 -29h-514z" />
<glyph unicode="i" horiz-adv-x="618" d="M-63 0l6 29q75 12 108 40.5t45 90.5l137 643q6 30 6 52q0 33 -14 48q-20 22 -70 22q-10 0 -20 -1l6 28l385 117h29l-193 -909q-6 -25 -6 -44q0 -28 13 -46q21 -28 88 -41l-6 -29h-514zM293 1356q8 69 62.5 116.5t129.5 47.5t119 -48q38 -40 38 -95q0 -10 -1 -21 q-9 -71 -64 -118.5t-128 -47.5q-75 0 -119 48q-38 40 -38 97q0 10 1 21z" />
<glyph unicode="j" horiz-adv-x="630" d="M-188 -410q56 22 94.5 46.5t79.5 70.5t71.5 123t53.5 188l168 785q6 29 6 51q0 33 -15 49q-20 22 -70 22q-9 0 -20 -1l6 28l385 117h29l-203 -954q-23 -107 -59.5 -186.5t-102 -152t-169.5 -124.5t-250 -86zM326 1356q8 69 62.5 116.5t129.5 47.5t120 -48q37 -40 37 -95 q0 -10 -1 -21q-9 -71 -64.5 -118.5t-128.5 -47.5q-75 0 -119 48q-37 40 -37 97q0 10 1 21z" />
<glyph unicode="k" horiz-adv-x="1220" d="M-63 0l6 29q75 12 108 40.5t45 90.5l223 1057q7 30 7 52q0 31 -14 47q-19 21 -66 20q-11 0 -23 -1l6 29l385 117h29l-203 -953l457 346q64 44 64 83v5q-5 42 -87 48l7 28h413l-6 -28q-84 -10 -151.5 -42.5t-173.5 -109.5l-154 -119l166 -579q20 -63 48.5 -93.5 t82.5 -37.5l-6 -29h-406q5 17 5 40q0 41 -17 99l-121 420l-137 -106l-62 -293q-6 -25 -6 -44q0 -28 13 -46q21 -28 88 -41l-6 -29h-514z" />
<glyph unicode="l" horiz-adv-x="618" d="M-63 0l6 29q75 12 108 40.5t45 90.5l223 1057q7 30 7 52q0 31 -14 47q-19 21 -66 20q-11 0 -23 -1l6 29l385 117h29l-281 -1321q-6 -25 -6 -44q0 -28 13 -46q21 -28 88 -41l-6 -29h-514z" />
<glyph unicode="m" horiz-adv-x="1906" d="M-63 0l6 29q75 12 108 40.5t45 90.5l137 643q6 30 6 52q0 33 -14 48q-20 22 -70 22q-10 0 -20 -1l6 28l385 117h29l-49 -233q220 231 391 231q123 -1 189 -65q63 -62 63 -169v-10q233 244 403 244q149 0 210 -94q40 -61 40 -150q0 -48 -12 -104l-119 -559q-4 -23 -4 -41 q1 -31 13 -49q20 -28 87 -41l-6 -29h-514l6 29q73 12 106.5 40.5t45.5 90.5l117 542q7 31 7 57q0 50 -24 85q-36 53 -114 53q-60 0 -116 -29t-130 -92q-2 -16 -10 -57l-119 -559q-4 -23 -4 -41q0 -31 12 -49q20 -28 88 -41l-6 -29h-514l6 29q74 12 107 40.5t47 90.5l114 542 q7 31 7 58q0 49 -23 84q-35 53 -113 53q-60 0 -115 -28.5t-128 -90.5l-132 -618q-6 -25 -6 -44q0 -28 13 -46q21 -28 88 -41l-6 -29h-514z" />
<glyph unicode="n" horiz-adv-x="1249" d="M-63 0l6 29q75 12 108 40.5t45 90.5l137 643q6 30 6 52q0 33 -14 48q-20 22 -70 22q-10 0 -20 -1l6 28l385 117h29l-49 -231q112 115 203 172t186 57q148 0 210 -95q40 -61 40 -149q0 -48 -12 -104l-117 -559q-6 -25 -6 -45q0 -29 12 -45q20 -28 88 -41l-6 -29h-514l6 29 q75 12 108.5 40.5t45.5 90.5l114 536q7 33 7 61q0 51 -23 86q-36 54 -115 54q-58 0 -112 -28.5t-127 -90.5l-132 -618q-6 -25 -6 -44q0 -28 13 -46q21 -28 88 -41l-6 -29h-514z" />
<glyph unicode="o" horiz-adv-x="1185" d="M74 543q40 226 210.5 376t393.5 150q111 0 201.5 -41t150.5 -114q60 -74 82 -182q11 -55 10 -114q0 -58 -10 -122q-40 -226 -211.5 -376.5t-394.5 -150.5q-110 0 -200.5 41t-149.5 115q-60 74 -82 182q-11 55 -11 114t11 122zM338 426q0 -16 -1 -32q-1 -83 13 -159 q16 -90 61 -149t113 -59q100 0 177 100.5t120 286.5q21 92 24 194v33q-1 84 -13 161q-16 91 -60.5 150.5t-112.5 59.5q-98 0 -176 -104t-121 -292q-21 -89 -24 -190z" />
<glyph unicode="p" horiz-adv-x="1257" d="M-158 -403l6 28q77 15 113 40.5t47 86.5l225 1051q5 28 5 49q0 35 -15 52q-20 21 -69 21q-10 0 -21 -1l6 28l387 117h29l-49 -231q49 100 142.5 165.5t199.5 65.5q129 0 214 -75t109 -204q10 -53 10 -114q0 -87 -20 -189q-51 -239 -213 -378.5t-391 -139.5q-62 0 -124 20 t-95 52l-64 -289q-4 -19 -4 -34q0 -37 22 -54q32 -25 138 -39l-6 -28h-582zM393 309q-10 -46 -10 -86q0 -63 23 -113q39 -83 133 -83q110 0 205 124t135 316q19 101 19 185q0 23 -2 44q-6 102 -57.5 165t-140.5 63q-60 0 -116.5 -41.5t-89.5 -106.5z" />
<glyph unicode="q" horiz-adv-x="1196" d="M80 565q45 219 217.5 361.5t400.5 142.5q81 0 148 -29t106 -79l199 108h29l-281 -1317q-3 -19 -3 -35q0 -35 16 -53q25 -25 96 -39l-7 -28h-581l6 28q111 14 153.5 39t55.5 88l94 451q-49 -102 -142 -168t-200 -66q-192 0 -278 166q-52 100 -52 235q0 90 23 195zM339 346 q6 -104 57.5 -167.5t140.5 -63.5q60 0 116.5 41.5t87.5 105.5l101 471q7 44 7 83q0 28 -3 54q-9 62 -48.5 102t-101.5 40q-109 0 -204 -123t-134 -309q-20 -106 -20 -193q0 -21 1 -41z" />
<glyph unicode="r" horiz-adv-x="935" d="M-63 0l6 29q78 14 114 40.5t49 86.5l138 647q6 29 6 51q0 33 -14 49q-21 22 -71 22q-10 0 -20 -1l7 28l385 117h28l-65 -311q61 147 163.5 229t198.5 82q78 0 120 -39q30 -28 31 -69q0 -16 -5 -35q-14 -58 -52 -90q-36 -31 -80 -31h-6q-29 1 -49 13.5t-29 26t-27.5 25 t-45.5 11.5q-77 0 -153 -86t-103 -211l-92 -428q-3 -17 -3 -31q0 -39 22 -57q32 -26 136 -39l-6 -29h-583z" />
<glyph unicode="s" horiz-adv-x="950" d="M20 -31l23 381h29q32 -152 120 -237.5t211 -85.5q78 0 133 39.5t70 105.5q5 24 5 46q0 30 -9 54q-16 44 -52 71.5t-83.5 54t-99 48.5t-98.5 54t-80.5 70t-46.5 97q-6 26 -6 57q0 37 9 79q26 124 132 195t255 71q61 0 118 -17t88 -34t58 -25t43.5 8.5t28.5 67.5h29 l-20 -348h-29q-34 136 -114 213.5t-189 77.5q-69 0 -117.5 -36t-60.5 -95q-4 -20 -5 -38q0 -23 8 -44q12 -37 41 -61.5t68.5 -48t84 -42.5t88.5 -45t82 -55.5t63.5 -73.5t33.5 -99q3 -18 3 -39q0 -42 -11 -93q-27 -129 -138.5 -201t-270.5 -72q-73 0 -135 17t-92 34.5 t-56.5 25.5t-44 -8.5t-37.5 -68.5h-29z" />
<glyph unicode="t" horiz-adv-x="788" d="M123 981l6 29q155 45 275.5 127t189.5 192h29l-62 -291h279l-13 -57h-278l-146 -684q-9 -38 -9 -71q0 -44 16 -76q25 -53 92 -52h10q72 5 141 64l13 -15q-53 -69 -132.5 -123.5t-164.5 -54.5q-138 -1 -201 87q-43 59 -43 145q0 40 10 86l150 694h-162z" />
<glyph unicode="u" horiz-adv-x="1286" d="M123 319l102 484q6 30 6 52q0 33 -14 48q-20 22 -70 22q-10 0 -20 -1l6 28l387 117h29l-156 -729q-7 -34 -8 -62q0 -50 23 -84q35 -53 114 -53q59 0 114.5 28.5t125.5 88.5l117 545q5 27 5 48q0 37 -16 53q-20 21 -69 21q-10 0 -21 -1l6 28l387 117h29l-188 -885 q-4 -18 -4 -33q0 -20 7 -34q12 -25 40 -25q46 0 100 74l25 -10q-35 -58 -75 -98.5t-77.5 -58t-64.5 -24t-52 -6.5q-70 -1 -122 47q-47 43 -47 118q0 9 1 18l9 51q-111 -116 -203.5 -174t-188.5 -58q-146 0 -208 95q-40 62 -41 150q0 48 12 103z" />
<glyph unicode="v" horiz-adv-x="1110" d="M115 1010l6 28h524l-6 -28q-140 -15 -140 -112q0 -18 5 -38l112 -559l355 559q31 49 31 82q0 58 -95 68l6 28h299l-6 -28q-83 -15 -172 -150l-573 -891h-29l-201 891q-29 135 -116 150z" />
<glyph unicode="w" horiz-adv-x="1738" d="M115 1010l6 28h518l-6 -28q-77 -10 -111 -46q-27 -29 -28 -67q0 -10 2 -20l110 -572l291 457l-23 104q-27 128 -110 144l6 28h518l-6 -28q-78 -10 -112 -50q-26 -31 -26 -69q0 -12 3 -25l108 -563l359 563q22 34 22 63q0 16 -8 30q-20 39 -88 51l6 28h295l-6 -28 q-46 -9 -84.5 -42.5t-81.5 -101.5l-571 -897h-29l-158 723l-465 -723h-24l-193 887q-32 139 -114 154z" />
<glyph unicode="x" horiz-adv-x="1173" d="M-92 0l6 29q49 9 101.5 43t129.5 106l316 303l-185 416q-24 53 -54.5 79.5t-80.5 33.5l6 28h500l-6 -28q-49 -4 -73 -17.5t-25 -33.5t10 -46l117 -262l215 207q32 30 50.5 56t22.5 46.5t-11.5 33.5t-49.5 16l6 28h301l-6 -28q-52 -7 -105 -42.5t-139 -115.5l-262 -252 l203 -461q23 -53 54.5 -78.5t82.5 -31.5l-4 -29h-508l6 29q72 11 92 38q9 12 9 27q0 18 -13 39l-133 301l-270 -262q-38 -38 -53 -67t-1.5 -50t60.5 -26l-6 -29h-303z" />
<glyph unicode="y" horiz-adv-x="1150" d="M-160 -289q12 58 57.5 98.5t104.5 40.5q35 0 98 -33.5t115 -33.5q54 0 99.5 34.5t91.5 108.5l32 49l-207 883q-34 137 -110 152l6 28h520l-6 -28q-140 -15 -140 -114q0 -17 5 -38l121 -588l379 588q32 50 32 84q0 57 -88 68l6 28h297l-6 -28q-90 -15 -178 -152l-614 -954 q-26 -43 -53.5 -81t-72 -87.5t-89.5 -85t-104.5 -60t-119.5 -24.5q-92 0 -142 40q-37 31 -37 76q0 14 3 29z" />
<glyph unicode="z" horiz-adv-x="1044" d="M-59 0l6 29l782 952h-242q-188 0 -329 -272h-29l98 329h863l-7 -28l-780 -953h275q87 0 173.5 76t155.5 229h29l-113 -362h-882z" />
<glyph unicode="&#xad;" d="M102 518l13 55h512l-13 -55h-512z" />
<glyph unicode="&#x2000;" horiz-adv-x="776" />
<glyph unicode="&#x2001;" horiz-adv-x="1552" />
<glyph unicode="&#x2002;" horiz-adv-x="776" />
<glyph unicode="&#x2003;" horiz-adv-x="1552" />
<glyph unicode="&#x2004;" horiz-adv-x="517" />
<glyph unicode="&#x2005;" horiz-adv-x="388" />
<glyph unicode="&#x2006;" horiz-adv-x="258" />
<glyph unicode="&#x2007;" horiz-adv-x="258" />
<glyph unicode="&#x2008;" horiz-adv-x="194" />
<glyph unicode="&#x2009;" horiz-adv-x="310" />
<glyph unicode="&#x200a;" horiz-adv-x="86" />
<glyph unicode="&#x2010;" d="M102 518l13 55h512l-13 -55h-512z" />
<glyph unicode="&#x2011;" d="M102 518l13 55h512l-13 -55h-512z" />
<glyph unicode="&#x2012;" d="M102 518l13 55h512l-13 -55h-512z" />
<glyph unicode="&#x2013;" horiz-adv-x="1215" d="M102 518l25 55h999l-25 -55h-999z" />
<glyph unicode="&#x2014;" horiz-adv-x="2239" d="M102 518l51 55h1997l-51 -55h-1997z" />
<glyph unicode="&#x202f;" horiz-adv-x="310" />
<glyph unicode="&#x205f;" horiz-adv-x="388" />
<glyph unicode="&#x25fc;" horiz-adv-x="1034" d="M0 0v1034h1034v-1034h-1034z" />
</font>
</defs>
</svg>
