<?xml version="1.0" standalone="no"?>
<!DOCTYPE svg PUBLIC "-//W3C//DTD SVG 1.1//EN" "http://www.w3.org/Graphics/SVG/1.1/DTD/svg11.dtd" >
<svg xmlns="http://www.w3.org/2000/svg" xmlns:xlink="http://www.w3.org/1999/xlink" version="1.1">
<metadata></metadata>
<defs>
<font id="tobias_triallight_italic" horiz-adv-x="716" >
<font-face units-per-em="2048" ascent="1614" descent="-434" />
<missing-glyph horiz-adv-x="460" />
<glyph horiz-adv-x="0" />
<glyph horiz-adv-x="682" />
<glyph unicode=" "  horiz-adv-x="460" />
<glyph unicode="&#x09;" horiz-adv-x="460" />
<glyph unicode="&#xa0;" horiz-adv-x="460" />
<glyph unicode="," horiz-adv-x="415" d="M-80 -260q199 102 236 250q-29 -20 -62.5 -20t-58.5 16t-38 48t-5 70q11 46 47 76.5t86 30.5q67 0 97 -49t11 -133q-45 -219 -311 -312z" />
<glyph unicode="-" d="M104 518l13 53h512l-13 -53h-512z" />
<glyph unicode="." horiz-adv-x="403" d="M-10 90q6 50 45 85.5t88 35.5q51 0 83.5 -35.5t26.5 -85.5q-6 -51 -45 -86t-90 -35q-50 0 -82 35t-26 86z" />
<glyph unicode="0" horiz-adv-x="1265" d="M149 446.5q-12 145.5 25 315.5q44 204 138 368t222.5 258.5t266.5 94.5q119 0 209.5 -60.5t138.5 -167t60 -251.5t-25 -314q-44 -205 -138.5 -369.5t-223.5 -259t-267 -94.5q-119 0 -209 60.5t-137.5 167t-59.5 252zM298.5 410q11.5 -177 81 -281t181.5 -104 q145 0 277.5 171.5t187.5 432.5q45 234 34 411t-81 281t-184 104q-145 0 -276 -171.5t-187 -432.5q-45 -234 -33.5 -411z" />
<glyph unicode="1" horiz-adv-x="673" d="M-59 0l6 29q133 3 187.5 35.5t78.5 136.5l223 1050h-227l6 29q122 30 207 70t158 104h28l-266 -1253q-8 -37 -9.5 -63.5t5.5 -45.5t18.5 -30.5t32.5 -18.5t43.5 -10t56.5 -4l-6 -29h-542z" />
<glyph unicode="2" horiz-adv-x="1052" d="M-45 0l10 47q19 83 66.5 158.5t109 133t137 116t150.5 107.5t149.5 107.5t135 116t106 133t62.5 158.5q34 154 -31 250t-203 96q-150 0 -243 -82.5t-80 -218.5q4 -44 -13 -69.5t-51 -28.5q-39 -6 -59.5 20t-14.5 68q15 160 150.5 264.5t310.5 104.5q209 0 311 -115 t64 -303q-18 -89 -65.5 -170t-110.5 -142.5t-140.5 -121t-156.5 -106.5t-158 -97t-144 -94.5t-116 -98.5t-74 -108h535q45 0 72 2t58 9.5t51.5 22t45 40.5t46 64t46.5 93l29 -6l-131 -350h-854z" />
<glyph unicode="3" horiz-adv-x="1050" d="M2 268q0 40 18 70.5t54 36.5q43 6 61 -17.5t4 -81.5q-19 -106 45 -177.5t219 -71.5q146 0 253 88.5t139 234.5q39 187 -73.5 285t-342.5 92l12 37q188 17 321.5 113.5t164.5 240.5q30 139 -26.5 222t-176.5 83q-131 0 -223 -84t-103 -211q-6 -85 -76 -88q-35 -1 -52 23.5 t-11 64.5q15 97 86.5 179t173 128t205.5 46q186 0 280.5 -100t59.5 -267q-20 -104 -135 -203.5t-263 -138.5q78 -8 144.5 -39.5t114 -86t65 -129.5t-1.5 -169q-36 -167 -179.5 -273t-355.5 -106q-171 0 -288 87t-113 212z" />
<glyph unicode="4" horiz-adv-x="1177" d="M18 399l7 29l911 1053h70l-213 -1002h30q204 0 328 293h29l-136 -373h-268l-39 -182q-22 -106 9.5 -145.5t138.5 -42.5l-6 -29h-570l6 29q134 5 202.5 45t90.5 143l39 182h-629zM135 479h531l170 809z" />
<glyph unicode="5" horiz-adv-x="1103" d="M18 233q-6 36 6.5 63.5t41.5 39.5q33 14 61 -5.5t29 -66.5q2 -115 67.5 -176t212.5 -61q145 0 255 104t147 275q38 183 -38 302t-233 119q-100 0 -177.5 -32.5t-158.5 -94.5l-32 13l262 737h551q43 0 69 24t41 76h29l-14 -221h-658l-188 -528q43 32 67 48t67 38.5 t90 32.5t103 10q203 0 307.5 -149t55.5 -371q-43 -197 -192.5 -319t-352.5 -122q-174 0 -288.5 75.5t-129.5 188.5z" />
<glyph unicode="6" horiz-adv-x="1163" d="M131.5 417.5q-6.5 140.5 36.5 313.5q39 160 97 288.5t125 213.5t145.5 141.5t156.5 81.5t160 25q126 0 225.5 -64.5t122.5 -171.5q20 -33 9.5 -75t-48.5 -52q-42 -11 -71.5 16t-26.5 85q6 99 -62 151.5t-172 52.5q-50 0 -101.5 -19.5t-110.5 -68.5t-111.5 -124 t-103 -195.5t-87.5 -272.5q-13 -59 -16 -77q162 239 389 239q133 0 228 -65.5t132.5 -181.5t8.5 -259q-40 -186 -181 -308t-321 -122q-133 0 -227.5 54t-142 154t-54 240.5zM286 312q19 -131 89.5 -208t181.5 -77q121 0 223.5 104.5t134.5 261.5q37 179 -39 297.5 t-231 118.5q-96 0 -189.5 -50t-164.5 -143q-24 -173 -5 -304z" />
<glyph unicode="7" horiz-adv-x="1007" d="M174 1073l137 377h873l-6 -29q-366 -418 -543.5 -745.5t-228.5 -675.5h-152q54 332 234.5 638.5t549.5 690.5h-544q-97 0 -163.5 -58t-127.5 -198h-29z" />
<glyph unicode="8" horiz-adv-x="1163" d="M59 369q52 246 449 383q-30 17 -54 33.5t-49 36t-44 40t-36.5 44.5t-28 51t-17 57t-5.5 65.5t9 73.5q31 146 162.5 238t306.5 92q209 0 315.5 -101.5t73.5 -259.5q-22 -106 -141 -199t-283 -128q40 -21 61.5 -33t58 -33.5t57 -37.5t49 -41t43.5 -47.5t31 -53.5 t21.5 -62.5t5 -70.5t-9.5 -82q-35 -162 -183 -264.5t-351 -102.5q-236 0 -357.5 109.5t-83.5 292.5zM197 371q-34 -159 52.5 -252.5t250.5 -93.5q143 0 252 80.5t137 207.5q16 73 1.5 130.5t-71.5 108.5t-94.5 75t-128.5 74q-38 21 -57 32q-87 -38 -151 -82t-102 -92 t-58.5 -92.5t-30.5 -95.5zM423 1114.5q0 -28.5 4.5 -52.5t15.5 -47t24 -41.5t32.5 -37.5t38.5 -34t45 -31.5t48 -29t51 -28.5q283 105 326 309q31 148 -43 225.5t-213 77.5q-116 0 -206.5 -70.5t-115.5 -180.5q-7 -31 -7 -59.5z" />
<glyph unicode="9" horiz-adv-x="1163" d="M44 281q10 41 48 51q42 11 71.5 -16t26.5 -85q-6 -99 62 -151.5t172 -52.5q50 0 101.5 19.5t110.5 68.5t112 124t104 196t88 274q13 58 16 79q-162 -243 -391 -243q-133 0 -227.5 65.5t-132 181.5t-8.5 259q40 186 180.5 308t320.5 122q133 0 227.5 -54t142 -154 t54 -240.5t-36.5 -313.5q-48 -199 -124.5 -347.5t-168.5 -234.5t-189.5 -127t-201.5 -41q-126 0 -225.5 64.5t-120.5 171.5q-21 35 -11 76zM338 1059q-37 -180 39.5 -298t230.5 -118q97 0 191 50t168 145q39 259 -32.5 422t-236.5 163q-123 0 -224.5 -103.5t-135.5 -260.5z " />
<glyph unicode="A" horiz-adv-x="1456" d="M-96 0l6 29q73 0 128 45.5t128 163.5l752 1243h28l225 -1245q22 -116 59 -161.5t111 -45.5l-6 -29h-524l6 29q149 0 199 41q36 29 37 92q0 25 -6 55l-48 272h-620l-164 -272q-44 -72 -44 -114q0 -20 10 -33q30 -41 171 -41l-6 -29h-442zM414 547h575l-131 737z" />
<glyph unicode="B" horiz-adv-x="1300" d="M-29 0l6 29q107 9 155 42t65 109l231 1090q6 26 6 46q0 41 -22 63q-34 33 -138 42l7 29h548q207 0 320 -106q86 -81 86 -195q0 -35 -8 -74q-27 -128 -132 -209.5t-261 -105.5q187 -22 279 -128q67 -78 68 -185q0 -39 -10 -82q-36 -165 -179.5 -265t-356.5 -100h-664z M330 201q-4 -21 -4 -38q0 -43 23 -69q33 -38 140 -37h127q159 0 270.5 86.5t141.5 227.5q10 45 10 84q0 105 -68 175q-92 96 -278 95h-250zM453 782h243q150 0 254 76t135 223q7 37 7 69q0 94 -62 158q-84 85 -248 85h-198z" />
<glyph unicode="C" horiz-adv-x="1384" d="M150 488l-2 48q0 94 20 197q46 214 162 384t284 267t357 97q64 0 126 -15t97.5 -30.5t67.5 -23t53 8t37 60.5h28l-24 -400h-29q-35 342 -395 342q-208 0 -377 -176t-229 -452q-22 -112 -22 -212v-23q3 -110 37 -202.5t89 -158.5t135 -103t174 -37q156 0 288.5 97.5 t213.5 265.5l29 -6q-75 -207 -245.5 -328t-367.5 -121q-106 0 -197.5 38.5t-156 107.5t-106 164.5t-47.5 210.5z" />
<glyph unicode="D" horiz-adv-x="1482" d="M-29 0l6 29q107 9 155 42t65 109l231 1090q6 26 6 46q0 41 -22 63q-34 33 -138 42l7 29h563q327 0 480 -196q104 -133 104 -337q0 -96 -23 -208q-33 -151 -107.5 -280.5t-180.5 -225t-247 -149.5t-299 -54h-600zM330 203q-6 -29 -6 -52q0 -39 16 -60q26 -34 102 -34h136 q167 0 308.5 84t238 234t139.5 348q23 108 23 200q-1 175 -83 291q-126 178 -407 179h-213z" />
<glyph unicode="E" horiz-adv-x="1249" d="M-29 0l6 29q107 9 155 42t65 109l231 1090q6 26 6 46q0 41 -22 63q-34 33 -138 42l7 29h911q79 0 92 31h29l-21 -396h-28q-2 164 -58.5 236t-185.5 72h-436l-133 -621h301q89 0 132 46.5t58 158.5h29l-29 -465h-29q-6 109 -41.5 156t-111.5 47h-322l-108 -514 q-7 -34 -7 -60q0 -32 11 -51q19 -33 82 -33h364q114 0 200.5 76t154.5 234h28l-133 -367h-1059z" />
<glyph unicode="F" horiz-adv-x="1214" d="M-29 0l6 29q107 9 155 42t65 109l231 1090q6 26 6 46q0 41 -22 63q-34 33 -138 42l7 29h909q79 0 92 31h29l-21 -396h-28q-2 165 -57.5 236.5t-184.5 71.5h-436l-133 -621h301q89 0 132 46.5t58 158.5h29l-29 -465h-29q-6 109 -41.5 156t-111.5 47h-322l-112 -535 q-5 -23 -5 -42q1 -46 31 -68q44 -32 189 -41l-6 -29h-564z" />
<glyph unicode="G" horiz-adv-x="1462" d="M168 737q45 208 164 378t290 268t359 98q63 0 123 -15.5t94.5 -30.5t65.5 -23t52 7.5t38 61.5h28l-24 -400h-27q-44 342 -381 342q-140 0 -271 -83t-225 -227t-132 -320q-21 -114 -21 -215q0 -93 18 -174q37 -168 146 -268.5t262 -100.5q104 0 183.5 28.5t152.5 98.5 l76 362q6 28 6 51q0 120 -160 123l6 31h498l-6 -31q-92 -3 -144 -46t-71 -128l-68 -311q-207 -244 -522 -244q-186 0 -319 102.5t-184 278.5q-27 95 -27 200q0 90 20 187z" />
<glyph unicode="H" horiz-adv-x="1558" d="M-29 0l6 29q107 9 155 42t65 109l231 1090q6 26 6 46q0 41 -22 63q-34 33 -138 42l7 29h501l-6 -29q-107 -9 -154.5 -41.5t-64.5 -109.5l-104 -496h766l104 496q6 26 6 46q-1 41 -23 63q-34 33 -137 42l7 29h501l-6 -29q-107 -9 -154.5 -41.5t-64.5 -109.5l-231 -1090 q-6 -26 -6 -46q1 -41 23 -63q34 -33 136 -42l-6 -29h-502l6 29q107 9 155 42t65 109l114 537h-766l-114 -537q-6 -26 -6 -46q0 -41 22 -63q34 -33 137 -42l-6 -29h-502z" />
<glyph unicode="I" horiz-adv-x="663" d="M-29 0l6 29q107 9 155 42t65 109l231 1090q6 26 6 46q0 41 -22 63q-34 33 -138 42l7 29h501l-6 -29q-107 -9 -154.5 -41.5t-64.5 -109.5l-231 -1090q-6 -26 -6 -46q0 -41 22 -63q34 -33 137 -42l-6 -29h-502z" />
<glyph unicode="J" horiz-adv-x="989" d="M-18 266q8 40 30 63t54 23q33 0 48.5 -20.5t8.5 -55.5q-4 -17 -15 -43.5t-14 -42.5q-2 -12 -2 -23q0 -53 50 -93q61 -47 159 -47q110 0 187.5 81t113.5 250l193 912q6 25 6 46q0 41 -23 63q-34 33 -139 42l6 29h504l-6 -29q-107 -9 -155.5 -42t-65.5 -109l-183 -869 q-46 -216 -164 -324t-288 -108q-141 0 -233 86q-76 70 -76 166q0 22 4 45z" />
<glyph unicode="K" horiz-adv-x="1464" d="M-29 0l6 29q107 9 155 42t65 109l231 1090q6 26 6 46q0 41 -22 63q-34 33 -138 42l7 29h501l-6 -29q-107 -9 -154.5 -41.5t-64.5 -109.5l-131 -615l727 639q35 31 49.5 51.5t9 37t-38.5 25t-96 11.5l6 31h435l-7 -31q-148 -13 -276 -129l-455 -399l332 -735 q53 -122 240 -125l-9 -31h-329v9q0 44 -33 128l-301 670l-272 -240l-82 -387q-6 -26 -6 -46q0 -41 22 -63q34 -33 137 -42l-6 -29h-502z" />
<glyph unicode="L" horiz-adv-x="1218" d="M-29 0l6 29q107 9 155 42t65 109l231 1090q6 26 6 46q0 41 -22 63q-34 33 -138 42l7 29h501l-6 -29q-107 -9 -154.5 -41.5t-64.5 -109.5l-227 -1069q-7 -34 -7 -60q0 -32 11 -51q19 -33 82 -33h346q115 0 201 75.5t155 234.5h29l-135 -367h-1041z" />
<glyph unicode="M" horiz-adv-x="1859" d="M-29 0l6 29q107 9 155 42t65 109l231 1092q6 27 6 48q0 41 -22 63q-32 33 -133 36l6 31h278l281 -1272l848 1272h288l-6 -29q-108 -9 -156 -41.5t-65 -109.5l-231 -1090q-6 -25 -6 -46q0 -41 23 -63q34 -33 138 -42l-6 -29h-504l7 29q107 9 155.5 42t65.5 109l227 1073 l-836 -1253h-28l-277 1245l-227 -1065q-6 -26 -6 -48q0 -42 22 -62q32 -32 136 -41l-7 -29h-428z" />
<glyph unicode="N" horiz-adv-x="1503" d="M-29 0l6 29q107 9 155 42t65 109l231 1092q6 27 6 49q0 41 -21 63q-32 34 -134 37l6 29h243l584 -1247l227 1067q6 27 6 48q0 40 -21 62q-32 32 -136 41l6 29h430l-6 -29q-107 -9 -155.5 -42t-65.5 -109l-271 -1270h-51l-594 1253l-227 -1073q-6 -26 -6 -48q0 -42 22 -62 q32 -32 136 -41l-7 -29h-428z" />
<glyph unicode="O" horiz-adv-x="1568" d="M166 721q39 216 153.5 390t279 272t347.5 98q195 0 334 -97q140 -96 196 -268q33 -101 32 -217q0 -80 -15 -168q-39 -216 -152.5 -390.5t-278.5 -273t-349 -98.5q-195 0 -333.5 97t-195.5 269q-34 102 -34 219q0 80 16 167zM313 733q-13 -85 -13 -163q0 -106 24 -200 q42 -162 150 -254q104 -89 249 -89h10q219 6 392.5 201t220.5 489q12 83 12 160q0 107 -24 202q-42 163 -149 255q-104 90 -249 89h-10q-145 -2 -275 -92t-219 -247t-119 -351z" />
<glyph unicode="P" horiz-adv-x="1212" d="M-29 0l6 29q106 3 155.5 38.5t70.5 135.5l223 1046q8 37 8 65q0 47 -22 69q-35 35 -138 38l7 29h503q242 0 374 -114q102 -88 102 -222q0 -41 -9 -86q-36 -171 -194.5 -278t-390.5 -107h-242l-94 -440q-8 -40 -8 -70q0 -47 21 -67q35 -34 136 -37l-6 -29h-502zM436 700 h228q174 0 294 93t152 237q8 40 8 76q0 111 -76 187q-101 100 -284 100h-174z" />
<glyph unicode="Q" horiz-adv-x="1568" d="M166 721q39 216 153.5 390t279 272t347.5 98q195 0 334 -96.5t196 -268.5q33 -101 33 -217q0 -81 -16 -168q-39 -216 -152.5 -390.5t-278.5 -273t-349 -98.5q-12 0 -34 1t-32 1q7 -78 38 -134.5t75 -87.5t102 -45q57 -15 113 -15q2 0 4 1q58 0 121 11l-4 -31 q-84 -26 -168 -28h-13q-76 0 -143 20q-73 23 -130.5 66.5t-93 114t-40.5 159.5q-201 68 -295 262q-63 130 -63 290q0 80 16 167zM313 733q-13 -85 -13 -163q0 -107 24 -200q43 -163 150 -254q104 -89 249 -89h10q219 6 392.5 201t220.5 489q12 83 12 160q0 107 -24 202 q-42 162 -149 255q-104 89 -249 89h-10q-145 -2 -275 -92t-219 -247t-119 -351z" />
<glyph unicode="R" horiz-adv-x="1386" d="M-29 0l6 29q106 3 155.5 38.5t70.5 135.5l223 1046q8 37 8 65q0 47 -22 69q-35 35 -138 38l7 29h522q235 0 361 -116q96 -89 96 -220q0 -41 -9 -86q-69 -318 -483 -375l283 -524q52 -93 223 -98l-6 -31h-326q1 9 1 17q0 47 -19 83l-285 543h-215l-94 -440q-8 -40 -8 -70 q0 -47 21 -67q35 -34 136 -37l-6 -29h-502zM436 700h209q183 0 305 84.5t158 245.5q9 43 9 82q1 106 -67 180q-92 101 -274 101h-192z" />
<glyph unicode="S" horiz-adv-x="1120" d="M47 -31l27 447h28q18 -183 128 -284t280 -101q129 0 223.5 73t120.5 193q9 43 11 81v10q1 32 -11 62q-14 34 -20 56.5t-39.5 51t-42.5 39.5t-57 38t-55.5 30.5t-63.5 31.5q-45 22 -67.5 34t-63 35.5t-61 42.5t-49 47.5t-41 59.5t-23.5 70q-9 33 -9 72v14q2 47 14 102 q27 130 143 218.5t281 88.5q72 0 136.5 -16t98 -32.5t62.5 -24t47.5 8t36.5 64.5h29l-20 -400h-29q-6 165 -106.5 253.5t-254.5 88.5q-126 0 -208.5 -66t-104.5 -175q-8 -36 -8 -67q1 -7 1 -15q2 -38 13 -69t31 -57t46 -47.5t57 -41t64.5 -36.5t69.5 -35q42 -20 63.5 -31 t59.5 -33t58.5 -37.5t50 -42t44.5 -50.5t31 -58q18 -34 22 -70q4 -29 3 -65v-16q-1 -45 -12 -96q-32 -155 -162 -250.5t-309 -95.5q-76 0 -141 14t-101 31.5t-67.5 31.5t-49.5 14.5t-36 -20t-39 -71.5h-29z" />
<glyph unicode="T" horiz-adv-x="1261" d="M143 1085l146 396h28q5 -31 82 -31h865q76 0 92 31h28l-20 -396h-29q-1 164 -58.5 236t-180.5 72h-215l-252 -1192q-8 -38 -8 -67q-1 -44 19 -66q32 -34 138 -39l-6 -29h-502l6 29q107 5 155 39.5t71 132.5l252 1192h-213q-124 0 -211 -72.5t-158 -235.5h-29z" />
<glyph unicode="U" horiz-adv-x="1468" d="M229 514l160 756q6 26 6 47q0 41 -22 63q-33 32 -137 41l6 29h501l-6 -29q-107 -9 -154.5 -41.5t-64.5 -109.5l-160 -756q-16 -75 -16 -140q0 -124 58 -210q90 -132 282 -133q188 0 322 131t180 352l162 756q5 24 5 43q1 45 -23 67q-34 32 -138 41l6 29h432l-6 -29 q-108 -9 -156 -42t-63 -109l-162 -756q-52 -249 -209 -397t-362 -148q-264 1 -380 145q-79 98 -78 248q0 70 17 152z" />
<glyph unicode="V" horiz-adv-x="1456" d="M207 1421l6 29h524l-6 -29q-149 0 -199 -41q-36 -29 -36 -92q0 -25 6 -55l190 -1067l641 1067q44 72 44 114q0 20 -10 33q-30 41 -171 41l6 29h443l-7 -29q-73 0 -128 -45.5t-128 -163.5l-751 -1243h-29l-225 1245q-22 116 -59 161.5t-111 45.5z" />
<glyph unicode="W" horiz-adv-x="2166" d="M207 1421l6 29h489l-6 -29q-134 1 -178 -41q-33 -31 -33 -98q0 -22 4 -49l142 -1040l573 1026l-10 47q-15 82 -47 118.5t-94 36.5l6 29h489l-6 -29q-134 1 -178 -41q-33 -31 -33 -98q0 -22 4 -49l142 -1040l585 1040q29 52 39 85t-0.5 57.5t-49 35t-107.5 10.5l6 29h405 l-6 -29q-66 0 -117.5 -46t-117.5 -163l-707 -1243h-27l-163 1161l-656 -1161h-26l-179 1245q-16 112 -47.5 159.5t-101.5 47.5z" />
<glyph unicode="X" horiz-adv-x="1376" d="M-100 0l6 29q42 4 76.5 14t57 20t49.5 33.5t40.5 37.5t44.5 48l500 553l-238 531q-18 41 -31 63t-36 44t-57 33t-85 15l6 29h525l-6 -29q-111 -9 -161 -47q-32 -25 -32 -61q0 -20 10 -43l195 -436l391 436q39 45 39 77q0 15 -8 27q-26 38 -131 47l6 29h444l-6 -29 q-52 -4 -90 -15t-70 -33.5t-52 -43t-56 -61.5l-440 -492l264 -592q15 -32 24.5 -49.5t26.5 -39t36.5 -33t50 -20.5t71.5 -13l-7 -29h-524l6 29q109 9 159 49q33 26 33 61q0 19 -9 41l-224 500l-448 -500q-39 -43 -39 -75q0 -15 9 -27q27 -40 132 -49l-6 -29h-446z" />
<glyph unicode="Y" horiz-adv-x="1337" d="M203 1421l6 29h508l-6 -29q-109 -9 -154 -46q-30 -24 -30 -63q0 -19 8 -42l210 -602l439 602q34 46 34 78q0 15 -8 28q-26 36 -131 45l6 29h443l-6 -29q-104 -9 -160.5 -42.5t-112.5 -110.5l-479 -656l-86 -409q-8 -51 -8 -83t20.5 -51.5t51 -27.5t83.5 -10l-6 -31h-501 l8 31q107 5 154.5 39.5t68.5 132.5l84 399l-236 664q-27 80 -65 113.5t-135 41.5z" />
<glyph unicode="Z" horiz-adv-x="1138" d="M-66 0l7 31l1146 1362h-471q-129 0 -215 -71.5t-157 -236.5h-29l145 396h29q5 -31 80 -31h809l-6 -31l-1149 -1362h530q129 0 215.5 72t157.5 236h29l-146 -396h-28q-5 31 -80 31h-867z" />
<glyph unicode="a" horiz-adv-x="1019" d="M55 262q61 280 471 322l199 18l16 84q10 49 10 92q1 77 -33 131q-52 84 -171 84q-128 -1 -193 -61q-63 -59 -63 -141v-5v-9q0 -91 -60 -101q-33 -8 -55 16q-15 17 -15 45q0 12 3 27q6 35 24 72t52 76t78.5 69.5t109 50t139.5 19.5q164 -1 243 -101q55 -70 54 -170 q0 -45 -10 -96l-119 -561q-7 -36 5 -56t40 -20q42 0 92 64l23 -11q-87 -131 -176 -131q-54 0 -82 38q-20 27 -20 67q0 17 4 37l26 125q-156 -267 -356 -267q-122 0 -192 84q-51 61 -51 144q0 31 7 65zM180 270q-5 -24 -5 -46q0 -59 35 -102q48 -59 134 -59q162 0 313 222 l56 262l-191 -23q-151 -17 -235 -80t-107 -174z" />
<glyph unicode="b" horiz-adv-x="1097" d="M43 -31l274 1291q6 32 6 54q-1 37 -17 50q-14 11 -46 11q-29 0 -72 -9l7 29l254 86h28l-147 -690q54 116 158.5 188t220.5 72q197 0 278 -156q48 -92 48 -221q0 -89 -23 -195q-47 -228 -199 -369t-350 -141q-100 0 -182 41t-113 107l-96 -148h-29zM231 328q-4 -27 -4 -53 q0 -29 5 -57q10 -52 37.5 -95.5t81.5 -69.5t126 -26q143 0 256.5 122t155.5 326q18 96 18 176q0 47 -6 87q-16 112 -83.5 175.5t-176.5 63.5q-95 0 -186 -72.5t-138 -177.5z" />
<glyph unicode="c" horiz-adv-x="983" d="M77 313q-6 39 -6 81q0 77 19 165q26 127 107 240t197.5 182.5t238.5 69.5q63 0 116.5 -13t79 -26.5t46.5 -19.5t32 6.5t23 52.5h24l-18 -322h-29q-22 140 -92.5 202t-185.5 62q-141 0 -259.5 -121t-156.5 -305q-16 -66 -16 -128q0 -31 4 -59q11 -90 45.5 -157.5 t103.5 -108t162 -40.5q97 0 189.5 61.5t146.5 163.5l24 -6q-60 -147 -169 -234.5t-248 -87.5q-100 0 -180.5 40.5t-131 116.5t-66.5 185z" />
<glyph unicode="d" horiz-adv-x="1144" d="M77 248q-9 51 -9 109q0 88 20 192q45 215 204 358.5t365 143.5q86 0 155 -34t103 -91l72 334q7 32 7 55q0 36 -17 49q-15 11 -47 11q-29 0 -72 -9l6 29l254 86h29l-287 -1358q-9 -36 3.5 -56t39.5 -20q45 0 92 64l25 -11q-47 -71 -94 -101t-82 -30q-54 1 -82 39 q-20 27 -21 68q0 17 4 37l25 120q-53 -118 -157.5 -191t-223.5 -73q-126 0 -208 75.5t-104 203.5zM211 551q-19 -90 -19 -168q0 -111 40 -195q66 -142 225 -143q97 0 187.5 72t137.5 178l84 387q6 37 6 73v16q-2 44 -20 84t-46.5 71t-76 49t-106.5 18q-143 0 -256 -120.5 t-156 -321.5z" />
<glyph unicode="e" horiz-adv-x="983" d="M76 324q-5 37 -5 76q0 75 19 159q28 131 103.5 242.5t191.5 180.5t248 69q180 0 255 -122q41 -67 41 -154q0 -72 -28 -157h-676q-2 -7 -5 -22.5t-5 -22.5q-15 -78 -14 -147q0 -58 10 -109q23 -111 100.5 -177t192.5 -66q88 0 173 58t132 153l27 -6q-56 -142 -157 -225 t-233 -83q-102 0 -182 44.5t-126.5 122.5t-61.5 186zM238 662h557q15 59 15 110q0 70 -30 126q-52 94 -170 95q-131 0 -227.5 -88.5t-144.5 -242.5z" />
<glyph unicode="f" horiz-adv-x="780" d="M-41 0l6 29q36 5 60.5 11.5t52 19.5t45 36t24.5 56l172 811h-172l13 57h172l28 137q36 157 134.5 243.5t228.5 86.5q92 0 163 -41q61 -36 61 -87q0 -8 -1 -16q-6 -31 -28.5 -46t-53.5 -13q-27 1 -42 16.5t-21 37t-13.5 42.5t-29.5 35.5t-60 14.5q-80 0 -139.5 -71 t-83.5 -188l-31 -151h283l-12 -57h-283l-172 -811q-3 -16 -3 -29q0 -42 33 -60q44 -24 154 -34l-6 -29h-479z" />
<glyph unicode="g" horiz-adv-x="1044" d="M-49 -213q0 178 217 260q-69 13 -99 63q-20 33 -20 75q0 19 4 40q11 58 59.5 110t129.5 83q-58 48 -83 126q-14 43 -14 91q0 39 9 82q32 145 154.5 239.5t293.5 94.5q56 -1 117.5 -4.5t101 -7t81.5 -5.5q18 -1 33 -1q19 0 33 1q26 3 48 10.5t34 24.5t17 43h25l-13 -151 q-61 0 -278 47q86 -43 119 -128q19 -48 19 -106q0 -43 -11 -92q-30 -143 -152 -237.5t-295 -94.5q-134 0 -219 51q-108 -46 -125 -129q-3 -16 -3 -30q0 -51 42 -77q31 -18 78 -18q37 0 84 11l143 32q83 19 150 19q105 0 173 -45q84 -57 84 -172q0 -37 -9 -80 q-31 -149 -194.5 -247.5t-377.5 -98.5q-172 0 -264 60.5t-92 160.5zM124 -333q75 -50 216 -50q171 0 295.5 76t150.5 198q6 30 6 56q0 82 -65 125q-54 35 -131 35q-48 0 -104 -13l-144 -35q-73 -17 -122 -17q-13 0 -25 1q-79 -54 -117 -111q-37 -57 -37 -129q0 -84 77 -136z M281 741q-10 -51 -10 -96q0 -85 37 -151q56 -101 181 -101q116 0 202.5 74t111.5 190q11 54 11 101q0 88 -38 152q-59 98 -180 98q-115 0 -202 -74.5t-113 -192.5z" />
<glyph unicode="h" horiz-adv-x="1169" d="M-51 0l6 29q88 9 128.5 38t53.5 93l234 1100q7 32 7 55q0 36 -17 49q-15 11 -47 11q-29 0 -72 -9l6 29l254 86h28l-143 -674q121 130 212 187t183 57q129 0 197 -92q47 -63 47 -155q0 -42 -10 -89l-117 -555q-5 -22 -5 -40q0 -36 18 -54q28 -28 112 -37l-6 -29h-418l6 29 q88 9 128 38t52 93l115 538q10 46 10 83q-1 71 -35 114q-52 66 -153 66q-32 0 -60 -5.5t-60.5 -22.5t-51.5 -28t-58.5 -44t-54 -46t-63.5 -57l-125 -598q-5 -22 -5 -40q0 -36 18 -54q27 -28 110 -37l-6 -29h-418z" />
<glyph unicode="i" horiz-adv-x="542" d="M-51 0l6 29q88 9 128.5 38t53.5 93l142 669q7 34 7 57q0 35 -16 48q-14 11 -47 11q-29 0 -73 -9l6 29l254 86h28l-188 -891q-5 -22 -5 -40q0 -36 18 -54q27 -28 110 -37l-6 -29h-418zM330 1323q5 41 37 69.5t75 28.5q41 -1 66 -29q21 -24 21 -56q0 -6 -1 -13 q-6 -41 -38 -68.5t-72 -27.5q-42 -1 -68 27q-21 22 -21 54q0 7 1 15z" />
<glyph unicode="j" horiz-adv-x="497" d="M-188 -414q85 39 139.5 90t97 141t72.5 232l166 780q7 33 7 57q0 35 -16 48q-15 11 -47 11q-29 0 -73 -9l6 29l254 86h28l-204 -957q-48 -231 -143 -353t-279 -175zM330 1325q5 41 37 69.5t75 28.5q41 0 66 -29q21 -23 21 -56q0 -6 -1 -13q-6 -41 -38 -68.5t-72 -27.5 q-43 0 -68 27q-21 23 -21 54q0 7 1 15z" />
<glyph unicode="k" horiz-adv-x="1110" d="M-51 0l6 29q88 9 128.5 38t53.5 93l234 1100q7 32 7 55q0 36 -17 49q-15 11 -47 11q-29 0 -72 -9l6 29l254 86h28l-211 -989l506 395q39 29 39 54q0 8 -3 15q-15 32 -91 35l6 29h377l-6 -29q-67 -6 -124.5 -34t-145.5 -95l-256 -200l180 -484q34 -85 77.5 -116t118.5 -33 l-6 -29h-286q6 25 0.5 54t-27.5 89l-164 437l-211 -164l-53 -256q-5 -22 -5 -40q0 -36 18 -54q27 -28 110 -37l-6 -29h-418z" />
<glyph unicode="l" horiz-adv-x="542" d="M-51 0l6 29q88 9 128.5 38t53.5 93l234 1100q7 32 7 55q0 36 -17 49q-15 11 -47 11q-29 0 -72 -9l6 29l254 86h28l-280 -1321q-5 -22 -5 -40q0 -36 18 -54q27 -28 110 -37l-6 -29h-418z" />
<glyph unicode="m" horiz-adv-x="1794" d="M-51 0l6 29q88 9 128.5 38t53.5 93l142 669q7 34 7 57q0 35 -16 48q-14 11 -47 11q-29 0 -73 -9l6 29l254 86h28l-47 -228q97 107 195 167.5t180 60.5q117 1 185 -63q65 -61 65 -168v-9q102 111 204.5 175.5t182.5 64.5q139 0 204 -91q44 -61 43 -150q0 -44 -10 -95 l-116 -555q-5 -22 -5 -40q1 -36 19 -54q28 -28 111 -37l-7 -29h-417l6 29q88 9 127 37.5t53 93.5l117 553q7 37 7 70q0 67 -32 113q-48 68 -155 67q-77 0 -151.5 -45.5t-182.5 -145.5q-2 -16 -10 -57l-117 -555q-5 -22 -5 -40q0 -36 18 -54q27 -28 110 -37l-6 -29h-416l6 29 q88 9 127 37.5t53 93.5l117 553q7 37 7 70q0 67 -32 113q-48 68 -155 67q-78 0 -151.5 -45.5t-178.5 -143.5l-131 -614q-5 -22 -5 -40q0 -36 18 -54q27 -28 110 -37l-6 -29h-418z" />
<glyph unicode="n" horiz-adv-x="1169" d="M-51 0l6 29q88 9 128.5 38t53.5 93l142 669q7 34 7 57q0 35 -16 48q-14 11 -47 11q-29 0 -73 -9l6 29l254 86h28l-51 -244q124 133 212 188.5t179 55.5q136 0 203 -93q45 -63 45 -152q0 -43 -10 -91l-117 -555q-5 -22 -5 -40q0 -36 18 -54q28 -28 112 -37l-6 -29h-418 l6 29q88 9 128 38t52 93l115 538q9 42 9 78q0 69 -32 115q-50 70 -157 70q-81 0 -154.5 -47t-191.5 -156l-125 -598q-5 -22 -5 -40q0 -36 18 -54q27 -28 110 -37l-6 -29h-418z" />
<glyph unicode="o" horiz-adv-x="1075" d="M79 292q-10 49 -10 103q0 57 11 119q26 149 103.5 271t194 194t247.5 72q128 0 222 -67.5t135 -192.5q24 -74 24 -160q0 -59 -11 -123q-40 -229 -193 -384t-351 -155q-95 0 -173.5 39.5t-128.5 111.5t-70 172zM198 394q0 -76 22 -142.5t56 -116.5t86 -79t115 -29 q136 0 243.5 120t145.5 322q13 64 13 125q0 35 -4 69q-12 94 -44 167.5t-93.5 118t-139.5 44.5q-135 0 -242 -120.5t-145 -323.5q-13 -77 -13 -150v-5z" />
<glyph unicode="p" horiz-adv-x="1150" d="M-162 -403l6 28q37 6 60.5 11.5t52 18.5t46 36t24.5 57l229 1081q7 33 7 57q0 35 -17 48q-14 11 -46 11q-29 0 -73 -9l6 29l254 86h29l-56 -263q53 118 157 190.5t222 72.5q192 0 277 -155q51 -95 51 -227q0 -83 -20 -180q-52 -243 -199.5 -381.5t-353.5 -138.5 q-89 0 -168.5 35.5t-112.5 91.5l-74 -348q-7 -34 1 -56.5t35 -35.5t60 -19.5t89 -11.5l-7 -28h-479zM258 246q1 -44 20 -83.5t47.5 -70t76 -48t106.5 -17.5q143 0 256 121t154 321q20 94 20 174q0 111 -39 193q-67 141 -227 141q-97 0 -188 -73t-138 -179l-82 -389 q-7 -39 -7 -76q0 -7 1 -14z" />
<glyph unicode="q" horiz-adv-x="1103" d="M92 567q41 200 201 342t362 142q94 0 168 -39t107 -103l96 142h29l-277 -1303q-7 -34 0 -57t29 -36t43 -18.5t55 -11.5l-6 -28h-477l6 28q116 10 170 34t68 89l102 483q-54 -118 -157.5 -190t-221.5 -72q-190 0 -272 165q-48 97 -48 230q0 93 23 203zM215 569 q-22 -100 -22 -185q0 -111 38 -194q66 -145 226 -145q95 0 185.5 71.5t137.5 176.5l86 403q4 28 4 56q0 45 -12 86q-20 65 -81 110t-156 45q-143 0 -255.5 -117.5t-150.5 -306.5z" />
<glyph unicode="r" horiz-adv-x="751" d="M-51 0l6 29q36 5 60.5 11.5t52 19.5t45 36t24.5 56l144 677q7 34 7 57q0 35 -16 48q-14 11 -47 11q-29 0 -73 -9l6 29l254 86h28l-51 -244q54 116 140 180t173 64q68 0 100 -37q23 -26 23 -55q0 -11 -4 -23q-9 -30 -31.5 -46t-54.5 -13q-19 3 -30.5 13t-17 22.5 t-11.5 24.5t-21 20t-39 8q-74 0 -152.5 -88.5t-105.5 -212.5l-108 -512q-3 -15 -3 -29q0 -41 33 -59q44 -24 154 -35l-6 -29h-479z" />
<glyph unicode="s" horiz-adv-x="847" d="M10 -31l19 326h28q17 -128 102 -197t214 -69q92 0 157 45t80 119q7 29 7 56q0 28 -8 53q-15 48 -50 79t-82 60t-98 51.5t-98 54t-81.5 67t-48.5 90.5q-7 27 -7 57q0 32 8 68q23 102 109.5 162t209.5 60q56 0 107 -15t78.5 -29.5t51 -22t37 7t23.5 59.5h29l-17 -301h-28 q-20 117 -91 180t-186 63q-86 0 -145 -40t-74 -109q-5 -22 -5 -43q0 -24 7 -46q12 -40 41 -66.5t68.5 -51t84 -44t88.5 -45t82 -53t64 -69.5t34 -94q3 -18 3 -38q0 -39 -10 -87q-23 -108 -115 -172t-223 -64q-62 0 -120 15t-89.5 30t-59 22t-42.5 -8t-25 -61h-29z" />
<glyph unicode="t" horiz-adv-x="667" d="M127 963l6 28q116 20 190.5 88.5t120.5 196.5h29l-53 -256h299l-12 -57h-299l-150 -709q-9 -44 -9 -79q0 -45 16 -77q28 -55 107 -55h3q76 0 145 72l10 -11q-36 -59 -95 -97t-120 -38q-104 1 -151 79q-29 49 -29 117q0 40 10 87l152 711h-170z" />
<glyph unicode="u" horiz-adv-x="1159" d="M131 936l6 29l256 86h29l-156 -729q-9 -42 -9 -78q1 -69 33 -115q50 -70 156 -70q80 0 155 47t187 152l121 571q7 33 7 57q0 36 -16 48q-14 11 -47 11q-29 0 -73 -9l6 29l254 86h29l-197 -928q-7 -36 6 -56t40 -20q42 0 92 64l22 -11q-47 -71 -93 -101t-81 -30 q-56 1 -84 39q-20 27 -20 68q0 17 4 37l22 100q-124 -133 -212.5 -188.5t-178.5 -55.5q-137 1 -203 95q-45 64 -44 151q0 42 10 90l110 524q6 32 6 56q0 37 -16 49q-14 11 -47 11q-29 0 -74 -9z" />
<glyph unicode="v" horiz-adv-x="1032" d="M111 991l6 29h387l-6 -29q-89 -4 -127 -35q-29 -24 -29 -65q0 -12 2 -25l123 -721l440 721q20 35 20 60q0 61 -120 65l6 29h320l-7 -29q-84 -6 -157 -125l-551 -897h-29l-162 897q-18 119 -116 125z" />
<glyph unicode="w" horiz-adv-x="1587" d="M111 991l6 29h381l-6 -29q-94 -15 -127 -45q-28 -25 -28 -62q0 -7 1 -14l119 -725l364 605l-20 118q-10 52 -41 82.5t-72 40.5l6 29h379l-6 -29q-93 -16 -127 -47q-28 -26 -28 -61q0 -7 1 -15l121 -723l436 723q16 27 16 48q0 16 -11 30q-25 30 -111 45l6 29h320l-7 -29 q-47 -9 -83.5 -37.5t-71.5 -85.5l-543 -899h-29l-122 703l-426 -703h-29l-154 897q-16 99 -114 125z" />
<glyph unicode="x" horiz-adv-x="1058" d="M-92 0l6 29q54 12 92.5 34.5t87.5 71.5l377 377l-211 389q-22 42 -52.5 62.5t-86.5 27.5l6 29h375l-6 -29q-49 -3 -76.5 -12.5t-34.5 -26.5t-3 -35.5t19 -44.5l154 -284l283 282q37 35 50 58.5t-5.5 41t-79.5 21.5l6 29h313l-6 -29q-58 -7 -95.5 -29t-86.5 -69l-354 -352 l223 -414q25 -45 55 -67t80 -31l-4 -29h-377l6 29q51 5 80 16.5t37 29.5t3 37.5t-21 47.5l-166 305l-308 -307q-21 -22 -33 -37.5t-18 -32t1.5 -27.5t29.5 -19.5t61 -12.5l-6 -29h-315z" />
<glyph unicode="y" horiz-adv-x="1046" d="M-170 -332q6 28 28 46t52 18q21 0 70.5 -34t93.5 -34q132 0 260 219l69 117l-163 862q-24 123 -113 129l6 29h387l-6 -29q-92 -5 -131 -37q-31 -25 -31 -68q0 -12 2 -24l133 -719l424 719q21 37 21 63q0 60 -109 66l6 29h318l-6 -29q-95 -6 -168 -129l-588 -995 q-174 -301 -403 -301q-66 0 -114 28q-40 23 -40 59q0 7 2 15z" />
<glyph unicode="z" horiz-adv-x="909" d="M-63 0l6 29l831 934h-362q-87 0 -145 -52t-124 -184h-28l88 293h745l-6 -29l-829 -934h381q91 0 156.5 63.5t129.5 207.5h29l-121 -328h-751z" />
<glyph unicode="&#xad;" d="M104 518l13 53h512l-13 -53h-512z" />
<glyph unicode="&#x2000;" horiz-adv-x="775" />
<glyph unicode="&#x2001;" horiz-adv-x="1550" />
<glyph unicode="&#x2002;" horiz-adv-x="775" />
<glyph unicode="&#x2003;" horiz-adv-x="1550" />
<glyph unicode="&#x2004;" horiz-adv-x="516" />
<glyph unicode="&#x2005;" horiz-adv-x="387" />
<glyph unicode="&#x2006;" horiz-adv-x="258" />
<glyph unicode="&#x2007;" horiz-adv-x="258" />
<glyph unicode="&#x2008;" horiz-adv-x="193" />
<glyph unicode="&#x2009;" horiz-adv-x="310" />
<glyph unicode="&#x200a;" horiz-adv-x="86" />
<glyph unicode="&#x2010;" d="M104 518l13 53h512l-13 -53h-512z" />
<glyph unicode="&#x2011;" d="M104 518l13 53h512l-13 -53h-512z" />
<glyph unicode="&#x2012;" d="M104 518l13 53h512l-13 -53h-512z" />
<glyph unicode="&#x2013;" horiz-adv-x="1215" d="M104 518l25 53h999l-25 -53h-999z" />
<glyph unicode="&#x2014;" horiz-adv-x="2239" d="M104 518l51 53h1997l-51 -53h-1997z" />
<glyph unicode="&#x202f;" horiz-adv-x="310" />
<glyph unicode="&#x205f;" horiz-adv-x="387" />
<glyph unicode="&#x25fc;" horiz-adv-x="1024" d="M0 0v1024h1024v-1024h-1024z" />
</font>
</defs>
</svg>
