<?xml version="1.0" standalone="no"?>
<!DOCTYPE svg PUBLIC "-//W3C//DTD SVG 1.1//EN" "http://www.w3.org/Graphics/SVG/1.1/DTD/svg11.dtd" >
<svg xmlns="http://www.w3.org/2000/svg" xmlns:xlink="http://www.w3.org/1999/xlink" version="1.1">
<metadata>
Created by FontForge 20170731 at Tue Jan 12 21:15:47 2021
 By Aleksey,,,
Copyright (c) 2018 by Martin Va'cha. All rights reserved.
</metadata>
<defs>
<font id="TobiasTRIAL-Light" horiz-adv-x="1161" >
  <font-face 
    font-family="Tobias TRIAL Light"
    font-weight="300"
    font-stretch="normal"
    units-per-em="2048"
    panose-1="0 0 4 0 0 0 0 0 0 0"
    ascent="1614"
    descent="-434"
    x-height="1020"
    cap-height="1450"
    bbox="6 -434 2169 1659"
    underline-thickness="102"
    underline-position="-307"
    unicode-range="U+0020-007A"
  />
<missing-glyph horiz-adv-x="2289" 
d="M121 633q0 202 78 388.5t210 323.5t314.5 222t384.5 92v-2048q-202 7 -385 90.5t-315 220t-209.5 322.5t-77.5 389zM1182 -383v2034q83 -28 153 -172t111 -368.5t41 -477.5t-41 -477t-111 -367t-153 -172zM1845 633q0 -344 -142 -617t-366 -366q103 134 164.5 398.5
t61.5 584.5t-61 584.5t-165 402.5q146 -62 262 -207.5t181 -349.5t65 -430zM2169 633q0 -310 -171 -566t-452 -374q172 150 273.5 400t101.5 540q0 289 -101.5 541t-273.5 401q281 -119 452 -376t171 -566z" />
    <glyph glyph-name=".notdef" horiz-adv-x="2289" 
d="M121 633q0 202 78 388.5t210 323.5t314.5 222t384.5 92v-2048q-202 7 -385 90.5t-315 220t-209.5 322.5t-77.5 389zM1182 -383v2034q83 -28 153 -172t111 -368.5t41 -477.5t-41 -477t-111 -367t-153 -172zM1845 633q0 -344 -142 -617t-366 -366q103 134 164.5 398.5
t61.5 584.5t-61 584.5t-165 402.5q146 -62 262 -207.5t181 -349.5t65 -430zM2169 633q0 -310 -171 -566t-452 -374q172 150 273.5 400t101.5 540q0 289 -101.5 541t-273.5 401q281 -119 452 -376t171 -566z" />
    <glyph glyph-name=".null" horiz-adv-x="0" 
 />
    <glyph glyph-name="nonmarkingreturn" horiz-adv-x="682" 
 />
    <glyph glyph-name="space" unicode=" " horiz-adv-x="460" 
 />
    <glyph glyph-name="comma" unicode="," horiz-adv-x="415" 
d="M201 211q63 0 100 -45.5t37 -116.5q0 -239 -248 -332l-6 23q177 101 182 250q-33 -23 -65 -23q-53 0 -87 33t-34 84q0 54 34.5 90.5t86.5 36.5z" />
    <glyph glyph-name="hyphen" unicode="-" horiz-adv-x="716" 
d="M102 571h512v-53h-512v53z" />
    <glyph glyph-name="period" unicode="." horiz-adv-x="401" 
d="M201 -31q-50 0 -85.5 35t-35.5 86q0 50 36 85.5t85 35.5q51 0 87 -35.5t36 -85.5q0 -51 -36 -86t-87 -35z" />
    <glyph glyph-name="zero" unicode="0" horiz-adv-x="1263" 
d="M631 1483q158 0 275.5 -102t177 -272.5t59.5 -383.5q0 -212 -59.5 -382.5t-177.5 -273t-275 -102.5t-274 102.5t-176.5 273t-59.5 382.5q0 213 59.5 383.5t176.5 272.5t274 102zM600 1425q-152 0 -243 -159t-91 -426q0 -79 10.5 -175t39 -212t71 -209t115 -156t162.5 -63
q154 0 244.5 159t90.5 426q0 65 -8.5 143.5t-25.5 173t-49 181t-74 158.5t-105 115.5t-137 43.5z" />
    <glyph glyph-name="one" unicode="1" horiz-adv-x="673" 
d="M594 0h-543v29q132 3 180 35.5t48 136.5v1050h-228v29q116 30 192.5 70t133.5 104h29v-1253q0 -103 42.5 -136t145.5 -36v-29z" />
    <glyph glyph-name="two" unicode="2" horiz-adv-x="1052" 
d="M455 1423q-130 0 -205.5 -88t-61.5 -207q6 -43 -11.5 -65.5t-53.5 -22.5q-34 -3 -53 20.5t-21 63.5q-3 95 52 177.5t153.5 131t216.5 48.5q196 0 314 -106t118 -285q0 -94 -30.5 -182t-81.5 -157.5t-116.5 -136.5t-134.5 -119t-137.5 -104t-124 -94.5t-95.5 -87.5
t-50 -84h541q45 0 71.5 2t56.5 9.5t47.5 22t36 40.5t32.5 64t28 93l29 -6l-57 -350h-855v47q2 73 41.5 145.5t101 136.5t136 130.5t148.5 137.5t135 146t99 168.5t38 192.5q0 134 -88 226.5t-219 92.5z" />
    <glyph glyph-name="three" unicode="3" horiz-adv-x="1050" 
d="M483 -31q-173 0 -289 80t-141 219q-8 39 4 68.5t45 38.5q41 10 65 -11t21 -77q5 -114 84 -187t236 -73q146 0 232.5 95t86.5 251q0 171 -129 265.5t-366 88.5l6 37q184 17 297 113.5t113 240.5q0 139 -74.5 222t-194.5 83q-128 0 -200.5 -87.5t-61.5 -207.5
q12 -85 -65 -88q-34 -3 -53 20.5t-21 63.5q-6 145 118 251t302 106q174 0 281 -89.5t108 -240.5q1 -129 -91 -234t-235 -145q197 -13 303.5 -111t106.5 -258q0 -196 -135 -315t-353 -119z" />
    <glyph glyph-name="four" unicode="4" horiz-adv-x="1177" 
d="M987 0h-569v29q134 5 193 45t59 143v182h-629v29l688 1053h70v-1002h28q207 0 269 293h28l-57 -373h-268v-182q1 -106 41 -145.5t147 -42.5v-29zM670 1288l-531 -809h531v809z" />
    <glyph glyph-name="five" unicode="5" horiz-adv-x="1101" 
d="M901 1550h29l33 -221h-660l-76 -526q153 127 322 127q192 0 321 -132t129 -331q0 -216 -136 -357t-343 -141q-169 0 -287 79t-159 210q-12 37 -1 62.5t40 33.5q30 9 57.5 -11.5t34.5 -63.5q24 -115 112 -183.5t205 -68.5q155 0 245.5 107t90.5 290q0 172 -106.5 287.5
t-253.5 115.5q-169 0 -310 -127l-30 13l106 737h545q43 0 64.5 23.5t27.5 76.5z" />
    <glyph glyph-name="six" unicode="6" 
d="M659 905q187 0 304.5 -129.5t117.5 -329.5q0 -207 -123 -343t-321 -136q-244 0 -384.5 208.5t-131.5 553.5q5 161 36.5 289.5t82.5 214.5t121.5 143t149.5 82t169 25q99 0 187.5 -38.5t138.5 -101.5q33 -35 35 -73.5t-31 -59.5q-35 -21 -71 -3.5t-48 65.5
q-17 68 -88 110.5t-160 42.5q-52 0 -101 -19.5t-98.5 -69t-87 -124.5t-62.5 -196t-30 -273v-84q57 115 159.5 180.5t235.5 65.5zM659 25q121 0 202 112.5t81 272.5q0 178 -100 286.5t-260 108.5q-97 0 -181 -49.5t-135 -143.5q10 -170 59.5 -302t136 -208.5t197.5 -76.5z
" />
    <glyph glyph-name="seven" unicode="7" horiz-adv-x="1007" 
d="M113 1450h870v-29q-41 -61 -58.5 -88t-65.5 -105.5t-74.5 -129.5t-71.5 -142.5t-70.5 -164.5t-57 -175t-46.5 -194.5t-23 -203t-2 -218.5h-149q-8 116 4 234.5t37.5 220.5t68 209t85.5 192t100 177t102.5 157t101.5 139h-545q-96 0 -150.5 -58t-84.5 -198h-29z" />
    <glyph glyph-name="eight" unicode="8" horiz-adv-x="1163" 
d="M657 799q170 -77 237 -122q159 -107 177 -262q2 -20 2 -42q0 -180 -137 -293t-358 -113q-213 0 -350.5 103t-137.5 260q0 140 95 251.5t261 168.5q-68 35 -116.5 67t-93.5 76.5t-68 101.5t-23 125q0 149 122.5 256t310.5 107q186 0 309 -96.5t123 -227.5q0 -125 -95 -220
t-258 -140zM287 1169q0 -54 19 -100.5t46.5 -80t75 -67t88.5 -55t102 -49.5q118 53 188.5 144.5t70.5 197.5q0 122 -87 194t-212 72q-123 0 -207 -66.5t-84 -189.5zM578 25q149 0 250.5 81t101.5 211q0 33 -7.5 64t-18 56t-31.5 50.5t-39 44t-49 40t-53 35t-60.5 33.5
t-61.5 30.5t-65.5 30.5t-63.5 30q-116 -53 -185 -159.5t-69 -237.5q0 -134 101 -221.5t250 -87.5z" />
    <glyph glyph-name="nine" unicode="9" 
d="M524 1483q244 0 384.5 -208.5t131.5 -553.5q-5 -161 -36.5 -289.5t-82.5 -214.5t-121.5 -143t-149.5 -82t-169 -25q-99 0 -187 38t-138 101q-33 35 -35 74t31 62q35 20 70.5 2t47.5 -66q17 -67 88 -110t160 -43q52 0 101 19.5t98.5 69t86.5 125t62.5 196.5t30.5 274v84
q-56 -116 -159 -182t-236 -66q-187 0 -304.5 129.5t-117.5 329.5q0 207 123 343t321 136zM580 645q97 0 180.5 49.5t134.5 143.5q-10 170 -59.5 302t-136 208.5t-197.5 76.5q-121 0 -202 -112.5t-81 -272.5q0 -178 100.5 -286.5t260.5 -108.5z" />
    <glyph glyph-name="A" unicode="A" horiz-adv-x="1456" 
d="M739 1481l490 -1245q46 -116 93 -161.5t122 -45.5v-29h-535v29q149 0 190 41t-1 147l-107 272h-608l-107 -272q-41 -106 -1.5 -147t180.5 -41v-29h-443v29q73 0 119 46t92 163l488 1243h28zM686 1270l-280 -723h563z" />
    <glyph glyph-name="B" unicode="B" horiz-adv-x="1300" 
d="M721 0h-641v29q106 9 147 42t41 109v1090q0 76 -41 109t-147 42v29h549q219 0 348 -95.5t129 -262.5q0 -116 -90.5 -209.5t-235.5 -122.5q190 -22 306 -124t116 -245q0 -179 -131 -285t-350 -106zM395 1393v-611h244q144 0 234 87.5t90 222.5q0 138 -100.5 219.5
t-266.5 81.5h-201zM588 57h108q163 0 263 91.5t100 242.5q0 149 -114 241.5t-300 92.5h-250v-524q0 -69 42 -106.5t151 -37.5z" />
    <glyph glyph-name="C" unicode="C" horiz-adv-x="1384" 
d="M1145 1481h29l61 -400h-29q-54 169 -167.5 255.5t-280.5 86.5q-142 0 -254 -83t-175.5 -234.5t-64.5 -345.5q0 -198 73 -358.5t202.5 -251.5t291.5 -91q156 0 270 98t159 265l30 -6q-21 -138 -97 -241t-185.5 -155.5t-237.5 -52.5q-189 0 -337.5 92.5t-230.5 257.5
t-81 373q0 172 48 319.5t133 251t204.5 162t259.5 58.5q64 0 129 -15t103.5 -30.5t72 -23t50.5 8t24 60.5z" />
    <glyph glyph-name="D" unicode="D" horiz-adv-x="1480" 
d="M80 1450h563q324 0 520.5 -185.5t196.5 -494.5q0 -349 -187.5 -559.5t-496.5 -210.5h-596v29q106 9 147 42t41 109v1090q0 76 -41 109t-147 42v29zM541 57h135q158 0 281 83.5t191.5 235.5t68.5 347q0 313 -163.5 491.5t-445.5 178.5h-213v-1190q0 -78 34 -112t112 -34z
" />
    <glyph glyph-name="E" unicode="E" horiz-adv-x="1249" 
d="M1167 367h29l-57 -367h-1059v29q106 9 147 42t41 109v1090q0 76 -41 109t-147 42v29h911q77 0 88 31h29l61 -396h-28q-35 164 -106.5 236t-200.5 72h-439v-621h301q89 0 122.5 46t25.5 159h28l68 -465h-29q-28 109 -73 156t-121 47h-322v-514q0 -78 27 -111t90 -33h365
q115 0 185 75.5t105 234.5z" />
    <glyph glyph-name="F" unicode="F" horiz-adv-x="1214" 
d="M1077 1481h29l61 -396h-28q-35 164 -107 236t-201 72h-436v-621h301q89 0 122.5 46t25.5 159h28l68 -465h-29q-28 109 -73 156t-121 47h-322v-535q0 -53 20.5 -82.5t74 -46t155.5 -22.5v-29h-565v29q106 9 147 42t41 109v1090q0 76 -41 109t-147 42v29h909q77 0 88 31z
" />
    <glyph glyph-name="G" unicode="G" horiz-adv-x="1462" 
d="M754 -31q-132 0 -249 54t-202 148.5t-134 229t-48 289.5q0 231 83 411.5t232 280t338 99.5q63 0 126 -15.5t100.5 -30.5t70.5 -23t50.5 7.5t25.5 61.5h29l59 -400h-27q-118 342 -452 342q-141 0 -253.5 -84t-176.5 -235.5t-64 -343.5q1 -193 71 -358.5t196.5 -266
t279.5 -100.5q93 0 181 31t147 96v362q0 171 -193 174v31h498v-31q-178 -6 -178 -174v-311q-70 -105 -203.5 -174.5t-306.5 -69.5z" />
    <glyph glyph-name="H" unicode="H" horiz-adv-x="1558" 
d="M1479 1450v-29q-106 -9 -147.5 -42t-41.5 -109v-1090q0 -76 41.5 -109t147.5 -42v-29h-504v29q106 9 147 42t41 109v537h-768v-537q0 -76 41.5 -109t147.5 -42v-29h-504v29q106 9 147 42t41 109v1090q0 76 -41 109t-147 42v29h504v-29q-106 -9 -147.5 -42t-41.5 -109
v-496h768v496q0 76 -41 109t-147 42v29h504z" />
    <glyph glyph-name="I" unicode="I" horiz-adv-x="663" 
d="M395 1270v-1090q0 -76 41.5 -109t147.5 -42v-29h-504v29q106 9 147 42t41 109v1090q0 76 -41 109t-147 42v29h504v-29q-106 -9 -147.5 -42t-41.5 -109z" />
    <glyph glyph-name="J" unicode="J" horiz-adv-x="987" 
d="M389 -31q-149 0 -249.5 77t-106.5 220q-1 40 17 63t50 23q31 0 49.5 -20.5t18.5 -55.5q0 -18 -4 -44.5t-4 -41.5q0 -79 64.5 -121t166.5 -42q111 0 175.5 81.5t64.5 249.5v912q0 76 -40.5 109t-146.5 42v29h502v-29q-106 -9 -146 -41.5t-40 -109.5v-869
q0 -215 -99.5 -323.5t-271.5 -108.5z" />
    <glyph glyph-name="K" unicode="K" horiz-adv-x="1427" 
d="M696 893l492 -737q35 -57 96.5 -90t132.5 -35v-31h-313q-10 60 -64 137l-432 660l-213 -228v-389q0 -76 41.5 -109t147.5 -42v-29h-504v29q106 9 147 42t41 109v1090q0 76 -41 109t-147 42v29h504v-29q-106 -9 -147.5 -42t-41.5 -109v-617l598 641q29 32 39 52.5
t1.5 36.5t-43.5 24.5t-99 11.5v31h428v-31q-148 -14 -250 -129z" />
    <glyph glyph-name="L" unicode="L" horiz-adv-x="1218" 
d="M1149 367h29l-56 -367h-1042v29q106 9 147 42t41 109v1090q0 76 -41 109t-147 42v29h504v-29q-106 -9 -147.5 -42t-41.5 -109v-1069q0 -78 27 -111t90 -33h346q115 0 186 76t105 234z" />
    <glyph glyph-name="M" unicode="M" horiz-adv-x="1859" 
d="M1780 1450v-29q-106 -9 -147.5 -42t-41.5 -109v-1090q0 -76 42 -109.5t147 -41.5v-29h-504v29q105 7 146.5 40.5t41.5 110.5v1073l-569 -1253h-29l-540 1245v-1065q0 -77 39.5 -110.5t142.5 -40.5v-29h-428v29q104 8 146 41.5t42 109.5v1092q0 78 -41 111t-143 36v31h291
l545 -1255l571 1255h289z" />
    <glyph glyph-name="N" unicode="N" horiz-adv-x="1503" 
d="M995 1421v29h428v-29q-106 -9 -147 -42t-41 -109v-1270h-51l-858 1253v-1073q0 -77 38.5 -109.5t143.5 -41.5v-29h-428v29q106 9 147 42t41 109v1092q0 79 -41 112.5t-143 36.5v29h262l832 -1223v1043q0 77 -39 109.5t-144 41.5z" />
    <glyph glyph-name="O" unicode="O" horiz-adv-x="1568" 
d="M780 -31q-194 0 -345 93t-232.5 258t-81.5 374q0 172 49.5 318.5t137.5 249.5t212.5 161t270.5 58q194 0 344.5 -93t231.5 -257.5t81 -374.5q0 -229 -84.5 -408.5t-237 -279t-346.5 -99.5zM817 27q224 6 359 196.5t129 491.5q-8 317 -161 514.5t-390 193.5
q-226 -3 -362 -194.5t-128 -493.5q5 -206 76 -368.5t196 -252.5t281 -87z" />
    <glyph glyph-name="P" unicode="P" horiz-adv-x="1212" 
d="M621 1450q235 0 377.5 -109t142.5 -292q0 -184 -142.5 -295t-377.5 -111h-226v-440q0 -104 42.5 -137.5t146.5 -36.5v-29h-504v29q106 3 147 38t41 136v1046q0 99 -42 134t-146 38v29h541zM395 700h211q177 0 284 97t107 252q0 154 -106.5 249t-284.5 95h-211v-693z" />
    <glyph glyph-name="Q" unicode="Q" horiz-adv-x="1568" 
d="M762 -31q24 -77 67.5 -133.5t94 -87t112 -45t119 -14t117.5 11.5l2 -31q-77 -25 -158 -27.5t-158 18.5t-143 63t-117 110t-77 154q-229 53 -364.5 244t-135.5 462q0 172 49.5 318.5t137.5 249.5t212.5 161t270.5 58q194 0 344.5 -93t231.5 -257.5t81 -374.5
q0 -229 -84.5 -408.5t-237 -279t-346.5 -99.5h-18zM264 735q5 -206 76 -368.5t196 -252.5t281 -87q224 6 359 196.5t129 491.5q-8 317 -161 514.5t-390 193.5q-226 -3 -362 -194.5t-128 -493.5z" />
    <glyph glyph-name="R" unicode="R" horiz-adv-x="1329" 
d="M745 653l392 -524q31 -41 82 -69t100 -29v-31h-268q-2 9 -5.5 18.5t-6.5 15.5t-10 17t-9.5 15t-12.5 17.5t-12 16.5l-401 543h-199v-440q0 -104 42.5 -137.5t146.5 -36.5v-29h-504v29q106 3 147 38t41 136v1046q0 99 -42 134t-146 38v29h541q235 0 377.5 -109t142.5 -292
q0 -157 -106.5 -262.5t-289.5 -133.5zM606 1393h-211v-693h211q177 0 284 97t107 252q0 154 -106.5 249t-284.5 95z" />
    <glyph glyph-name="S" unicode="S" horiz-adv-x="1120" 
d="M584 -31q-72 0 -135 14t-98.5 31.5t-65.5 31.5t-45 14t-26.5 -20t-20.5 -71h-29l-70 447h29q57 -186 176.5 -285.5t284.5 -99.5q138 0 226.5 80t88.5 206q0 75 -26 134t-70.5 97.5t-101.5 69t-120.5 55.5l-127 50t-120.5 58.5t-101.5 76t-70.5 107.5t-26 147
q0 168 105.5 268.5t287.5 100.5q68 0 131 -16t96 -32.5t60.5 -24t41.5 8t22 64.5h28l64 -400h-29q-41 166 -153.5 254t-260.5 88q-132 0 -208 -71t-76 -191q0 -68 26.5 -121.5t72 -89t104 -65t123 -55t129 -52t123 -62t104 -80t72 -111.5t26.5 -150q0 -180 -123 -293
t-317 -113z" />
    <glyph glyph-name="T" unicode="T" horiz-adv-x="1261" 
d="M1149 1481h29l63 -396h-29q-37 165 -108.5 236.5t-200.5 71.5h-209v-1192q0 -98 41 -132.5t146 -39.5v-29h-500v29q105 5 145.5 39.5t40.5 132.5v1192h-209q-129 0 -200.5 -71.5t-108.5 -236.5h-29l64 396h29q8 -31 86 -31h864q75 0 86 31z" />
    <glyph glyph-name="U" unicode="U" horiz-adv-x="1468" 
d="M995 1421v29h432v-29q-106 -9 -146 -41.5t-40 -109.5v-756q0 -252 -133 -398.5t-360 -146.5q-242 0 -380.5 145t-138.5 400v756q0 76 -41 109t-147 42v29h504v-29q-106 -9 -147.5 -42t-41.5 -109v-756q0 -218 117.5 -350.5t308.5 -132.5q188 0 295 131t107 352v756
q0 76 -41.5 109t-147.5 42z" />
    <glyph glyph-name="V" unicode="V" horiz-adv-x="1456" 
d="M745 -31h-28l-490 1245q-44 116 -91.5 161.5t-123.5 45.5v29h537v-29q-149 0 -190.5 -41t1.5 -147l410 -1053l410 1053q41 106 2 147t-181 41v29h443v-29q-72 0 -118.5 -46t-92.5 -163z" />
    <glyph glyph-name="W" unicode="W" horiz-adv-x="2166" 
d="M1751 1421v29h403v-29q-66 0 -108.5 -46t-83.5 -163l-440 -1243h-27l-410 1155l-409 -1155h-27l-442 1245q-40 112 -82.5 159.5t-112.5 47.5v29h490v-29q-132 0 -168.5 -42t0.5 -146l362 -1038l357 1017v2q-38 111 -81 159t-114 48v29h490v-29q-132 0 -168 -42t2 -146
l362 -1038l365 1038q40 98 7.5 143t-165.5 45z" />
    <glyph glyph-name="X" unicode="X" horiz-adv-x="1376" 
d="M737 784l396 -600q24 -35 34.5 -50t32.5 -38.5t42 -33.5t52.5 -19.5t73.5 -13.5v-29h-528v29q107 9 145 48.5t-4 102.5l-326 496l-340 -496q-42 -62 -4 -102t144 -49v-29h-447v29q51 4 87.5 15.5t65 35.5t44 43t43.5 59l373 545l-355 539q-28 44 -43.5 64t-43 43
t-62 33.5t-86.5 14.5v29h528v-29q-108 -9 -145.5 -46t4.5 -105l284 -432l295 432q42 66 6.5 104t-143.5 47v29h445v-29q-52 -4 -87 -15t-63 -34t-44 -42.5t-44 -61.5z" />
    <glyph glyph-name="Y" unicode="Y" horiz-adv-x="1335" 
d="M885 1421v29h442v-29q-101 -9 -151 -43t-89 -110l-339 -656v-409q0 -98 40.5 -132.5t145.5 -39.5v-31h-500v31q105 5 146 39.5t41 132.5v399l-377 664q-31 54 -55 81.5t-68 47.5t-113 26v29h527v-29q-217 -19 -144 -151l330 -584l303 584q35 69 1 105.5t-140 45.5z" />
    <glyph glyph-name="Z" unicode="Z" horiz-adv-x="1138" 
d="M1059 365h28l-63 -396h-29q-11 31 -86 31h-866v31l864 1362h-479q-129 0 -200.5 -72t-106.5 -236h-29l62 396h28q11 -31 88 -31h807v-31l-862 -1362h535q129 0 200.5 71.5t108.5 236.5z" />
    <glyph glyph-name="a" unicode="a" horiz-adv-x="1019" 
d="M956 111l27 -11q-33 -72 -72.5 -101.5t-74.5 -29.5q-56 0 -93.5 40t-37.5 110v121q-46 -129 -129.5 -200t-190.5 -71q-116 0 -196 75t-80 192q0 156 97.5 241t305.5 107l193 16v86q0 141 -70 224t-189 83q-63 0 -110 -19.5t-70.5 -50.5t-32 -67t-0.5 -72q20 -92 -36 -108
q-32 -11 -60 8.5t-28 71.5q1 37 14 76t42.5 78.5t72 70.5t107 50.5t142.5 19.5q151 0 240.5 -98.5t89.5 -268.5v-561q0 -36 17 -56t45 -20q41 0 77 64zM438 63q82 0 151 60.5t116 167.5v256l-185 -23q-149 -19 -219 -81t-70 -173q0 -89 60.5 -148t146.5 -59z" />
    <glyph glyph-name="b" unicode="b" horiz-adv-x="1099" 
d="M594 1051q193 0 309.5 -144t116.5 -375q0 -253 -128 -408t-335 -155q-94 0 -176.5 39.5t-130.5 104.5l-64 -144h-28v1291q0 83 -32.5 104t-119.5 2v29l236 86h28v-695q28 118 116.5 191.5t207.5 73.5zM580 27q142 0 229.5 118t87.5 306q0 234 -97 380t-257 146
q-97 0 -173 -73.5t-100 -180.5v-377q0 -59 19.5 -114.5t56.5 -102t98 -74.5t136 -28z" />
    <glyph glyph-name="c" unicode="c" horiz-adv-x="985" 
d="M889 729h-29q-98 264 -334 264q-141 0 -233 -121.5t-92 -304.5q0 -132 47 -243t140.5 -180.5t217.5 -69.5q97 0 176 61.5t111 163.5l27 -6q-28 -144 -129.5 -233t-241.5 -89q-200 0 -334.5 148t-134.5 370q0 159 57 287.5t157.5 201.5t223.5 73q63 0 119.5 -13
t84.5 -26.5t50.5 -19.5t30.5 6.5t12 52.5h25z" />
    <glyph glyph-name="d" unicode="d" horiz-adv-x="1146" 
d="M1083 111l25 -11q-32 -71 -72 -101t-75 -30q-56 0 -94 40t-38 110v106q-31 -115 -119 -185.5t-204 -70.5q-193 0 -309.5 144t-116.5 374q0 253 128 408.5t335 155.5q84 0 160 -32t126 -87v328q0 83 -31.5 104t-119.5 2v29l235 86h29v-1358q0 -36 17.5 -56t44.5 -20
q43 0 79 64zM557 45q94 0 169.5 71t102.5 175v383q0 59 -19.5 114.5t-56 102t-97.5 74.5t-136 28q-142 0 -228.5 -117t-86.5 -307q0 -234 96 -379t256 -145z" />
    <glyph glyph-name="e" unicode="e" horiz-adv-x="983" 
d="M858 285l27 -6q-23 -138 -118.5 -223t-227.5 -85q-211 0 -335 145t-124 371q0 248 128.5 406t332.5 158q87 0 156.5 -36.5t111.5 -96.5t60.5 -138t9.5 -162h-674q-2 -25 -2 -77q0 -208 105 -337.5t290 -129.5q88 0 160 58t100 153zM508 993q-127 0 -202.5 -86t-96.5 -245
h553q8 142 -63.5 236.5t-190.5 94.5z" />
    <glyph glyph-name="f" unicode="f" horiz-adv-x="772" 
d="M541 1487q51 0 99 -11t86 -40t38 -70q0 -30 -24 -48.5t-52 -10.5q-23 3 -38 17t-24.5 31.5t-21 34.5t-35 28.5t-59.5 11.5q-83 0 -127.5 -66t-44.5 -186v-158h283v-57h-283v-811q0 -64 49 -88.5t162 -34.5v-29h-477v29q27 4 45.5 8.5t40.5 13.5t35.5 21.5t22.5 32.5t9 47
v811h-174v57h174v108q0 173 85.5 266t230.5 93z" />
    <glyph glyph-name="g" unicode="g" horiz-adv-x="1044" 
d="M393 152l205 49q172 40 290 -34t118 -230q0 -166 -150.5 -268.5t-390.5 -102.5q-165 0 -263 68t-98 176q0 151 156 235q-68 15 -106.5 62.5t-38.5 115.5q0 61 36.5 114t106.5 81q-69 45 -108 117.5t-39 162.5q0 156 107.5 254.5t283.5 98.5h10q53 -1 112 -4.5t97 -7
t77.5 -5.5t63 0.5t43 10t27 24.5t6.5 43h25l20 -151q-19 0 -42.5 2.5t-55 8t-54.5 10t-64 12.5t-60 12q87 -43 136.5 -124t49.5 -184q0 -153 -108.5 -250.5t-282.5 -97.5q-127 0 -219 53q-95 -45 -95 -131q0 -72 58 -107t147 -13zM489 1008q-115 0 -186.5 -74.5
t-71.5 -192.5q0 -146 79 -247t204 -101q115 0 185.5 74t70.5 190q0 154 -80 252.5t-201 98.5zM510 -383q185 0 297.5 78t112.5 207q0 115 -91 172t-223 26l-198 -49q-61 -15 -113 -12q-105 -83 -105 -203q0 -98 89 -158.5t231 -60.5z" />
    <glyph glyph-name="h" unicode="h" horiz-adv-x="1169" 
d="M973 709v-549q0 -65 33.5 -93.5t119.5 -37.5v-29h-417v29q86 9 119.5 37.5t33.5 93.5v545q0 124 -55.5 190t-159.5 66q-84 0 -161.5 -51t-161.5 -152v-598q0 -65 33.5 -93.5t119.5 -37.5v-29h-418v29q85 9 118.5 38t33.5 93v1100q0 83 -32 104t-120 2v29l236 86h29v-674
q175 244 356 244q137 0 215 -91.5t78 -250.5z" />
    <glyph glyph-name="i" unicode="i" horiz-adv-x="542" 
d="M266 1227q-43 0 -72.5 27.5t-29.5 68.5t29.5 69.5t72.5 28.5q40 0 68 -28.5t28 -69.5t-28 -68.5t-68 -27.5zM324 1051v-891q0 -65 33.5 -93.5t119.5 -37.5v-29h-418v29q85 9 118.5 38t33.5 93v669q0 84 -32 105t-120 2v29l236 86h29z" />
    <glyph glyph-name="j" unicode="j" horiz-adv-x="497" 
d="M266 1423q40 0 68 -28.5t28 -69.5t-28 -68.5t-68 -27.5q-43 0 -72.5 27.5t-29.5 68.5t29.5 69.5t72.5 28.5zM66 936v29l237 86h29v-957q0 -231 -69 -353t-240 -175l-15 20q77 39 121 90t67 141t23 232v780q0 84 -32.5 105t-120.5 2z" />
    <glyph glyph-name="k" unicode="k" horiz-adv-x="1110" 
d="M588 662l284 -484q51 -85 102 -116t128 -33v-29h-289q1 25 -10.5 54t-46.5 89l-256 437l-176 -164v-256q0 -65 33.5 -93.5t119.5 -37.5v-29h-418v29q85 9 118.5 38t33.5 93v1100q0 83 -32 104t-120 2v29l236 86h29v-989l421 395q43 37 21 69t-98 35v29h376v-29
q-66 -6 -117 -34t-124 -95z" />
    <glyph glyph-name="l" unicode="l" horiz-adv-x="542" 
d="M324 1481v-1321q0 -65 33.5 -93.5t119.5 -37.5v-29h-418v29q85 9 118.5 38t33.5 93v1100q0 83 -32 104t-120 2v29l236 86h29z" />
    <glyph glyph-name="m" unicode="m" horiz-adv-x="1794" 
d="M1597 715v-555q0 -64 34 -93t120 -38v-29h-418v29q86 9 120 38t34 93v553q0 114 -64.5 182t-171.5 68q-78 0 -143 -46t-150 -145q3 -27 3 -57v-555q0 -65 33.5 -93.5t119.5 -37.5v-29h-418v29q86 9 119 37.5t33 93.5v553q0 114 -63.5 182t-170.5 68q-77 0 -140.5 -45
t-149.5 -144v-614q0 -65 33.5 -93.5t119.5 -37.5v-29h-418v29q85 9 118.5 38t33.5 93v669q0 84 -32 105t-120 2v29l236 86h29v-228q89 121 172 174.5t174 53.5q114 0 187 -63t95 -177q92 127 177.5 183.5t177.5 56.5q137 0 213.5 -90t76.5 -246z" />
    <glyph glyph-name="n" unicode="n" horiz-adv-x="1169" 
d="M973 709v-549q0 -65 33.5 -93.5t119.5 -37.5v-29h-417v29q86 9 119.5 37.5t33.5 93.5v545q0 124 -55.5 190t-159.5 66q-84 0 -161.5 -51t-161.5 -152v-598q0 -65 33.5 -93.5t119.5 -37.5v-29h-418v29q85 9 118.5 38t33.5 93v669q0 84 -32 105t-120 2v29l236 86h29v-244
q175 244 356 244q137 0 215 -91.5t78 -250.5z" />
    <glyph glyph-name="o" unicode="o" horiz-adv-x="1077" 
d="M526 -31q-200 0 -323 143t-123 375q0 252 130 408t339 156q200 0 324 -143.5t124 -375.5q0 -253 -130 -408t-341 -155zM569 27q132 0 218.5 114t86.5 287q0 154 -46.5 283t-131.5 205.5t-190 76.5q-133 0 -218 -114t-85 -289q0 -153 46.5 -281.5t131 -205t188.5 -76.5z
" />
    <glyph glyph-name="p" unicode="p" horiz-adv-x="1150" 
d="M625 1051q193 0 309.5 -144t116.5 -375q0 -253 -128 -408t-335 -155q-84 0 -160.5 32t-126.5 87v-340q0 -65 48.5 -89t162.5 -34v-28h-477v28q28 4 46 8t40.5 13t35.5 21.5t22 33t9 47.5v1081q0 84 -32 105t-119 2v29l235 86h29v-265q28 118 116.5 191.5t207.5 73.5z
M610 27q142 0 230 118t88 306q0 233 -97.5 379.5t-257.5 146.5q-97 0 -172.5 -73.5t-99.5 -180.5v-377q0 -59 19.5 -114.5t56 -102t97.5 -74.5t136 -28z" />
    <glyph glyph-name="q" unicode="q" horiz-adv-x="1105" 
d="M942 1051v-1303q0 -34 12.5 -57t37.5 -36t47.5 -18.5t58.5 -11.5v-28h-480v28q114 10 162.5 34t48.5 89v477q-31 -115 -119 -185.5t-204 -70.5q-193 0 -309.5 144t-116.5 374q0 253 128 408.5t335 155.5q91 0 173 -38t130 -100l67 138h29zM557 45q94 0 169.5 71
t102.5 175v383q0 59 -19.5 114.5t-56 102t-97.5 74.5t-136 28q-142 0 -228.5 -117t-86.5 -307q0 -234 96 -379t256 -145z" />
    <glyph glyph-name="r" unicode="r" horiz-adv-x="735" 
d="M578 1051q69 0 108 -27.5t39 -69.5q0 -27 -17 -47t-44 -20q-33 0 -66.5 32.5t-73.5 32.5q-80 0 -139 -82.5t-59 -203.5v-514q0 -64 49.5 -88.5t161.5 -34.5v-29h-478v29q34 5 57 11.5t47.5 19.5t37 36t12.5 56v677q0 84 -32 105t-120 2v29l236 86h29v-242
q30 115 98 178.5t154 63.5z" />
    <glyph glyph-name="s" unicode="s" horiz-adv-x="847" 
d="M442 -29q-51 0 -103 15t-82 30t-55.5 22t-36 -8t-11.5 -61h-29l-51 326h28q43 -126 137 -196t201 -70q105 0 171.5 54.5t66.5 143.5q0 60 -32.5 105.5t-85 74t-115.5 52.5t-126 50.5t-115.5 59t-85 86.5t-32.5 125q0 122 85.5 196.5t219.5 74.5q51 0 101.5 -15
t79.5 -29.5t53.5 -22t34.5 7.5t10 59h28l47 -301h-28q-44 116 -128 179.5t-194 63.5q-91 0 -151 -50.5t-60 -129.5q0 -55 32.5 -96t85 -66t115.5 -47t126 -48.5t115.5 -61t85 -92.5t32.5 -136q0 -129 -91 -212t-243 -83z" />
    <glyph glyph-name="t" unicode="t" horiz-adv-x="667" 
d="M602 113l16 -9q-10 -40 -63 -87.5t-123 -47.5q-111 0 -172 73.5t-61 209.5v711h-170v28q112 20 172 88t82 197h28v-256h299v-57h-299v-709q0 -100 45 -156t127 -55q11 0 20.5 1.5t18.5 4.5t16 6t14.5 8.5t12 9t11.5 10.5t9.5 10t9 11t7.5 9z" />
    <glyph glyph-name="u" unicode="u" horiz-adv-x="1159" 
d="M1096 111l24 -11q-32 -71 -72 -101t-75 -30q-56 0 -93.5 40t-37.5 110v90q-94 -126 -178.5 -183t-178.5 -57q-137 0 -213.5 90t-76.5 246v524q0 84 -32.5 105t-121.5 2v29l235 86h29v-729q0 -122 63 -185t173 -63q83 0 150.5 43t150.5 141v571q0 84 -32.5 105t-119.5 2
v29l236 86h28v-928q0 -36 17.5 -56t44.5 -20q42 0 80 64z" />
    <glyph glyph-name="v" unicode="v" horiz-adv-x="1032" 
d="M532 -31h-28l-350 897q-46 119 -146 125v29h395v-29q-88 -4 -119 -35t-8 -90l273 -712l282 712q23 60 -8.5 91t-117.5 34v29h319v-29q-82 -6 -131 -125z" />
    <glyph glyph-name="w" unicode="w" horiz-adv-x="1587" 
d="M1260 991v29h319v-29q-43 -9 -73.5 -38t-53.5 -85l-352 -899h-29l-270 703l-279 -703h-28l-342 897q-40 99 -144 125v29h387v-29q-90 -16 -116.5 -45.5t-8.5 -75.5l269 -716l231 596l-45 118q-39 99 -139 123v29h385v-29q-90 -16 -117 -47t-8 -76l270 -714l279 714
q19 50 -12.5 79t-122.5 44z" />
    <glyph glyph-name="x" unicode="x" horiz-adv-x="1007" 
d="M557 553l274 -399q71 -102 164 -125v-29h-364v29q34 3 56 9t31 16.5t12 19t-4 24.5t-13.5 26t-20.5 30l-213 311l-227 -305q-17 -23 -25.5 -38.5t-11.5 -32.5t6.5 -28t32.5 -19.5t63 -12.5v-29h-305v29q45 15 85 43t87 92l262 348l-241 354q-43 65 -82.5 90.5t-89.5 34.5
v29h364v-29q-28 -2 -47.5 -6.5t-31 -9.5t-14.5 -15.5t-3 -18t8 -22.5t14 -24.5t19 -28.5l182 -264l193 258q23 31 33 51t9 38.5t-25 28.5t-72 13v29h307v-29q-48 -8 -89.5 -37t-93.5 -96z" />
    <glyph glyph-name="y" unicode="y" horiz-adv-x="1046" 
d="M719 991v29h319v-29q-91 -6 -141 -129l-375 -995q-114 -301 -340 -301q-66 0 -120 28t-54 74q0 28 19.5 46t48.5 18q22 0 78 -34t100 -34q133 0 213 219l45 119l-348 860q-50 123 -139 129v29h393v-29q-91 -4 -122.5 -35.5t-8.5 -93.5l282 -708l267 708q23 61 -6 92.5
t-111 36.5z" />
    <glyph glyph-name="z" unicode="z" horiz-adv-x="909" 
d="M94 1020h746v-29l-641 -934h391q92 0 143 63t86 208h29l-49 -328h-752v29l641 934h-373q-87 0 -133.5 -52t-85.5 -184h-28z" />
    <glyph glyph-name="C.ss04" horiz-adv-x="1329" 
d="M1217 1483l28 -6l-71 -396h-29q-19 154 -125 248t-262 94q-142 0 -254 -83t-175.5 -234.5t-64.5 -345.5q0 -195 72.5 -351t202 -243.5t292.5 -87.5q158 0 271.5 90t157.5 254l30 -6q-21 -138 -97 -241t-185.5 -155.5t-237.5 -52.5q-189 0 -337.5 92.5t-230.5 257.5
t-81 373q0 229 82 410t226 281t325 100q85 0 161 -20t115.5 -40t75 -30t60.5 10.5t51 81.5z" />
    <glyph glyph-name="G.ss04" horiz-adv-x="1452" 
d="M754 -31q-132 0 -249 54t-202 148.5t-134 229t-48 289.5q0 230 82.5 411.5t227 281t323.5 98.5q72 0 138.5 -14.5t105.5 -32t75.5 -31.5t59 -14.5t45 21.5t43.5 73l28 -6l-69 -396h-29q-20 154 -128 248t-265 94q-142 0 -255 -84t-177 -235.5t-64 -343.5
q1 -193 71 -358.5t196.5 -266t279.5 -100.5q93 0 181 31t147 96v362q0 171 -193 174v31h498v-31q-178 -6 -178 -174v-311q-70 -105 -203.5 -174.5t-306.5 -69.5z" />
    <glyph glyph-name="K.ss08" horiz-adv-x="1439" 
d="M506 768l684 -610q74 -69 107 -90q57 -35 112 -37v-31h-264q-11 42 -86 109l-664 589v-518q0 -76 41.5 -109t147.5 -42v-29h-504v29q106 9 147 42t41 109v1090q0 76 -41 109t-147 42v29h504v-29q-106 -9 -147.5 -42t-41.5 -109v-525l631 551q134 117 -84 123v31h416v-31
q-64 -3 -120 -32.5t-128 -94.5z" />
    <glyph glyph-name="R.ss08" horiz-adv-x="1312" 
d="M573 643l492 -450q98 -89 152.5 -125t101.5 -37v-31h-275q-10 31 -32.5 62t-81.5 85l-535 496v-440q0 -104 42.5 -136.5t146.5 -35.5v-31h-504v31q106 3 147 37.5t41 134.5v1046q0 99 -41.5 133t-146.5 37v31h541q244 0 382 -106.5t138 -294.5q0 -191 -138 -298.5
t-382 -107.5h-48zM606 1393h-211v-693h211q184 0 287.5 94.5t103.5 254.5t-103 252t-288 92z" />
    <glyph glyph-name="S.ss10" horiz-adv-x="1064" 
d="M553 -31q-71 0 -136.5 14t-105.5 32t-76.5 32.5t-60 18.5t-46.5 -12.5t-44 -59.5l-29 6l74 422l29 -6q-11 -73 5.5 -136t54 -108t91 -77.5t116 -48t128.5 -15.5q138 0 227.5 80t89.5 206q0 76 -26 134.5t-70 97.5t-101 69.5t-120.5 55t-126.5 50t-120 58.5t-101 75.5
t-70 107.5t-26 147q0 167 113 268t298 101q50 0 99 -10t83.5 -23.5t67.5 -28t57 -22.5t46 -7.5t41 16.5t36 50l29 -6l-68 -375l-28 6q5 78 -24.5 144.5t-81.5 108.5t-119 65.5t-138 23.5q-132 0 -217.5 -72t-85.5 -190q0 -68 26.5 -121.5t71.5 -89t103.5 -65t123 -55
t129 -52t123 -62t103.5 -80t71.5 -111.5t26.5 -150q0 -180 -123.5 -293t-318.5 -113z" />
    <glyph glyph-name="M.titl" horiz-adv-x="1972" 
d="M1661 1270l84 -1100q4 -70 48.5 -101.5t145.5 -39.5v-29h-493v29q99 8 138.5 42t33.5 109l-84 1104l-602 -1284h-23l-559 1278l-84 -1106q-6 -69 33.5 -102.5t138.5 -40.5v-29h-405v29q87 8 127.5 41t44.5 102l88 1104q6 71 -36.5 104t-147.5 41v29h311l541 -1243
l583 1243h303v-29q-107 -9 -149.5 -42.5t-36.5 -108.5z" />
    <glyph glyph-name="a.ss01" horiz-adv-x="1142" 
d="M1079 111l25 -11q-32 -72 -72 -101.5t-76 -29.5q-56 0 -92.5 40t-36.5 110v106q-31 -115 -119 -185.5t-204 -70.5q-193 0 -309.5 144t-116.5 374q0 253 128 408.5t335 155.5q93 0 176 -39t131 -103l61 142h29v-928q0 -36 17 -56t44 -20q44 0 80 64zM555 45q95 0 170 70.5
t102 175.5v383q0 59 -19.5 114.5t-56 102t-97.5 74.5t-136 28q-142 0 -228.5 -117t-86.5 -307q0 -234 96 -379t256 -145z" />
    <glyph glyph-name="a.ss02" horiz-adv-x="1001" 
d="M938 111l25 -11q-32 -72 -72 -101.5t-76 -29.5q-56 0 -92.5 40t-36.5 110v121q-47 -129 -130.5 -200t-188.5 -71q-116 0 -196.5 75t-80.5 192q0 156 98 241t304 107l194 18v143q0 115 -65 180.5t-181 65.5q-105 0 -190 -65t-117 -178h-29l50 303h26q0 -32 5 -48
t17.5 -18.5t29 3t42 16t53 21t66.5 18.5t78 8q144 0 235 -82t91 -230v-616q0 -36 17 -56t44 -20q44 0 80 64zM420 63q81 0 149 60.5t117 167.5v256l-184 -23q-149 -19 -219 -81t-70 -173q0 -89 60.5 -148t146.5 -59z" />
    <glyph glyph-name="a.ss03" horiz-adv-x="1017" 
d="M954 111l25 -11q-32 -72 -72 -101.5t-76 -29.5q-56 0 -93.5 40t-37.5 110v117q-47 -128 -129.5 -197.5t-187.5 -69.5q-116 0 -196.5 75t-80.5 192q0 156 98 241t304 107l192 16v141q0 115 -73.5 183.5t-192.5 68.5q-116 0 -187.5 -77.5t-76.5 -204.5l-29 -4l-49 317l29 6
q20 -41 40.5 -53t48 -1.5t58 27t85 32.5t114.5 16q150 0 248 -85t98 -227v-616q0 -36 17 -56t44 -20q44 0 80 64zM436 63q81 0 148 59t116 165v260l-182 -23q-149 -19 -220 -81t-71 -173q0 -89 61.5 -148t147.5 -59z" />
    <glyph glyph-name="c.ss04" horiz-adv-x="993" 
d="M549 -29q-200 0 -334.5 148t-134.5 370q0 239 133.5 400.5t321.5 161.5q71 0 131 -15.5t89 -32.5t52.5 -27t35.5 0t23 50l29 -6l-55 -299l-29 4q5 122 -66 195t-202 73q-143 0 -242.5 -122t-99.5 -304q0 -132 47 -243t140.5 -180.5t217.5 -69.5q97 0 176 61.5t111 163.5
l27 -6q-28 -144 -129.5 -233t-241.5 -89z" />
    <glyph glyph-name="d.ss05" 
d="M940 1481v-1291q0 -83 33 -104t121 -2v-29l-238 -86h-29v262q-28 -118 -116 -190t-207 -72q-193 0 -309.5 144t-116.5 374q0 253 128 408.5t335 155.5q87 0 164 -34.5t122 -92.5v336q0 83 -31.5 104t-119.5 2v29l235 86h29zM555 45q97 0 172.5 72.5t99.5 179.5v377
q0 59 -19.5 114.5t-56 102t-97.5 74.5t-136 28q-142 0 -228.5 -117t-86.5 -307q0 -234 96 -379t256 -145z" />
    <glyph glyph-name="u.ss05" horiz-adv-x="1144" 
d="M954 190q0 -83 32 -104t120 -2v-29l-236 -86h-28v240q-94 -126 -178.5 -183t-178.5 -57q-137 0 -213.5 90t-76.5 246v524q0 84 -32.5 105t-121.5 2v29l235 86h29v-729q0 -122 63 -185t173 -63q83 0 150.5 43t150.5 141v571q0 84 -32.5 105t-119.5 2v29l236 86h28v-861z
" />
    <glyph glyph-name="g.ss06" horiz-adv-x="1103" 
d="M854 911l59 131h29v-1101q0 -173 -97.5 -274t-262.5 -101q-106 0 -190.5 29t-132 74t-71.5 93.5t-24 94.5q0 52 30 72t64 10q59 -16 37 -113q-8 -34 2 -69t36.5 -65.5t79 -49.5t122.5 -19q134 0 214 85t80 231v348q-31 -106 -118.5 -171t-202.5 -65q-195 0 -311.5 133
t-116.5 346q0 233 128 377t335 144q97 0 182 -38.5t129 -101.5zM829 342v360q0 54 -19.5 105.5t-56 94.5t-97.5 69t-136 26q-142 0 -228.5 -108.5t-86.5 -282.5q0 -216 96 -351.5t256 -135.5q94 0 169.5 64.5t102.5 158.5z" />
    <glyph glyph-name="g.ss07" horiz-adv-x="1110" 
d="M846 911l76 140h22v-1196q0 -117 -72 -189t-190 -72h-483v58h458q78 0 126 54t48 142v385q-30 -118 -118 -191t-207 -73q-193 0 -309.5 144t-116.5 374q0 253 128 408.5t335 155.5q91 0 173 -38t130 -102zM557 45q97 0 172.5 73.5t101.5 180.5v383l-2 -8
q0 59 -19.5 114.5t-56 102t-97.5 74.5t-136 28q-142 0 -228.5 -117t-86.5 -307q0 -234 96 -379t256 -145z" />
    <glyph glyph-name="k.ss08" horiz-adv-x="1101" 
d="M426 604l461 -473q37 -37 58 -54t59.5 -32t87.5 -16v-29h-265q0 46 -75 121l-428 436v-397q0 -65 33.5 -93.5t119.5 -37.5v-29h-418v29q85 9 118.5 38t33.5 93v1100q0 83 -32 104t-120 2v29l236 86h29v-885l407 301q53 38 36.5 66t-95.5 28v29h375v-29
q-57 0 -109.5 -26.5t-149.5 -96.5z" />
    <glyph glyph-name="r.ss09" horiz-adv-x="641" 
d="M457 1020h172v-57h-148q-77 0 -125.5 -54t-48.5 -141v-608q0 -64 34 -93t120 -38v-29h-418v29q86 9 120 38t34 93v602q0 116 71.5 187t188.5 71z" />
    <glyph glyph-name="s.ss10" horiz-adv-x="876" 
d="M465 -29q-58 0 -113.5 16t-89 33t-63.5 27.5t-51.5 -1t-38.5 -52.5l-29 6l53 313l27 -4q3 -132 89.5 -206t211.5 -74q105 0 167 54t62 144q0 60 -32.5 105.5t-85 74t-115.5 52.5t-126 50.5t-115.5 59t-85 86.5t-32.5 125q0 121 86.5 196t218.5 75q55 0 109 -16
t86.5 -32.5t60.5 -27t45 0.5t27 50l29 -6l-53 -287l-27 4q-9 123 -84 189.5t-186 66.5q-92 0 -151.5 -50.5t-59.5 -129.5q0 -55 32.5 -96t85 -66t115.5 -47t126 -48.5t115.5 -61t85 -92.5t32.5 -136q0 -130 -87.5 -212.5t-238.5 -82.5z" />
    <glyph glyph-name="t.ss11" horiz-adv-x="565" 
d="M283 963v-736q0 -88 36.5 -129t114.5 -41h88v-57h-112q-117 0 -178.5 59t-61.5 174v730h-150v43q187 51 234 270h29v-256h239v-57h-239z" />
    <glyph glyph-name="at.ss12" horiz-adv-x="1689" 
d="M846 1182q203 0 368 -89t261 -253t96 -373q0 -197 -95.5 -323t-254.5 -126q-82 0 -138.5 45t-56.5 144v29q-38 -104 -104.5 -161t-151.5 -57q-92 0 -156.5 60.5t-64.5 152.5q0 123 79.5 192.5t243.5 88.5l154 16v68q0 111 -56 177.5t-149 66.5q-95 0 -137.5 -52.5
t-28.5 -115.5q16 -73 -30 -90q-30 -8 -53 8.5t-23 60.5q0 37 18 76t53.5 75t97 59.5t138.5 23.5q123 0 195.5 -79t72.5 -214v-377q0 -73 36.5 -103t84.5 -30q122 0 195 110t73 275q0 191 -89 343t-241 235t-337 83q-189 0 -342 -88.5t-239.5 -245t-86.5 -350.5
q0 -147 54 -277t148 -222.5t227 -146t284 -54.5q82 0 162.5 15.5t132.5 41.5l18 -49q-60 -28 -145 -44.5t-168 -16.5q-163 1 -306 58.5t-245 157t-160.5 239t-58.5 298.5q0 209 94 378t260 264.5t371 95.5zM819 98q63 0 116 46t91 130v209l-143 -20q-106 -14 -167 -60
t-61 -141q0 -69 48.5 -116.5t115.5 -47.5z" />
    </font>
</defs>
</svg>
