<?xml version="1.0" standalone="no"?>
<!DOCTYPE svg PUBLIC "-//W3C//DTD SVG 1.1//EN" "http://www.w3.org/Graphics/SVG/1.1/DTD/svg11.dtd" >
<svg xmlns="http://www.w3.org/2000/svg" xmlns:xlink="http://www.w3.org/1999/xlink" version="1.1">
<metadata></metadata>
<defs>
<font id="tobias_trialbold" horiz-adv-x="716" >
<font-face units-per-em="2048" ascent="1614" descent="-434" />
<missing-glyph horiz-adv-x="409" />
<glyph horiz-adv-x="0" />
<glyph horiz-adv-x="682" />
<glyph unicode=" "  horiz-adv-x="409" />
<glyph unicode="&#x09;" horiz-adv-x="409" />
<glyph unicode="&#xa0;" horiz-adv-x="409" />
<glyph unicode="," horiz-adv-x="491" d="M68 137q0 71 48.5 117.5t123.5 46.5q84 0 134 -57t50 -150q0 -163 -94.5 -266t-253.5 -135l-6 22q84 42 142.5 111.5t61.5 150.5q-20 -10 -45 -10q-70 0 -115.5 48.5t-45.5 121.5z" />
<glyph unicode="-" d="M102 518v57h512v-57h-512z" />
<glyph unicode="." horiz-adv-x="466" d="M68 137q0 68 48 116t117 48q72 0 119 -47.5t47 -116.5q0 -70 -48.5 -118t-117.5 -48t-117 48t-48 118z" />
<glyph unicode="0" horiz-adv-x="1406" d="M109 725q0 123 23 234.5t71.5 207t118.5 165.5t168.5 109.5t216.5 39.5q145 0 260 -60.5t186.5 -165.5t109 -240t37.5 -290t-37.5 -290t-109 -240t-186.5 -165.5t-260 -60.5q-118 0 -216.5 39.5t-168.5 109.5t-118.5 165.5t-71.5 207t-23 234.5zM438 838 q0 -206 34.5 -388.5t104 -302.5t158.5 -120q68 0 122 80t83 214t29 293q0 205 -34.5 387t-104 302t-158.5 120q-67 0 -121 -80t-83.5 -213.5t-29.5 -291.5z" />
<glyph unicode="1" horiz-adv-x="831" d="M49 0v29q90 9 137.5 27t63.5 44.5t16 73.5v1024h-215v29q171 46 288 104t216 142h29v-1299q0 -71 39 -101t139 -44v-29h-713z" />
<glyph unicode="2" horiz-adv-x="1222" d="M49 1077q-3 75 35.5 148t105.5 129.5t164 91.5t203 35q254 0 404.5 -113.5t150.5 -298.5q0 -102 -38.5 -184t-103.5 -138t-145 -101.5t-170.5 -83.5t-172 -73.5t-156 -83.5t-117.5 -102h602q49 0 93 11t86.5 36t75.5 73.5t50 115.5h29l-62 -539h-997l2 51 q10 135 54.5 244.5t107 181t136.5 132.5t145.5 115t130 112.5t95 140t36.5 182.5q0 111 -69 187.5t-173 76.5q-48 0 -88.5 -14t-68 -38t-49 -54.5t-30.5 -64t-12 -66.5t6 -62q21 -69 -7 -112t-87 -56q-68 -17 -115.5 17.5t-50.5 103.5z" />
<glyph unicode="3" horiz-adv-x="1218" d="M49.5 354.5q-0.5 43.5 23.5 80.5t68 50q56 15 101 0t68 -64.5t-1 -139.5q-6 -38 7 -81.5t42 -82.5t81 -64.5t116 -25.5q106 0 179 87.5t73 245.5q0 167 -113 257.5t-317 87.5v51q180 38 285.5 142.5t105.5 262.5q0 117 -56 189.5t-147 72.5q-88 0 -146 -51.5t-75 -119 t-2 -128.5q21 -69 -7 -112t-87 -56q-69 -19 -117 16.5t-51 104.5q-3 75 34 148t101.5 129.5t158 91.5t197.5 35q226 0 360 -92t140 -240q6 -146 -116 -248t-343 -133q240 -2 383.5 -100.5t143.5 -274.5q0 -131 -79 -228.5t-212 -146.5t-301 -49q-166 0 -298.5 79t-182.5 218 q-16 45 -16.5 88.5z" />
<glyph unicode="4" horiz-adv-x="1304" d="M41 393v29l621 1057h268v-979h14q91 0 164 91t109 238h28l-51 -436h-264v-135q2 -122 38 -169t140 -60v-29h-707v29q113 16 162 66t49 163v135h-571zM152 500h460v780z" />
<glyph unicode="5" horiz-adv-x="1169" d="M66.5 256.5q8.5 51.5 50.5 75.5q37 19 76 14.5t75 -40.5t54 -93q25 -84 77 -134.5t121 -51.5q113 -1 175.5 92.5t62.5 253.5q0 159 -79.5 264.5t-203.5 105.5q-145 0 -270 -122l-53 30l100 799h551q125 0 155 102h29l45 -372h-756l-59 -461q178 184 381 184 q217 0 347 -129t130 -334q0 -217 -151.5 -344t-409.5 -127q-132 0 -255.5 49t-166.5 132q-34 55 -25.5 106.5z" />
<glyph unicode="6" horiz-adv-x="1288" d="M109 690q1 190 51.5 341t138.5 249.5t207.5 150.5t261.5 52q84 0 168 -24t139 -68q50 -34 75.5 -77.5t24 -81t-21 -68t-53.5 -42.5q-137 -50 -185 138q-19 71 -62 118t-103 47q-124 0 -212.5 -186.5t-99.5 -468.5q131 176 336 176q191 0 313.5 -133.5t122.5 -343.5 q0 -221 -131.5 -361.5t-367.5 -140.5q-276 0 -440.5 198t-161.5 525zM438 702q1 -101 18 -212.5t49 -218.5t88 -176.5t126 -69.5q81 0 134.5 107.5t53.5 260.5q0 173 -79.5 286.5t-200.5 113.5q-55 0 -104.5 -23.5t-84.5 -67.5z" />
<glyph unicode="7" horiz-adv-x="1132" d="M59 975l60 475h991v-29q-155 -201 -255 -380.5t-152.5 -353t-69 -334.5t-6.5 -353h-351q-4 86 4 169t23.5 154t46 144.5t60 132t77 126t86.5 117.5t99 115.5t103 110t110 111.5h-543q-103 0 -156.5 -46.5t-97.5 -158.5h-29z" />
<glyph unicode="8" horiz-adv-x="1325" d="M84 317q0 128 86.5 219.5t261.5 155.5q-70 36 -120.5 71t-97 83.5t-71 110.5t-24.5 137q0 78 37 148t104 124t168.5 85.5t222.5 31.5q222 0 365 -99t143 -227q0 -221 -315 -315q72 -32 119 -56t105 -65t92 -83.5t57.5 -105t23.5 -135.5q0 -185 -157.5 -307.5 t-434.5 -122.5q-251 0 -408 99.5t-157 250.5zM385 348q0 -142 71.5 -232.5t192.5 -90.5q113 0 186.5 71.5t73.5 184.5q0 54 -23 101.5t-49 78t-88 69t-94 55t-113 54.5q-32 15 -48 23q-48 -42 -78.5 -127.5t-30.5 -186.5zM449 1204q0 -50 18 -93.5t44 -74.5t72 -62t84 -50.5 t99 -46.5q46 39 76 108t30 152q0 129 -60.5 208.5t-160.5 79.5q-89 0 -145.5 -60t-56.5 -161z" />
<glyph unicode="9" horiz-adv-x="1288" d="M78 981q0 221 132 361.5t368 140.5q183 0 320 -89t211 -253t73 -381q-2 -189 -52.5 -340t-139 -249.5t-208.5 -151t-262 -52.5q-84 0 -168 24t-139 68q-50 34 -75 77.5t-24 81t20.5 68t53.5 42.5q136 50 187 -138q19 -71 61.5 -118t102.5 -47q82 0 150.5 85.5t111 235.5 t49.5 334q-131 -176 -336 -176q-190 0 -313 133.5t-123 343.5zM381 1059q0 -175 80 -287.5t203 -112.5q115 0 186 89q-1 101 -18 212.5t-48.5 218.5t-87.5 176.5t-125 69.5q-82 0 -136 -107t-54 -259z" />
<glyph unicode="A" horiz-adv-x="1613" d="M10 0v29q72 1 127 56.5t111 180.5l528 1215h29l541 -1215q55 -124 115.5 -179.5t140.5 -57.5v-29h-709v29q110 2 136 53q9 17 9 42q0 49 -34 126l-95 213h-516l-92 -213q-31 -74 -31 -121q0 -28 11 -47q29 -51 143 -53v-29h-414zM418 520h467l-236 539z" />
<glyph unicode="B" horiz-adv-x="1488" d="M70 0v29q105 13 143.5 45t38.5 106v1090q0 74 -38.5 106t-143.5 45v29h700q261 0 402 -92t141 -266q0 -128 -97.5 -215.5t-257.5 -102.5q205 -19 328 -121t123 -252q0 -192 -137.5 -296.5t-392.5 -104.5h-809zM573 166q0 -49 36 -78t106 -29h61q136 0 218.5 94t82.5 250 q0 143 -87.5 233.5t-227.5 90.5h-189v-561zM573 784h144q120 0 192 85t72 223q0 135 -76 219t-200 84h-132v-611z" />
<glyph unicode="C" horiz-adv-x="1466" d="M109 692v10q0 216 87 392q89 180 257.5 283.5t386.5 103.5q77 0 148 -16t109 -32t72 -24t54.5 8t38.5 64h28l56 -457h-29q-60 183 -183.5 291t-269.5 108q-188 0 -308 -169q-119 -168 -118 -436q0 -140 40 -266q38 -122 104.5 -210.5t161.5 -140t204 -51.5q144 0 254 95 t154 265l30 -8q-25 -241 -184 -387t-391 -146q-157 0 -289 55.5t-221.5 152.5t-140 230t-51.5 285z" />
<glyph unicode="D" horiz-adv-x="1634" d="M70 0v29q105 13 143.5 45t38.5 106v1090q0 74 -38.5 106t-143.5 45v29h645q377 0 595 -183.5t218 -512.5q0 -355 -211.5 -554.5t-573.5 -199.5h-673zM569 176q0 -57 31 -88t88 -31h55q125 0 228.5 84t164 234.5t60.5 335.5q0 313 -145 497.5t-371 184.5h-111v-1217z" />
<glyph unicode="E" horiz-adv-x="1302" d="M70 0v29q105 13 143.5 45t38.5 106v1090q0 74 -38.5 106t-143.5 45v29h915q120 0 139 31h29l70 -437h-29q-47 186 -144 267.5t-272 81.5h-209v-621h189q91 0 135 56q38 48 38 134q0 14 -1 29h28l58 -495h-29q-19 109 -74.5 164t-142.5 55h-201v-541q0 -64 27 -90.5 t94 -26.5h113q173 0 270 82t141 267h29l-49 -406h-1124z" />
<glyph unicode="F" horiz-adv-x="1273" d="M70 0v29q105 13 143.5 45t38.5 106v1090q0 74 -38.5 106t-143.5 45v29h913q119 0 141 31h29l70 -437h-29q-47 186 -144 267.5t-272 81.5h-209v-621h189q91 0 135 56q38 48 38 134q0 14 -1 29h28l58 -495h-29q-19 109 -74.5 164t-142.5 55h-201v-535q0 -76 47.5 -107 t196.5 -44v-29h-743z" />
<glyph unicode="G" horiz-adv-x="1564" d="M109 692v9q0 224 94 401q96 180 265.5 279.5t381.5 99.5q74 0 144.5 -16t110 -32t74.5 -24.5t56 8t37 64.5h26l54 -457h-27q-169 399 -479 399q-174 0 -292 -174q-116 -170 -116 -436v-14q3 -223 62 -398t159.5 -270.5t225.5 -95.5q101 0 166 59v410q0 91 -47 141.5 t-136 56.5v31h676v-31q-178 -15 -178 -198v-246q-82 -128 -237 -208.5t-326 -80.5q-205 0 -364 95.5t-244 259.5t-86 368z" />
<glyph unicode="H" horiz-adv-x="1726" d="M70 0v29q105 13 143.5 45t38.5 106v1090q0 74 -38.5 106t-143.5 45v29h682v-29q-106 -13 -144.5 -45t-38.5 -106v-498h588v498q0 74 -38.5 106t-143.5 45v29h682v-29q-105 -13 -143.5 -45t-38.5 -106v-1090q0 -74 38.5 -106t143.5 -45v-29h-682v29q105 13 143.5 45 t38.5 106v535h-588v-535q0 -74 38.5 -106t144.5 -45v-29h-682z" />
<glyph unicode="I" horiz-adv-x="821" d="M70 0v29q105 13 143.5 45t38.5 106v1090q0 74 -38.5 106t-143.5 45v29h682v-29q-106 -13 -144.5 -45t-38.5 -106v-1090q0 -74 38.5 -106t144.5 -45v-29h-682z" />
<glyph unicode="J" horiz-adv-x="1206" d="M45 289q0 67 36 108t99 41q70 0 113 -41t43 -112q0 -17 -6 -52.5t-6 -52.5q0 -69 49.5 -109t126.5 -40q166 0 166 272v967q0 74 -38.5 106t-144.5 45v29h682v-29q-105 -13 -143.5 -45t-38.5 -106v-860q0 -211 -131.5 -326t-364.5 -115q-82 0 -158.5 19t-140.5 56.5 t-103 101t-40 143.5z" />
<glyph unicode="K" horiz-adv-x="1583" d="M70 0v29q105 13 143.5 45t38.5 106v1090q0 74 -38.5 106t-143.5 45v29h682v-29q-106 -13 -144.5 -45t-38.5 -106v-549l568 567q37 37 37 66q0 12 -8 24q-24 36 -122 41v31h443v-31q-66 -5 -145.5 -46.5t-145.5 -108.5l-264 -265l414 -780q38 -75 104 -127.5t123 -60.5 v-31h-526q2 65 -54 172l-301 588l-123 -123v-457q0 -74 38.5 -106t144.5 -45v-29h-682z" />
<glyph unicode="L" horiz-adv-x="1277" d="M70 0v29q105 13 143.5 45t38.5 106v1090q0 74 -38.5 106t-143.5 45v29h682v-29q-106 -13 -144.5 -45t-38.5 -106v-1096q0 -64 27 -90.5t94 -26.5h109q173 0 269 82t140 267h29l-49 -406h-1118z" />
<glyph unicode="M" horiz-adv-x="1980" d="M70 0v29q100 9 141 43t41 108v1090q0 75 -38 107t-142 44v29h458l476 -1032l473 1032l432 -2v-29q-105 -12 -143.5 -44.5t-38.5 -106.5v-1090q0 -72 41.5 -107t140.5 -44v-29h-682v29q98 9 140 44t42 107v987l-532 -1165h-29l-541 1167v-987q0 -73 41.5 -107.5 t141.5 -43.5v-29h-422z" />
<glyph unicode="N" horiz-adv-x="1521" d="M70 0v29q105 13 143.5 45t38.5 106v1090q0 75 -38 107t-142 44v29h454l686 -909v729q0 74 -37.5 106t-142.5 45v29h420v-29q-105 -13 -143.5 -45t-38.5 -106v-1270h-35l-926 1206v-1026q0 -74 38.5 -106t144.5 -45v-29h-422z" />
<glyph unicode="O" horiz-adv-x="1689" d="M109 694q0 172 56.5 319.5t155 249.5t235.5 160t294 58q137 0 255 -38t205 -105.5t149 -158.5t93 -198t31 -223q0 -228 -97 -408.5t-266.5 -280.5t-379.5 -100q-137 0 -255 38t-204.5 105.5t-148.5 159t-92.5 199t-30.5 223.5zM438 786q1 -202 56 -374q55 -174 158 -280 q102 -106 231 -105h2q111 1 195 82t128 225q44 140 43 320v8q0 203 -53.5 375.5t-156 279t-234.5 106.5q-171 0 -271 -176q-99 -173 -98 -450v-11z" />
<glyph unicode="P" horiz-adv-x="1380" d="M70 0v29q106 12 144 44t38 113v1078q0 81 -38 113t-144 44v29h657q281 0 436.5 -109.5t155.5 -304.5t-155.5 -304t-436.5 -109h-158v-437q0 -81 39 -113t144 -44v-29h-682zM569 680h78q163 0 250.5 102.5t87.5 253.5q0 156 -86 256.5t-252 100.5h-78v-713z" />
<glyph unicode="Q" horiz-adv-x="1689" d="M109 694q0 172 56.5 319.5t155 249.5t235.5 160t294 58q137 0 255 -38t205 -105.5t149 -158.5t93 -198t31 -223q0 -162 -51 -302.5t-140 -242.5t-213.5 -165.5t-269.5 -76.5q29 -93 84.5 -157t128.5 -95.5t148 -42.5q57 -9 118 -9q22 0 44 1l10 -26q-115 -53 -250 -54 q-4 -1 -9 -1q-130 0 -245 43q-119 44 -211 141.5t-121 230.5q-157 45 -271 149.5t-170 243.5t-56 299zM438 786q1 -202 56 -374.5t158 -279.5q102 -105 231 -105h2q111 1 194.5 82t128.5 225q43 140 43 320v8q0 203 -53.5 375.5t-156 279t-234.5 106.5q-170 0 -271 -176 q-98 -173 -98 -450v-11z" />
<glyph unicode="R" horiz-adv-x="1546" d="M70 0v29q106 12 144 44t38 113v1078q0 81 -38 113t-144 44v29h657q281 0 436.5 -109.5t155.5 -304.5q0 -135 -76 -230.5t-219 -141.5l313 -480q35 -56 97.5 -101t101.5 -54v-29h-496q0 52 -43 127l-309 496h-119v-437q0 -81 39 -113t144 -44v-29h-682zM569 680h78 q163 0 250.5 102.5t87.5 253.5q0 156 -86 256.5t-252 100.5h-78v-713z" />
<glyph unicode="S" horiz-adv-x="1282" d="M111 481h28q112 -236 234.5 -344t275.5 -108q110 0 179 67t69 174q0 68 -27 121.5t-72 89t-104 64.5t-124 53.5t-130 51t-124 62.5t-104 81.5t-72 115t-27 156.5q0 186 138 301t376 115q80 0 151.5 -17.5t107 -35.5t66 -26.5t47 8.5t31.5 71h29l74 -461h-29 q-80 187 -210.5 295t-266.5 108q-113 0 -175.5 -60.5t-62.5 -162.5q0 -62 27.5 -110.5t74 -82t106.5 -62t126.5 -54t133.5 -53t127 -66t106.5 -86t74 -118t27.5 -158.5q0 -201 -149 -321t-394 -120q-67 0 -126.5 12t-96.5 28.5t-69.5 32t-51.5 24.5t-35.5 4t-27.5 -28.5 t-23 -72.5h-29z" />
<glyph unicode="T" horiz-adv-x="1320" d="M20 1044l70 437h29q19 -31 139 -31h803q119 0 141 31h29l69 -437h-28q-47 186 -144 267.5t-272 81.5h-37v-1217q0 -62 35 -96.5t143 -48.5v-31h-673v31q108 14 143 48.5t35 96.5v1217h-37q-175 0 -272 -81.5t-144 -267.5h-29z" />
<glyph unicode="U" horiz-adv-x="1554" d="M41 1421v29h682v-29q-105 -13 -143.5 -45t-38.5 -106v-768q0 -202 102 -326.5t266 -124.5q166 0 265.5 124t99.5 327v768q0 74 -38.5 106t-143.5 45v29h421v-29q-105 -13 -143.5 -45t-38.5 -106v-768q0 -240 -139 -386.5t-369 -146.5q-287 0 -443.5 138t-156.5 395v768 q0 74 -38.5 106t-143.5 45z" />
<glyph unicode="V" horiz-adv-x="1613" d="M10 1421v29h711v-29q-110 -2 -136 -53q-9 -17 -9 -42q0 -49 34 -126l355 -807l346 807q33 75 33 122q0 27 -11 46q-29 51 -143 53v29h412v-29q-70 -1 -125 -56.5t-111 -180.5l-528 -1215h-29l-541 1215q-56 125 -116 180.5t-142 56.5z" />
<glyph unicode="W" horiz-adv-x="2275" d="M10 1419v31h664v-31q-41 0 -67.5 -9.5t-39.5 -26.5t-14.5 -44.5t6.5 -60.5t25 -78l303 -776l231 586l-71 174q-45 114 -100.5 174.5t-135.5 60.5v31h662v-31q-99 0 -117 -56q-5 -16 -5 -36q0 -50 33 -127l302 -778l309 778q30 75 30 123q0 25 -8 43q-24 52 -127 53v31 h375v-31q-65 0 -116.5 -55.5t-100.5 -179.5l-481 -1215h-27l-391 963l-381 -963h-27l-493 1215q-47 114 -102.5 174.5t-135.5 60.5z" />
<glyph unicode="X" horiz-adv-x="1556" d="M10 0v29q68 9 117 32t77.5 50.5t67.5 78.5l369 482l-356 575q-30 48 -46.5 70.5t-44.5 48t-62.5 37t-86.5 18.5v29h743v-29q-160 -21 -160 -94q0 -25 19 -57l223 -359l273 359q30 39 30 69q0 64 -141 82v29h441v-29q-97 -12 -150 -47.5t-113 -111.5l-307 -404l406 -655 q27 -42 37.5 -57.5t33 -42t42 -37t51 -21.5t73.5 -16v-29h-741v29q159 21 159 93q0 26 -20 58l-270 438l-334 -438q-30 -39 -30 -69q0 -64 141 -82v-29h-441z" />
<glyph unicode="Y" horiz-adv-x="1507" d="M10 1421v29h729v-29q-107 -14 -141 -50q-17 -17 -17 -42q0 -26 19 -59l303 -549l271 549q23 41 23 71q0 18 -9 31q-23 36 -125 49v29h436v-29q-106 -13 -166.5 -50t-97.5 -109l-299 -615v-471q0 -30 6 -50t23.5 -40.5t53.5 -34t93 -20.5v-31h-672v31q108 14 143 49t35 96 v410l-370 661q-26 47 -43.5 72t-44.5 48.5t-62.5 35t-87.5 18.5z" />
<glyph unicode="Z" horiz-adv-x="1310" d="M53 0v31l801 1362h-289q-175 0 -271.5 -81.5t-143.5 -267.5h-29l67 437h29q22 -31 141 -31h883v-31l-801 -1362h355q175 0 271.5 81.5t143.5 267.5h29l-70 -437h-28q-22 31 -142 31h-946z" />
<glyph unicode="a" horiz-adv-x="1198" d="M102 233q0 163 110.5 253t354.5 114l125 12v115q0 132 -46 210.5t-132 78.5q-92 0 -134 -68q-30 -49 -31 -100q0 -20 5 -41q8 -30 8 -54q0 -35 -16 -61q-27 -42 -84 -53q-20 -4 -38 -4q-45 0 -78 25q-44 33 -44 99v9q2 57 32.5 111t86.5 97.5t145 70t197 26.5 q204 0 318 -101t114 -274v-499q0 -44 17 -69.5t45 -25.5q48 0 88 76l26 -10q-78 -201 -249 -201q-36 0 -73.5 13t-72 38t-58 69t-26.5 99q-37 -107 -118.5 -163t-184.5 -56q-125 0 -206 74.5t-81 189.5zM403 317q0 -77 41.5 -125.5t108.5 -48.5q43 0 80 30.5t59 82.5v297 l-100 -14q-92 -13 -140.5 -70.5t-48.5 -151.5z" />
<glyph unicode="b" horiz-adv-x="1243" d="M31 1329v29l393 123h29v-629q29 96 105 158.5t179 62.5q140 0 241.5 -72t150.5 -188t49 -260q0 -262 -148.5 -423t-380.5 -161q-76 0 -147.5 26.5t-124.5 72.5l-201 -99h-29v1237q0 70 -29 98q-27 26 -79 25h-8zM453 307q0 -118 48 -199t130 -81q101 0 165 124t64 310 q0 125 -26.5 224.5t-86 162.5t-145.5 63q-51 0 -91.5 -32t-57.5 -86v-486z" />
<glyph unicode="c" horiz-adv-x="1081" d="M68 510q0 156 70 285.5t190 203.5t264 74q68 0 128.5 -13.5t91 -27.5t55 -20.5t36.5 6.5t21 55h26l45 -379h-28q-45 149 -135.5 235.5t-194.5 86.5q-115 0 -189.5 -115t-74.5 -285q0 -192 102 -327t262 -135q96 0 163 51.5t99 150.5l27 -6q-24 -172 -137 -276.5 t-293 -104.5q-148 0 -269 70.5t-190 194.5t-69 276z" />
<glyph unicode="d" horiz-adv-x="1298" d="M68 489q0 263 147.5 423.5t378.5 160.5q110 0 199 -47v180q1 70 -29 98q-28 26 -80 25h-8v29l391 123h29v-1282q0 -44 16.5 -69.5t44.5 -25.5q48 0 88 76l27 -10q-25 -63 -59 -106.5t-70.5 -62t-64.5 -25.5t-56 -7q-80 0 -153 59.5t-76 168.5q-26 -98 -103.5 -163 t-183.5 -65q-139 0 -240 72t-149.5 188.5t-48.5 259.5zM383 582q0 -125 26.5 -224.5t86 -163t145.5 -63.5q53 0 95 35t57 92v477q0 118 -49 199.5t-132 81.5q-101 0 -165 -124t-64 -310z" />
<glyph unicode="e" horiz-adv-x="1107" d="M68 498q0 256 148.5 414.5t383.5 158.5q220 0 328 -121q99 -112 99 -296q0 -15 -1 -31h-653q5 -134 44.5 -237.5t122 -167.5t199.5 -64q88 0 159.5 54t100.5 142l29 -6q-25 -167 -146.5 -271t-287.5 -104q-128 0 -230.5 44.5t-166 119.5t-96.5 168.5t-33 196.5zM373 676 h360q2 19 2 38q1 56 -13 114q-18 77 -59 131.5t-96 54.5q-91 0 -141 -95t-53 -243z" />
<glyph unicode="f" horiz-adv-x="1087" d="M45 985v57h170q1 115 42.5 206.5t109.5 147.5t152.5 85.5t178.5 29.5q66 0 129.5 -11t122 -34t94 -64.5t35.5 -96.5q0 -43 -23.5 -74.5t-57.5 -44.5q-25 -10 -54 -10q-9 0 -18 1q-39 4 -68 27q-29 21 -48.5 55.5t-29 66.5t-21 62t-33.5 48t-58 18q-40 0 -69.5 -30 t-46 -81.5t-24.5 -111t-8 -127.5v-62h285v-57h-285v-829q0 -62 34 -87t140 -40v-29h-608v29q75 15 102 41t27 86v829h-170z" />
<glyph unicode="g" horiz-adv-x="1157" d="M94 -213q0 65 46.5 112.5t119.5 67.5q-129 60 -129 203q0 77 43.5 144t126.5 102q-85 46 -136.5 121.5t-51.5 175.5q0 153 125.5 256.5t330.5 103.5h33q32 -1 91 -3q75 -5 135 -5q7 0 12 1q66 0 113 7.5t73 30t29 61.5h24l21 -194q-73 0 -258 37q86 -50 134 -126.5 t48 -168.5q0 -154 -126 -257.5t-329 -103.5q-120 0 -227 45q-53 -36 -53 -92q0 -65 62 -91q35 -16 76 -16q31 0 65 9l182 39q64 12 125 12h9q65 -1 123 -24t101.5 -60t68.5 -94.5t25 -128.5q0 -118 -78.5 -206.5t-212.5 -133.5t-305 -45q-215 0 -325.5 64t-110.5 157z M287 -154q0 -105 93 -165t232 -60q147 0 236.5 54.5t89.5 156.5q0 61 -44 103t-111 53q-29 4 -60 4q-42 0 -88 -8l-125 -29q-60 -14 -113 -14q-39 0 -75 8q-35 -51 -35 -103zM410 786q0 -160 52.5 -270t133.5 -110q59 0 93 64.5t34 170.5q0 160 -51.5 269.5t-128.5 109.5 q-60 0 -96.5 -64.5t-36.5 -169.5z" />
<glyph unicode="h" horiz-adv-x="1269" d="M47 0v29q66 13 91.5 42t25.5 89v1046q0 70 -30 98q-28 26 -79 25h-8v29l391 123h29v-635q82 106 166 165.5t180 59.5q152 0 229.5 -94.5t77.5 -259.5v-557q0 -60 25.5 -89t91.5 -42v-29h-537v29q67 13 92 41.5t25 89.5v538q0 86 -39.5 134.5t-109.5 48.5q-102 0 -201 -99 v-622q0 -61 25 -89.5t92 -41.5v-29h-537z" />
<glyph unicode="i" horiz-adv-x="638" d="M47 0v29q66 13 91.5 42t25.5 89v637q0 71 -30 99q-27 25 -76 24h-11v28l391 125h29v-913q0 -61 25 -89.5t92 -41.5v-29h-537zM123 1364q0 77 54.5 128.5t137.5 51.5t138 -51.5t55 -128.5q0 -78 -55 -131t-138 -53t-137.5 53t-54.5 131z" />
<glyph unicode="j" horiz-adv-x="663" d="M10 -410q39 16 65.5 31.5t55.5 46.5t46 73t28.5 111t11.5 160v785q0 72 -29 99q-26 24 -76 24h-12v28l394 125h28v-954q0 -83 -12.5 -148t-45.5 -129.5t-88.5 -113.5t-145.5 -91t-212 -71zM164 1364q0 77 54.5 128.5t137.5 51.5t138 -51.5t55 -128.5q0 -78 -55 -131 t-138 -53t-137.5 53t-54.5 131z" />
<glyph unicode="k" horiz-adv-x="1247" d="M47 0v29q66 13 91.5 42t25.5 89v1046q0 70 -30 98q-28 26 -79 25h-8v29l391 123h29v-942l375 331q40 35 49.5 66.5t-15.5 52.5t-81 25v28h422v-28q-86 -12 -149.5 -45t-154.5 -113l-108 -94l291 -606q29 -58 60 -88.5t83 -38.5v-29h-434v8q0 45 -41 129l-195 416 l-102 -90v-303q0 -61 25 -89.5t92 -41.5v-29h-537z" />
<glyph unicode="l" horiz-adv-x="638" d="M47 0v29q66 13 91.5 42t25.5 89v1046q0 70 -30 98q-28 26 -79 25h-8v29l391 123h29v-1321q0 -61 25 -89.5t92 -41.5v-29h-537z" />
<glyph unicode="m" horiz-adv-x="1935" d="M47 0v29q66 13 91.5 42t25.5 89v637q0 71 -30 99q-27 25 -76 24h-11v28l391 125h29v-235q86 112 170 172.5t182 60.5q125 0 200 -64.5t97 -181.5q87 117 174.5 181.5t188.5 64.5q151 0 229 -94.5t78 -257.5v-559q0 -61 25 -89.5t92 -41.5v-29h-539v29q67 13 92 41.5 t25 89.5v540q0 83 -41.5 132t-112.5 49q-57 0 -103.5 -25t-99.5 -80q2 -18 2 -57v-559q0 -61 25 -89.5t92 -41.5v-29h-538v29q67 13 91.5 41.5t24.5 89.5v540q0 83 -41.5 132t-111.5 49q-56 0 -101.5 -24.5t-99.5 -78.5v-618q0 -61 25 -89.5t92 -41.5v-29h-537z" />
<glyph unicode="n" horiz-adv-x="1269" d="M47 0v29q66 13 91.5 42t25.5 89v637q0 71 -30 99q-27 25 -76 24h-11v28l391 125h29v-227q82 106 166 165.5t180 59.5q152 0 229.5 -94.5t77.5 -259.5v-557q0 -60 25.5 -89t91.5 -42v-29h-537v29q67 13 92 41.5t25 89.5v538q0 86 -39.5 134.5t-109.5 48.5q-102 0 -201 -99 v-622q0 -61 25 -89.5t92 -41.5v-29h-537z" />
<glyph unicode="o" horiz-adv-x="1214" d="M68 498q0 255 151.5 415t394.5 160q238 0 386.5 -147.5t148.5 -382.5q0 -255 -153 -414.5t-396 -159.5q-236 0 -384 147t-148 382zM373 676q0 -102 19.5 -214t54.5 -210t91 -161.5t121 -63.5q89 0 136 89.5t47 243.5q0 104 -19.5 217t-54.5 212t-91 163t-122 64 q-88 0 -135 -92.5t-47 -247.5z" />
<glyph unicode="p" horiz-adv-x="1284" d="M39 -375q75 15 102 41t27 86v1045q0 71 -30 99q-26 24 -76 24h-11v28l393 125h29v-221q29 96 105 158.5t180 62.5q105 0 190 -41.5t139 -113.5t82.5 -165t28.5 -200q0 -263 -148.5 -423.5t-379.5 -160.5q-108 0 -197 47v-264q0 -62 34 -87t140 -40v-28h-608v28zM473 307 q0 -118 48 -199t130 -81q101 0 165.5 124t64.5 310q0 125 -26.5 224.5t-86 162.5t-145.5 63q-51 0 -92 -32t-58 -86v-486z" />
<glyph unicode="q" horiz-adv-x="1222" d="M68 489q0 263 147.5 423.5t378.5 160.5q157 0 270 -96l203 96h29v-1321q0 -60 27 -86t102 -41v-28h-609v28q108 15 142.5 40t34.5 87v445q-26 -98 -103.5 -163t-183.5 -65q-139 0 -240 72t-149.5 188.5t-48.5 259.5zM383 582q0 -125 26.5 -224.5t86 -163t145.5 -63.5 q53 0 95 35t57 92v477q0 118 -49 199.5t-132 81.5q-101 0 -165 -124t-64 -310z" />
<glyph unicode="r" horiz-adv-x="978" d="M47 0v29q74 15 101.5 41t27.5 86v641q0 71 -30 99q-27 25 -76 24h-11v28l392 125h28v-332q29 157 115.5 244.5t185.5 87.5q82 0 135.5 -36.5t53.5 -108.5q0 -64 -34 -102t-85 -38q-38 0 -66 17.5t-53.5 35t-56.5 17.5q-80 0 -137 -86.5t-58 -214.5v-401q0 -62 34 -87 t140 -40v-29h-606z" />
<glyph unicode="s" horiz-adv-x="985" d="M86 365h29q69 -157 175.5 -247.5t223.5 -90.5q72 0 122 41.5t50 107.5q0 60 -33 102t-85 67t-115.5 46t-127 48t-115.5 63.5t-85 101.5t-33 154q0 139 106.5 227t262.5 88q57 0 115 -17.5t91.5 -34.5t62.5 -25.5t41.5 8.5t14.5 69h29l57 -360h-28q-69 141 -166 222 t-197 81q-67 0 -113 -40.5t-46 -103.5q0 -46 25.5 -81t67 -55.5t94.5 -42t108.5 -40t108.5 -50t94.5 -70.5t67 -104t25.5 -148q0 -127 -105.5 -219.5t-287.5 -92.5q-68 0 -129 17.5t-92.5 35t-57.5 26t-40 -8.5t-25 -70h-29z" />
<glyph unicode="t" horiz-adv-x="819" d="M23 985v29q152 53 264.5 137.5t169.5 189.5h28v-299h275v-57h-275v-678q-1 -87 39 -143q36 -51 99 -52q7 0 14 1q27 2 52 12.5t35.5 18.5t35.5 28l16 -14q-17 -28 -40 -56.5t-58 -60.5t-81.5 -52t-96.5 -20q-149 0 -233.5 88.5t-84.5 239.5v688h-159z" />
<glyph unicode="u" horiz-adv-x="1316" d="M41 920v28l393 125h29v-727q0 -85 41 -132.5t112 -47.5q56 0 101.5 21.5t93.5 68.5v541q1 71 -29 99q-27 25 -77 24h-11v28l393 125h29v-874q0 -44 16.5 -69.5t45.5 -25.5q48 0 88 76l26 -10q-80 -201 -250 -201q-36 0 -73.5 13.5t-73 40t-59 72t-25.5 102.5 q-84 -107 -167 -166.5t-179 -59.5q-151 0 -229 95t-78 258v473q0 71 -30 99q-27 25 -76 24h-11z" />
<glyph unicode="v" horiz-adv-x="1130" d="M10 1014v28h584v-28q-114 -15 -114 -90q0 -28 16 -64l211 -493l211 493q17 38 17 67q0 74 -108 87v28h293v-28q-78 -18 -141 -154l-391 -891h-29l-397 891q-63 138 -152 154z" />
<glyph unicode="w" horiz-adv-x="1775" d="M10 1014v28h574v-28q-69 -8 -96 -46q-15 -21 -15 -46q0 -20 10 -43l209 -512l174 399l-45 100q-62 136 -145 148v28h575v-28q-69 -9 -95 -51q-13 -22 -13 -47q0 -24 12 -50l205 -499l217 499q11 26 11 49q0 25 -14 47q-27 42 -95 52v28h288v-28q-41 -8 -73.5 -43 t-63.5 -105l-387 -897h-26l-322 731l-320 -731h-26l-389 885q-65 148 -150 160z" />
<glyph unicode="x" horiz-adv-x="1189" d="M10 0v29q89 15 230 182l219 258l-250 416q-68 115 -172 129v28h584v-28q-71 -7 -83 -39q-3 -8 -3 -17q0 -28 28 -69l125 -207l141 170q36 42 49.5 77t0 58t-55.5 27v28h297v-28q-47 -6 -100.5 -47.5t-132.5 -135.5l-170 -200l289 -481q66 -107 174 -121v-29h-592v29 q67 13 79 46q3 9 3 18q0 28 -25 65l-158 262l-190 -230q-36 -42 -48.5 -76t1.5 -57t57 -28v-29h-297z" />
<glyph unicode="y" horiz-adv-x="1177" d="M12 -279q0 66 42 113t108 47q38 0 112 -34.5t127 -34.5q51 0 85 30t61 95l14 32l-403 889q-63 138 -144 156v28h576v-28q-112 -15 -112 -88q0 -30 18 -68l225 -530l237 530q20 42 20 72q0 69 -101 84v28h292v-28q-82 -14 -147 -156l-420 -944q-12 -30 -22.5 -52 t-31.5 -61t-41.5 -67.5t-51.5 -62t-63.5 -55t-75.5 -36t-89 -14.5q-98 0 -156.5 42t-58.5 113z" />
<glyph unicode="z" horiz-adv-x="1079" d="M55 0v29l604 956h-253q-85 0 -161.5 -68.5t-123.5 -211.5h-29l31 337h889v-28l-604 -957h288q85 0 161 80t114 234h28l-30 -371h-914z" />
<glyph unicode="&#xad;" d="M102 518v57h512v-57h-512z" />
<glyph unicode="&#x2000;" horiz-adv-x="776" />
<glyph unicode="&#x2001;" horiz-adv-x="1552" />
<glyph unicode="&#x2002;" horiz-adv-x="776" />
<glyph unicode="&#x2003;" horiz-adv-x="1552" />
<glyph unicode="&#x2004;" horiz-adv-x="517" />
<glyph unicode="&#x2005;" horiz-adv-x="388" />
<glyph unicode="&#x2006;" horiz-adv-x="258" />
<glyph unicode="&#x2007;" horiz-adv-x="258" />
<glyph unicode="&#x2008;" horiz-adv-x="194" />
<glyph unicode="&#x2009;" horiz-adv-x="310" />
<glyph unicode="&#x200a;" horiz-adv-x="86" />
<glyph unicode="&#x2010;" d="M102 518v57h512v-57h-512z" />
<glyph unicode="&#x2011;" d="M102 518v57h512v-57h-512z" />
<glyph unicode="&#x2012;" d="M102 518v57h512v-57h-512z" />
<glyph unicode="&#x2013;" horiz-adv-x="1228" d="M102 518v57h1024v-57h-1024z" />
<glyph unicode="&#x2014;" horiz-adv-x="2252" d="M102 518v57h2048v-57h-2048z" />
<glyph unicode="&#x202f;" horiz-adv-x="310" />
<glyph unicode="&#x205f;" horiz-adv-x="388" />
<glyph unicode="&#x25fc;" horiz-adv-x="1044" d="M0 0v1044h1044v-1044h-1044z" />
</font>
</defs>
</svg>
